<?xml version="1.0" encoding="utf-8"?>
<!-- Generator: Adobe Illustrator 22.1.0, SVG Export Plug-In . SVG Version: 6.00 Build 0)  -->
<svg version="1.1" id="_x31_0" xmlns="http://www.w3.org/2000/svg" xmlns:xlink="http://www.w3.org/1999/xlink" x="0px" y="0px"
	 viewBox="0 0 128 135" style="enable-background:new 0 0 128 135;" xml:space="preserve">
<style type="text/css">
	.st0{fill:#FCEFE9;}
	.st1{fill:#534858;}
</style>
<g>
	<rect class="st0" width="128" height="135"/>
	<g>
		<path class="st1" d="M116.113,31.842C116.1,31.849,116.099,31.838,116.113,31.842L116.113,31.842z"/>
		<path class="st1" d="M122.49,123.075c-0.56,0.537-1.12,1.074-1.68,1.61c0.521,0.318,1.042,0.636,1.563,0.953
			c-0.455,0.741-0.91,1.481-1.365,2.222c0.445,0.242,0.89,0.483,1.335,0.725c-0.426,0.777-0.851,1.554-1.276,2.331
			c0.613,0.032,0.058,0.752,0.109,1.173c0.059,0.487,0.282,0.633,0.664,1.048c0.379,0.412,0.682,0.537,0.546,0.921
			c-0.11,0.309-0.695,0.685-1.02,0.942h-3.968c-0.041-0.043-0.085-0.092-0.135-0.148c-0.218-0.245-0.899-0.785-0.869-1.054
			c0.033-0.294,0.799-0.617,0.943-0.907c0.184-0.369,0.281-1.235,0.273-1.641c-0.014-0.651,0.15-0.37-0.367-0.787
			c-0.47-0.379-0.6-0.141-0.577-0.614c0.021-0.414,0.604-1.08,0.796-1.452c0.267-0.52,0.34-0.429,0.129-0.786
			c-0.174-0.293-1.146-0.441-1.205-0.759c-0.123-0.674,1.449-1.605,1.414-2.301c-0.031-0.623-1.684-1.194-1.691-1.808
			c-0.005-0.43,1.294-1.116,1.462-1.644c0.218-0.683,0.12-1.781,0.047-2.503c-0.025-0.245-0.419-1.329-0.279-1.519
			c0.106-0.143,0.884-0.161,1.078-0.197c-0.43-0.243-1.821-0.725-2.016-1.14c-0.187-0.396,0.444-1.153,0.718-1.635
			c0.376-0.66,0.511-0.842,0.495-1.539c-0.017-0.802-0.382-1.631-0.34-2.43c0.016-0.295,0.226-1.099,0.275-1.568
			c0.116-1.122-0.143-0.689-0.739-1.539c-0.301-0.429-0.322-0.106-0.244-0.485c0.076-0.365,0.741-0.606,0.824-0.969
			c0.103-0.456-0.654-0.905-1.069-1.293c0.373-0.396,0.746-0.792,1.119-1.188c-0.443-0.353,0.475-1.626,0.305-2.254
			c-0.187-0.694-1.262-1.568-1.725-2.142c0.238-0.191,0.477-0.381,0.715-0.571c-0.325-0.562,0.876-2.324,0.823-3.19
			c-0.052-0.837-0.319-1.916-0.482-2.895c0.468-0.078,0.953,0.016,0.909-0.594c-0.413-0.033-0.826-0.067-1.239-0.101
			c0.064-0.784,0.301-1.722,0.203-2.497c-0.078-0.616-0.247-0.517-0.267-1.01c-0.026-0.667,0.588-1.488,0.739-2.154
			c0.166-0.727,0.192-1.511,0.285-2.252c-0.133,0.039-0.294-0.023-0.429,0.013c-0.034-1.147-0.286-2.612-0.07-3.673
			c-0.491-0.283,0.209-0.852,0.409-1.272c0.296-0.624,0.355-0.495,0.073-1.08c-0.243-0.503-0.968-0.872-1.14-1.401
			c-0.09-0.276,0.186-0.191,0.144-0.362c-0.002-0.007-0.159-0.5-0.163-0.57c-0.031-0.413-0.109-0.334-0.073-0.589
			c-0.024,0.171,0.212-0.325,0.246-0.391c0.001-0.002,0.001-0.003,0.002-0.006v-0.001c0.001-0.001,0.001-0.001,0.001-0.001
			c0.242-0.549,0.278-1.319,0.401-1.9c0.173-0.816,0.292-1.215-0.282-1.851c0.717-0.19,0.514-1.46,0.565-2.024
			c0.099-1.1-0.085-1.175,1.041-1.074l-1.195-0.804c0.299-0.44,0.596-0.88,0.894-1.32l-1.297-0.299
			c0.174-0.746,0.347-1.493,0.52-2.239c0.225-0.962,0.392-0.985-0.403-1.585c0.32-0.42,0.64-0.84,0.959-1.26
			c-0.427-0.139-0.855-0.278-1.283-0.417c0.176-0.536,0.351-1.072,0.527-1.609c-0.371-0.104-0.371-2.142-0.405-2.469
			c-0.061-0.574-0.156-1.108-0.264-1.666c-0.161-0.827-0.195-0.633,0.726-0.939c-0.227-0.106-0.424-0.276-0.649-0.388
			c0.403-0.671,0.807-1.341,1.21-2.013c-0.837-0.255-0.894-0.181-0.631-1.036c-0.404-0.153,0.121-2.597,0.176-3.094
			c0.136-1.233,0.079-1.429-0.502-2.565c0.571-0.166,0.675-2.015,0.539-2.526c-0.163-0.615,0.028-0.098-0.531-0.512
			c-0.35-0.258-0.391-0.024-0.515-0.329c-0.239-0.581,0.664-2.322,0.763-2.965c0.138-0.893-0.111-1.061-0.661-1.868
			c0.263-0.178,0.525-0.355,0.789-0.533c-0.668-0.809-0.86-0.753-0.039-1.43c-0.074-0.038-0.148-0.078-0.222-0.117
			c0.566-0.585-0.415-0.733-0.646-1.184c-0.1-0.197-0.157-0.236-0.177-0.242c0.018-0.01,0.058-0.055,0.114-0.223
			c0.072-0.212,0.427-0.47,0.583-0.642c-0.083-0.009-0.165-0.018-0.246-0.027c0.092-0.822,0.968-4.041,0.112-4.409
			c1.051-1.305,0.282-2.766-0.117-4.25c0.397-0.105,0.796-0.212,1.193-0.318c-0.424-0.311-0.85-0.623-1.275-0.935
			c0.156-0.21,0.312-0.421,0.468-0.631c-0.167-0.031-0.309-0.194-0.474-0.231c0.26-0.53,1.444-2.195,1.343-2.745
			c-0.081-0.44-0.632-0.296-0.554-0.755c0.06-0.351,0.728-0.892,0.96-1.177c-0.362-0.051-0.724-0.103-1.087-0.155
			c0.108-0.742,0.141-1.157,0.06-1.844c-0.073-0.612,0.141-2.037-0.2-2.552c-0.624-0.945-1.331-0.069-0.604-1.391
			c0.417-0.76,0.876-1.187-0.153-1.591c0.368-0.695,1.343-1.857,1.397-2.641c0.033-0.463-0.617-0.979-0.679-1.448
			c-0.085-0.648,0.001-0.487,0.75-0.836c-0.249-0.061-0.497-0.122-0.746-0.184c0.156-0.628,0.905-2.226,0.722-2.857h4.231
			c0.051,0.088,0.061,0.234,0.057,0.489c-0.015,0.818-0.607,1.631-0.607,2.448c0,0.541,0.328,1.026,0.57,1.539
			c0.427,0.909,0.382,0.797-0.538,1.226c0.359,0.188,0.716,0.375,1.074,0.564c-0.171,0.323-0.97,1.364-0.908,1.716
			c0.062,0.344,0.989,0.391,1.069,0.7c0.101,0.387-0.953,1.6-1.092,1.987c-0.089,0.251-0.161,0.266-0.157,0.54
			c0.006,0.292,0.236,0.434,0.244,0.485c0.17,1.032-0.225,2.048-0.368,3.04c-0.03,0.206-0.213,0.74-0.135,0.936
			c0.077,0.194,0.554,0.285,0.599,0.485c0.067,0.3-0.754,1.064-0.991,1.355c0.402,0.196,0.805,0.39,1.206,0.586
			c-0.153,0.313-0.854,1.284-0.781,1.597c0.069,0.295,0.767,0.463,0.807,0.749c0.057,0.409-0.979,1.022-1.07,1.446
			c-0.083,0.382,0.208,1.2,0.609,1.191c-0.034,0.657,0.293,1.381,0.24,1.976c-0.005,0.053-0.322,0.043-0.351,0.182
			c-0.044,0.214-0.026,0.46-0.036,0.679c0.007,0,0.058,0.7-0.027,0.538c0.092,0.172,0.025,0.175,0.11,0.301
			c0.075,0.11,0.532-0.035,0.614,0.069c0.107,0.136-0.02,0.408-0.008,0.63c0.054,0.978-0.294,2.008-0.337,2.989
			c-0.008,0.177-0.154,0.57-0.084,0.744c0.139,0.339,0.547,0.332,0.516,0.66c-0.035,0.382-0.859,0.682-0.961,1.06
			c-0.099,0.364-0.067,0.049,0.093,0.466c0.152,0.398,0.839,0.7,0.922,1.114c0.089,0.438,0.149,0.096-0.224,0.553
			c-0.269,0.33-0.549,0.304-0.534,0.65c0.013,0.239,0.494,0.724,0.637,0.934c-0.142,0.065-0.251,0.21-0.396,0.268
			c0.217,0.007,0.43,0.141,0.647,0.165c-0.384,1.487-0.764,2.975-1.15,4.462c-0.098,0.374-0.321,1.15-0.262,1.726
			c0.062,0.615,0.376,1.102,0.669,1.674c-0.205,0.078-0.398,0.264-0.613,0.312c0.93-0.176,0.402,0.637,0.45,1.169
			c0.067,0.748,0.193,0.345,0.537,0.942c0.191,0.33,0.086,0.5-0.092,1.08c-0.101,0.328-0.689,1.512-0.562,1.829
			c0.303,0.76,0.698-0.003,0.442,0.879c-0.148,0.509-0.476,0.664-0.463,1.16c0.027,1.073,0.823,2.465,1.167,3.497
			c-0.168,0.033-0.348,0.165-0.519,0.172c0.177,0.01,0.357,0.14,0.532,0.173c-0.092,0.278-0.174,0.573-0.221,0.836
			c-0.021,0.11,0.204,0.29,0.17,0.395c-0.031,0.096-0.173,0.082-0.205,0.171c-0.128,0.354-0.513,0.946-0.673,1.437
			c-0.047,0.141-0.294,0.604-0.253,0.772c0.04,0.165,0.552,0.265,0.568,0.43c0.026,0.264-0.796,1.044-0.972,1.276
			c0.253,0.059,0.507,0.117,0.76,0.175c-0.169,0.729-1.007,2.679-0.722,3.31c0.409,0.901,0.886,0.001,0.406,1.02
			c-0.242,0.513-0.673,0.994-0.993,1.467c0.278,0.025,0.557,0.05,0.837,0.075c-0.066,0.729-0.398,1.844-0.229,2.547
			c0.142,0.592,0.821,1.066,0.869,1.561c0.086,0.864-0.657,1.812-0.566,2.674c0.057,0.537,1.34,1.79,0.847,2.123
			c0.076,0.094,0.153,0.189,0.229,0.283c-0.525,0.424-1.051,0.849-1.576,1.273c0.338,0.197,0.675,0.393,1.013,0.59
			c-0.549,0.935-0.64,1.132-0.609,2.178c0.025,0.828,0.115,1.705,0.073,2.446c-0.016,0.276-0.085,0.607-0.125,0.924
			c-0.122,0.964-0.132,0.492,0.473,0.956c0.675,0.518,0.51-0.101,0.355,0.815c-0.081,0.481-0.339,0.983-0.498,1.443
			c0.728-0.124,0.295,1.252,0.259,1.699c-0.067,0.832-0.112,1.669-0.203,2.499c-0.131,1.2,0.187,2.474,0.395,3.717
			c-0.222,0.016-0.453,0.12-0.674,0.112c1.014,0.057,0.068,0.667,0.166,1.166c0.069,0.357,0.665,0.388,0.732,0.685
			c0.082,0.362-0.705,0.917-0.655,1.3c0.042,0.318,0.688,0.854,0.896,1.113c-0.354,0.283-1.017,0.619-1.252,1.001
			c-0.237,0.384-0.132,1.201-0.221,1.649c-0.074,0.371-0.352-0.06-0.147,0.423c0.18,0.43,0.976,0.913,1.327,1.241
			c-0.303,0.322-0.606,0.645-0.908,0.966c0.446,0.377,0.892,0.753,1.338,1.13c-0.971,1.143-1.55,1.636-1.647,3.138
			c-0.078,1.22,0.211,2.448,0.381,3.66c-0.263,0.037-0.527,0.074-0.79,0.111c0.535,0.302,2,0.876,2.075,1.358
			c0.117,0.756-1.285,1.842-1.299,2.721c-0.015,0.855,0.664,1.887,0.519,2.82c-0.025,0.155-0.273,0.027-0.299,0.121
			c-0.012,0.05-0.09,0.378-0.127,0.516c-0.105,0.395,0.223,1.076-0.293,1.063C121.486,122.035,121.989,122.555,122.49,123.075z"/>
		<path class="st1" d="M106.459,122.542c-0.75,0.23-1.5,0.459-2.251,0.688c0.335,0.272,1.677,1.038,1.735,1.415
			c0.045,0.3-1.01,1.272-1.245,1.558c0.885,0.13,0.812,0.079,0.683,0.945c-0.082,0.552-0.438,1.263,0.365,1.308
			c-0.206,0.563-1.032,1.908-0.906,2.463c0.108,0.482,1.486,0.685,1.572,1.158c0.109,0.589-1.379,1.419-1.404,2.038
			c-0.009,0.232,0.146,0.554,0.348,0.884h-4.19c-0.015-0.049-0.019-0.093-0.008-0.132c0.043-0.161,0.832-0.448,0.998-0.537
			c-0.493-0.337-0.985-0.675-1.478-1.012c0.527-0.766,1.054-1.531,1.582-2.297c-0.822-0.3-0.875-0.119-0.75-0.857
			c0.063-0.373,0.617-1.121,0.335-1.315c0.087-0.593,0.13-3.204,0.808-2.946c-0.386-0.314-0.772-0.63-1.159-0.944
			c0.329-0.4,0.657-0.801,0.986-1.201c-0.808,0.577-0.884-0.983-1.041-1.493c-0.261-0.85-0.523-1.701-0.785-2.55
			c0.797-0.244,1.085-0.207,1.411-0.871c0.371-0.757-0.083-1.584,1.004-1.192c-0.315-0.199-1.524-0.695-1.622-1.026
			c-0.114-0.386,0.792-0.94,0.805-1.365c0.02-0.714-1.57-2.019-2.102-2.636c0.369-0.317,1.598-1.025,1.702-1.46
			c0.075-0.308-0.601-0.745-0.742-1.121c0.565-0.281,0.465-1.932,0.421-2.465c-0.026-0.313,0.045-0.416-0.091-0.648
			c-0.182-0.305-0.982-0.472-1.069-0.803c-0.135-0.516,1.294-1.442,1.43-2.001c0.132-0.541-0.762-0.958-1.271-1.366
			c0.292-0.363,2.238-2.53,0.776-2.476c0.196-0.801,0.802-2.137,0.481-2.813c-0.398-0.837-0.675-0.083-0.193-0.953
			c0.266-0.479,0.765-0.914,1.119-1.337c-0.633-0.378-1.423-0.705-1.983-1.181c-0.765-0.65-0.069-0.224-0.07-1.087
			c-0.001-0.221-0.398-0.229-0.371-0.467c0.025-0.229,0.55-0.651,0.709-0.838c0.662-0.781,0.614-0.691-0.124-1.419
			c0.4-0.401,1.342-1.077,1.289-1.524c-0.077-0.663-1.894-1.337-1.868-1.989c0.026-0.648,1.833-1.176,1.959-1.826
			c0.085-0.44-0.821-1.212-1.18-1.638c0.666-0.56,1.334-1.121,2.001-1.682c-0.709-0.289-1.419-0.58-2.128-0.87
			c0.692-1.684,0.17-3.183,0.364-4.958c0.126-1.159,0.25-2.585,0.32-3.959c0.188,0.046,0.424-0.033,0.607,0.031
			c-0.457-0.769-0.821-1.349-1.486-1.944c0.057-0.063,0.114-0.126,0.169-0.188c-0.734-0.07,0.447-2.634,0.532-3.246
			c0.01-0.074-0.261-0.041-0.242-0.15c0.019-0.121,0.132-0.226,0.154-0.346c0.057-0.294,0.392-0.607,0.406-0.909
			c0.025-0.502-0.38-1.264-0.524-1.746c0.186-0.018,0.376-0.167,0.562-0.168c-0.422-0.348-0.693-0.409-0.619-0.807
			c0.062-0.332,0.793-0.953,1.012-1.216c-0.253-0.148-0.507-0.296-0.76-0.444c0.378-0.64,0.755-1.28,1.132-1.92
			c-1.152,0.092-0.942,0.021-1.032-1.099c-0.07-0.881-0.141-1.763-0.212-2.645c0.884,0.216,0.512-0.928,0.493-1.458
			c-0.036-0.949,0.153-1.099-0.809-1.213c0.177-1.478,0.854-3.222-0.084-4.44c0.139-0.063,0.234-0.227,0.375-0.286
			c-0.202-0.245,0.135-1.062,0.201-1.487c-0.44-0.102-0.062-3.495-0.04-4.181c0.176,0.033,0.392-0.035,0.563,0.018
			c-0.411-0.392-1.561-1.126-1.717-1.641c-0.17-0.561,0.545-0.767,0.928-1.342c0.266-0.398,0.605-1.088,0.353-1.616
			c-0.453-0.948-1.11-0.167-0.291-1.373c-0.55-0.237-0.629-0.167-0.679-0.579c-0.053-0.439,0.622-1.434,0.799-1.843
			c0.125-0.286,0.712-1.178,0.646-1.489c-0.062-0.292-0.883-0.744-1.142-0.95c0.58-0.723,0.516-0.724,0.228-1.6
			c-0.257-0.779-0.512-1.557-0.767-2.336c0.14-0.016,0.272-0.127,0.413-0.135c-0.229-0.312-0.457-0.624-0.687-0.936
			c0.333-0.243,0.666-0.485,0.999-0.728c-0.603-0.434,0.191-0.778,0.574-1.129c-0.453-0.191-0.907-0.382-1.36-0.573
			c0.338-0.795,0.863-1.657,1.061-2.496c0.218-0.924,0.019-0.828-0.773-1.593c0.159-0.108,0.25-0.322,0.413-0.424
			c-0.347-0.529,0.645-3.472-0.199-3.514c0.193-0.831,0.385-1.663,0.578-2.495c-0.258-0.048-0.515-0.096-0.773-0.144
			c0.203-1.087,1.221-3.505,0.436-4.447c0.246-0.187,0.446-0.291,0.656-0.33c-0.278-0.231-0.625-0.375-0.545-0.657
			c-0.26-0.123-0.521-0.248-0.782-0.371c0.401-0.839,0.801-1.679,1.202-2.518c0.447-0.937,0.143-1.016-0.469-1.884
			c0.66-0.46,1.319-0.922,1.977-1.383c-0.302-0.173-1.647-0.694-1.73-0.995c-0.022-0.077,0.026-0.213,0.112-0.378h4.289
			c-0.261,0.371-0.609,0.774-0.675,1c-0.193,0.668-0.257,0.297,0.11,0.977c0.285,0.527,0.714,1.013,1.06,1.504
			c-0.306,0.214-0.612,0.429-0.918,0.642c0.421,0.199,0.841,0.399,1.262,0.598c-0.284,0.596-1.387,1.928-0.461,2.307
			c-0.387,0.461-0.943,0.838-0.796,1.388c0.062,0.232,0.293,0.39,0.365,0.525c0.031,0.055,0.287,0.001,0.314,0.058
			c0.049,0.1-0.109,0.305-0.076,0.412c0.207,0.68-0.167,1.496-0.42,2.243c0.293,0.067,0.586,0.135,0.88,0.201
			c-0.36,1.553-0.571,2.808-0.657,4.199c-0.052,0.851-0.307,1.919-0.17,2.763c0.069,0.433,0.426,0.199,0.304,0.638
			c-0.085,0.308-0.69,0.709-0.931,0.956c0.45,0.19,0.898,0.379,1.347,0.569c-0.24,0.562-0.59,1.153-0.741,1.743
			c-0.161,0.631-0.078,0.767,0.174,1.438c-0.144,0.02-0.277,0.141-0.421,0.156c0.208,0.226,0.669,0.57,0.776,0.843
			c0.228,0.571-0.147,0.119-0.111,0.582c0.025,0.32-0.036,0.28,0.268,0.757c0.185,0.291,0.411,0.561,0.615,0.838
			c-0.593,0.432-0.989,0.53-1,1.147c-0.009,0.497,0.934,1.479,0.059,1.548c0.743,0.321-0.849,1.743-1.172,2.146
			c0.606,0.261,1.212,0.521,1.819,0.783c-0.346,0.797-1.669,2.492-0.549,2.941c-0.561,0.826-1.068,2.061-0.643,3.076
			c0.202,0.483,1.208,0.801,1.149,1.272c-0.053,0.415-1.192,1.237-1.497,1.555c0.851,0.351,0.452,0.442,0.313,1.134
			c-0.229,1.148,0.365,0.417,0.7,0.967c0.247,0.408-0.481,3.351-0.72,3.688c0.324,0.421,0.712,0.864,0.729,1.212
			c0.01,0.2-0.22,0.872-0.255,1.159c-0.068,0.572,0.046,3.116-0.795,2.789c0.024,0.632,0.048,1.264,0.072,1.896
			c0.112-0.009,0.224-0.018,0.335-0.027c0.102,1.273,0.204,2.547,0.306,3.819c-0.469,0.037-0.938,0.075-1.406,0.112
			c0.261,0.153,1.01,0.426,1.161,0.678c0.23,0.387-0.007,0.313-0.217,0.857c-0.246,0.642-0.285,0.271,0.099,0.787
			c0.253,0.341,0.747,0.618,1.078,0.891c-0.532,0.639-1.38,1.201-0.775,2.079c0.08,0.115,0.496,0.114,0.546,0.242
			c0.074,0.191-0.131,0.288-0.124,0.549c0.01,0.397,0.005,0.628,0.141,1.083c-0.119,0.035-0.24,0.071-0.36,0.107
			c1.019-0.031,0.251,1.284,0.094,1.85c-0.273,0.987-0.104,0.948,0.679,1.65c-0.314,0.348-1.283,1.017-0.914,1.467
			c-0.563,0.333-0.958,0.607-1.395,1.091c0.337,0.017,1.041-0.097,1.306,0.067c0.374,0.232,0.087-0.095,0.219,0.439
			c0.183,0.737-0.095,1.859-0.135,2.629c0.678-0.102,0.389,1.428,0.401,1.92c0.021,0.846,0.04,1.692,0.06,2.538
			c-1.032-0.21-0.95,2.938-1.746,2.616c0.382,0.451,0.765,0.902,1.147,1.355c-0.385,0.323-0.77,0.647-1.153,0.969
			c0.708,0.754,1.417,1.51,2.125,2.264c-0.7,0.652-1.401,1.305-2.101,1.957c0.31,0.307,1.111,0.828,1.241,1.225
			c0.12,0.366-0.296,0.586-0.636,0.927c0.361,0.303,1.552,0.981,1.678,1.416c0.116,0.401-0.613,1.29-0.881,1.737
			c-0.166,0.276-0.785,0.968-0.766,1.279c0.016,0.265,0.17,0.268,0.432,0.536c0.839,0.854,0.686,0.66-0.148,1.656
			c0.244,0.039,0.481,0.149,0.727,0.176c-0.219,0.89-0.581,1.838-0.673,2.746c-0.093,0.909,0.324,0.953,1.099,1.574
			c-0.477,0.59-0.953,1.181-1.429,1.771c0.325,0.244,1.659,0.996,1.666,1.332c0.01,0.399-0.938,1.166-1.035,1.536
			c-0.239,0.907,0.286,4.113-0.426,4.459c0.547,0.633,1.094,1.268,1.642,1.901c-0.757,0.649-1.514,1.298-2.27,1.947
			c0.558,0.353,1.247,0.57,1.221,1.092c-0.027,0.559-0.992,1.557-1.312,2.058c0.159,0.037,0.715,0.071,0.806,0.188
			c0.116,0.149-0.054,0.172,0.014,0.362c0.065,0.18,0.048,0.72,0.112,0.965C105.799,120.537,106.15,121.538,106.459,122.542z"/>
		<path class="st1" d="M89.695,122.305c-0.042,0.62,1.1,3.178,0.242,3.178c0.456,0.562,0.507,0.421,0.236,0.878
			c-0.236,0.398-1.297,0.698-1.418,1.143c-0.137,0.51,0.897,1.57,1.276,2.107c-0.074,0.052-0.147,0.103-0.221,0.155
			c0.305,0.441-0.947,0.767-0.958,1.21c-0.015,0.538,1.177,1.742,1.503,2.224c-0.526,0.352-1.051,0.705-1.576,1.057
			c0.531-0.078,0.655,0.277,0.629,0.743h-3.051c0.001-0.208-0.012-0.391-0.037-0.523c-0.136-0.729-0.874-1.496-1.306-2.136
			c0.553-0.371,1.105-0.742,1.658-1.113c-0.545-0.771-1.09-1.542-1.635-2.314c0.592-0.415,1.184-0.83,1.775-1.245
			c-0.362-0.447-1.917-1.912-1.806-2.36c0.065-0.259,0.666-0.378,0.775-0.625c0.077-0.175-0.031-0.242-0.016-0.468
			c0.039-0.562-0.259-1.293-0.371-1.852c0.279-0.055,0.558-0.112,0.839-0.167c-0.268-0.13-1.466-0.504-1.533-0.75
			c-0.079-0.29,0.688-1.397,0.826-1.676c0.529-1.074,0.222-1.634-0.084-2.756c0.897-0.189-0.244-2.649,0.669-2.571
			c-0.381-0.12-0.763-0.24-1.145-0.361c0.169-0.528,0.633-1.332,0.595-1.87c-0.032-0.451-0.755-0.984-0.726-1.383
			c0.002-0.036,0.764-1.039,0.824-1.15c0.273-0.51,0.554-0.878,0.544-1.415c-0.008-0.365-0.195-0.749-0.278-1.062
			c-0.09-0.34-0.68-1.708-0.528-2.023c0.201-0.415,1.162-0.016,0.858-0.95c-0.136-0.418-0.786-0.46-1.273-0.615
			c0.234-0.728,0.466-1.458,0.7-2.186c-0.372-0.285-0.855-2.354-1.098-2.943c0.505-0.101,0.224-0.499,0.137-0.884
			c-0.018-0.081-0.193-0.593-0.156-0.693c0.07-0.19,0.26,0.06,0.385-0.154c0.327-0.562,0.568-1.438,0.741-2.17
			c0.165-0.696,0.262-1.41,0.384-2.115c0.085-0.489-0.017-1.915,0.73-1.57c-0.309-0.46-1.041-1.172-1.138-1.694
			c-0.052-0.28,0.243-0.54,0.227-1.022c-0.022-0.637-1.419-2.931-0.383-2.944c-0.163-0.201-0.327-0.403-0.49-0.604
			c0.83-0.667,0.755-0.714,0.654-1.763c-0.076-0.792-0.118-1.596-0.233-2.384c-0.162-1.129-0.785-2.537-0.713-3.608
			c0.077-1.142,1.134-2.479,1.006-3.794c-0.126-1.297-0.225-2.603-0.359-4.059c0.07-0.008,0.338-0.101,0.361-0.114
			c-0.723,0.062-0.075-0.847-0.275-1.193c-0.085-0.147-0.6-0.042-0.683-0.192c-0.06-0.107,0.154-0.631,0.183-0.748
			c0.129-0.527,0.334-1.027,0.238-1.534c-0.103-0.559-0.527-1.176-0.76-1.699c0.493-0.219,0.985-0.439,1.478-0.658
			c-1.066-0.131-0.576-0.718-0.377-1.597c0.235-1.039,0.55-1.286-0.337-1.892c0.266-0.386,0.79-0.91,0.746-1.314
			c-0.049-0.44-0.88-1.217-1.153-1.596c0.362-0.26,1.126-0.613,1.301-0.997c0.393-0.863-0.414-0.883-0.991-1.031
			c0.292-1.129,0.585-2.257,0.876-3.386c-0.183,0.005-0.372-0.145-0.554-0.136c0.144-0.587,0.289-1.174,0.433-1.761
			c-0.125,0.021-0.251,0.044-0.376,0.067c-0.198-1.1-0.089-3.672-1.228-4.198c0.573-0.795,1.146-1.59,1.72-2.385
			c-0.856-0.201-0.813-0.048-0.68-0.858c0.1-0.604,0.67-1.646,0.53-2.232c-0.123-0.516-0.455-0.271-0.311-0.833
			c0.129-0.509,0.822-1.177,1.132-1.619c-0.457-0.194-0.914-0.39-1.371-0.585c0.315-0.734,0.732-1.48,0.964-2.244
			c0.25-0.823,0.199-0.702-0.493-1.376c-0.244-0.238-1.271-0.901-1.311-1.129c-0.054-0.303,0.758-1.072,0.998-1.372
			c-1.085-0.466-0.259-0.557-0.126-1.398c0.107-0.679-0.234-1.643-0.331-2.331c0.115-0.016,0.23-0.032,0.345-0.049
			c-0.729-0.26,0.461-1.398,0.697-1.817c0.447-0.795,0.359-0.624-0.352-1.265c-0.185-0.168-0.722-0.56-0.706-0.864
			c0.036-0.664,1.336-1.2,0.852-1.922c0.121-0.045,0.242-0.092,0.362-0.137c-0.238-0.295-0.765-0.321-1.183-0.422
			c0.259-1.065,0.599-2.139,0.782-3.219c0.03-0.175,0.154-0.409,0.143-0.589c-0.006-0.109-0.241-0.407-0.232-0.441
			c0.087-0.316,0.538-0.553,0.946-0.83c-0.366-0.262-1.908-1.034-1.994-1.433c-0.068-0.319,0.87-1.286,1.102-1.606
			c-0.922-0.097,0.62-2.658,0.696-3.308c0.068-0.596-0.226-1.22-0.217-1.823c0.011-0.776-0.06-0.614,0.834-0.738
			c-0.747-0.598-1.494-1.198-2.241-1.796c0.645-0.798,1.715-1.7,1.308-2.857c-0.149-0.424-1.363-1.057-1.319-1.47
			C84.802,0.072,84.817,0.038,84.841,0h5.443c0.081,0.079,0.157,0.158,0.226,0.235c-0.566,0.504-1.028,0.714-1.074,1.472
			c-0.049,0.802,0.383,0.864,1.002,1.392c0.68,0.579,0.554,0.47-0.023,1.185c-0.447,0.554-0.894,1.107-1.34,1.66
			c0.091-0.012,0.182-0.025,0.272-0.037c0.107,0.767,0.625,2.417,0.336,3.013c0.424,0.146,0.717,0.153,0.807,0.455
			c0.094,0.318-0.412,1.185-0.521,1.498c-0.196,0.563-0.304,0.588-0.068,0.969c0.152,0.248,0.824,0.395,0.845,0.657
			c0.063,0.787-1.731,1.675-1.793,2.477c-0.051,0.66,1.01,1.519,1.628,1.582c-0.271,1.117-0.544,2.236-0.815,3.354
			c-0.267,1.097-0.155,1.284,0.835,1.92c-0.287,0.442-1.13,1.173-0.353,1.502c-0.302,0.346-0.604,0.692-0.906,1.038
			c1.058,0.679,1.153,0.564,0.462,1.635c0.371,0.098,0.977,4.512,0.648,4.652c0.224,0.177,0.446,0.352,0.67,0.528
			c-0.739,0.929-1.452,1.824-2.195,2.759c0.382,0.163,0.764,0.326,1.146,0.489c-0.229,0.533-1.266,2.125-1.142,2.659
			c0.075,0.323,1.133,0.663,1.329,0.922c0.355,0.469,0.381,0.233-0.081,0.895c0.518,0.193-0.269,2.235-0.402,2.794
			c-0.053,0.227-0.281,0.776-0.202,0.976c0.163,0.41,1.066,0.501,1.26,0.901c0.293,0.603-0.834,1.086-0.96,1.772
			c-0.154,0.839,0.387,2.165,0.54,3.015c-1.024-0.044-0.968,1.281-0.947,2.139c0.019,0.818-0.138,0.382,0.567,0.755
			c0.655,0.345,0.472-0.07,0.553,0.514c0.15,1.091-1.066,2.383-0.899,3.471c0.093,0.61,1.082,1.552,1.451,2.062
			c-0.368,0.264-0.735,0.527-1.102,0.791c0.441,0.302,0.586,0.28,0.539,0.665c-0.039,0.321-0.561,0.814-0.747,1.086
			c0.478,0.107-0.408,2.416-0.288,3.02c0.056,0.28,0.315,0.883,0.498,1.113c0.103,0.129,0.563,0.205,0.595,0.277
			c0.076,0.171-0.183,0.517-0.148,0.721c0.045,0.258,0.237,0.528,0.345,0.77c-1.552,0.358-1.404,4.413-1.205,5.64
			c0.077,0.477,0.143,1.591,0.43,1.961c0.469,0.602,0.563-0.05,0.488,0.868c-0.044,0.543-1.059,2.224-0.41,2.359
			c-0.487,1.212,0.043,2.464,0.293,3.73c-0.959,0.094-0.725,0.354-0.644,1.201c0.074,0.76,0.146,1.52,0.22,2.28
			c-0.317,0.029-0.632,0.06-0.948,0.09c0.417,0.513,1.756,1.472,0.692,1.896c0.086,0.241,0.214,0.771,0.322,1.124
			c0.19,0.628,0.31,0.84,0.101,1.2c-0.068,0.116-0.407,0.103-0.497,0.226c-0.085,0.119-0.085,0.754-0.057,0.904
			c0.04,0.216,0.258,0.554,0.464,0.863c-0.545,0.363-1.089,0.726-1.633,1.089c0.494,0.085,0.989,0.17,1.482,0.255
			c-0.074,0.431-0.328,1.121-0.267,1.549c0.102,0.72,0.087,0.053,0.504,0.587c0.3,0.384,0.319,0.071,0.102,0.84
			c-0.151,0.541-0.354,1.088-0.461,1.64c-0.277,1.44,0.479,3.423,0.758,4.686c-0.882,0.122-1.151,2.445-1.386,3.179
			c1.23-0.084,0.524,0.747,0.593,1.593c0.06,0.763,0.413,1.583,0.607,2.327c-0.693,0.18-1.386,0.36-2.079,0.539
			c0.363,0.192,1.939,0.766,2.028,1.115c0.12,0.474-1.423,1.536-0.14,1.662c-0.047,0.379-0.006,0.49-0.087,0.735
			c-0.021,0.064-0.241,0.363-0.292,0.459c-0.344,0.636-0.473,1.488-0.692,2.179c0.2-0.045,0.436,0.062,0.637,0.018
			c-0.035,1.229-0.07,2.459-0.106,3.688c-0.102-0.003-0.204-0.006-0.307-0.009c0.005,0.83,0.992,1.013,1.613,1.316
			C90.559,120.355,89.755,121.423,89.695,122.305z"/>
		<path class="st1" d="M75.192,62.043c-0.313,0.558-1.034,0.533-0.996,1.217c0.024,0.448,0.772,1.271,1.009,1.662
			c-0.407,0.244-0.814,0.49-1.221,0.735c0.137-0.005,0.285,0.076,0.422,0.088c-0.076,0.356-0.151,0.713-0.226,1.068
			c0.069-0.001,0.14-0.003,0.209-0.006c0.027,0.928,0.055,1.858,0.081,2.786c0.032,1.081,0.402,1.552-0.726,1.584
			c0.242,0.145,1.418,0.624,1.481,0.885c0.065,0.259-0.843,1.402-0.965,1.604c-0.217,0.362-0.766,0.975-0.796,1.384
			c-0.026,0.38,0.362,0.922,0.444,1.168c0.057,0.167,0.201,0.585,0.199,0.76c-0.005,0.606,0.017,0.111-0.194,0.514
			c-0.093,0.18-0.284,0.162-0.409,0.447c-0.261,0.596,0.082,0.461,0.107,0.748c0-0.075,0.177,0.268,0.188,0.268
			c0.017,0.094-0.211,0.251-0.188,0.345c0.057,0.237,0.21,0.474,0.297,0.699c0.239,0.612,0.516,1.212,0.773,1.816
			c-0.304,0.105-0.263,0.351-0.061,0.632c-0.287,0.094-0.574,0.188-0.861,0.283c0.073,0.154-0.007,0.493-0.134,0.734
			c0.979-0.284,0.296,1.788,0.547,2.307c0.297,0.614,0.84,0.44,0.606,1.029c-0.188,0.476-0.79,0.456-0.606,1.103
			c-0.099,0.001-0.199,0.002-0.297,0.004c0.312,0.435,0.505,0.883,1.113,0.9c-0.259,0.924-1.128,2.671-0.878,3.55
			c0.166,0.582,0.994,0.844,0.794,1.364c-0.107,0.277-0.657,0.369-0.817,0.625c-0.108,0.175-0.103,0.524-0.149,0.722
			c-0.279,1.21-0.572,2.272,0.016,3.415c0.254,0.494,1.285,1.377,1.293,1.918c0.005,0.356-0.724,0.672-1.099,0.922
			c1.241,1.1-0.237,0.636-0.469,1.83c-0.104,0.537,0.934,1.126,1.37,1.51c-0.377,0.424-1.121,1.142-0.115,1.357
			c-0.145,0.179-0.12,0.373-0.159,0.54c0.04,0.109,0.078,0.217,0.118,0.325c-0.109,0.04-0.218,0.079-0.326,0.118
			c-0.169,0.389-0.537,0.939-0.743,1.38c-0.215,0.455-0.496,0.804-0.369,1.218c0.136,0.441,0.824,0.983,1.129,1.346
			c-0.426,0.354-0.851,0.709-1.277,1.063c0.522,0.231,1.046,0.293,1.062,0.751c0.014,0.371-0.367,0.787-0.382,1.195
			c-0.047,1.228,0.415,2.652,0.606,3.87c-0.136-0.01-0.284,0.081-0.419,0.066c0.469,0.82-0.994,0.783-1.54,0.906
			c0.355-0.045,0.711-0.089,1.065-0.135c0.154,1.217,0.325,2.253,0.734,3.406c-0.333,0.116-0.665,0.234-0.999,0.352
			c0.501,0.541,1.001,1.082,1.502,1.623c-0.405,0.372-0.81,0.744-1.216,1.116c0.411,0.171,1.252,0.363,1.331,0.703
			c0.1,0.425-0.729,1.728-0.897,2.136c-0.217,0.533-0.47,1.105-0.357,1.704c0.126,0.676,0.429,0.688,1.11,1.07
			c-0.161,0.285-0.808,1.061-0.754,1.373c0.036,0.204,0.511,0.297,0.536,0.485c0.027,0.201-0.333,0.352-0.404,0.575
			c-0.209,0.662,0.044,1.21,0.413,1.794h-5.725c-0.245-0.282-0.448-0.284,0.06-0.762c0.267-0.251,0.882-0.841,1.062-0.797
			c-0.154-0.097-0.329-0.357-0.515-0.472c0.076-0.09,0.151-0.181,0.227-0.271c-0.133-0.038-0.238-0.168-0.37-0.207
			c0.388-0.495,0.645-2.493,0.052-2.672c0.411-1.019,0.531-0.928-0.483-1.35c0.33-0.785,0.659-1.57,0.989-2.354
			c0.37-0.882,0.519-0.852-0.098-1.555c-0.857-0.98,0.02-0.665,0.617-1.599c0.306-0.478,0.212-0.579-0.011-1.202
			c-0.132-0.368-0.479-0.948-0.472-1.328c0.01-0.474,0.195-0.245,0.237-0.624c0.067-0.602-0.308-1.264-0.434-1.822
			c-0.175-0.769-0.251-3.354-0.831-3.564c0.316-0.708,1.323-2.184,1.136-2.869c-0.115-0.42-1.086-0.918-1.024-1.318
			c0.045-0.293,1.086-0.904,1.337-1.113c-0.506-0.237-1.013-0.474-1.52-0.71c0.199-0.424,0.976-1.496,0.91-1.935
			c-0.066-0.431-0.876-0.903-1.217-1.201c0.244-0.276,0.605-0.499,0.511-0.852c0.317-0.063,1.296-0.856,1.284-1.174
			c-0.009-0.258-1.153-1.022-1.356-1.203c0.428-0.479,0.912-0.794,0.83-1.32c-0.082-0.519-0.847-1.256-1.152-1.71
			c0.491-0.329,0.802-0.423,0.9-0.914c0.11-0.559-0.649-1.368,0.424-1.234c-0.455-0.318,0.425-1.622,0.292-2.172
			c-0.163-0.675-1.213-1.571-1.649-2.135c0.321-0.247,0.644-0.494,0.966-0.741c-0.104-0.029-0.208-0.058-0.312-0.086
			c0.143-0.51,0.628-1.462,0.55-1.972c-0.067-0.444-0.738-1.066-1.013-1.451c1.093-0.353,0.339-1.445-0.135-1.916
			c0.857-0.857,0.592-1.667,0.575-2.867c1.639-0.024,1.018-1.14,0.543-2.258c-0.215-0.502-0.661-1.151-0.424-1.503
			c0.103-0.154,0.499-0.172,0.644-0.309c0.207-0.196,0.315-0.594,0.452-0.85c-1.124,0.013-0.411-0.794-0.361-1.503
			c0.043-0.623-0.202-1.151-0.406-1.763c0.317-0.105,0.632-0.209,0.948-0.314c-0.894-0.529-1.261-0.952-2.215-1.522
			c0.511-0.849,1.212-1.662,1.321-2.629c0.142-1.262-0.077-2.662-0.114-3.933c0.915,0.221,0.38-0.959,0.2-1.3
			c-0.38-0.72-0.852-1.403-1.275-2.101c0.424-0.256,1.175-0.595,1.141-1.23c-0.021-0.404-0.723-0.994-1.002-1.326
			c0.588-0.489,0.885-0.858,1.421-1.392c-0.143,0.025-0.301-0.037-0.445-0.021c0.018-0.388,0.249-1.298,0.078-1.634
			c-0.137-0.269-1.025-0.554-1.305-0.706c0.523-0.959,1.742-2.39,1.883-3.457c0.053-0.402-0.708-1.287-0.528-1.618
			c0.14-0.256,1.387-0.459,1.706-0.566c-0.052-0.044-0.103-0.087-0.154-0.13c-0.763-0.639-1.398-1.092-2.313-1.544
			c0.382-0.77,0.765-1.54,1.147-2.309c-0.86-0.24-0.793-0.12-0.618-0.941c0.186-0.862,0.208-0.708-0.634-1.159
			c0.329-0.612,0.957-1.382,1.095-2.059c0.144-0.704-0.081-1.661-0.116-2.383l0.851-0.041c-0.159-0.215-0.354-0.631-0.571-0.772
			c-0.241-0.157-0.675-0.052-0.901-0.226c-0.513-0.398-0.018,0.079-0.206-0.509c-0.102-0.32,0.285-0.383-0.158-0.535
			c0.297-0.746,0.631-1.486,0.864-2.253c0.385-1.263,0.284-1.361-0.521-2.368c-0.166-0.206-0.67-0.66-0.608-0.875
			c0.115-0.399,1.095-0.556,1.205-0.957c0.057-0.206-0.828-1.43-1.074-1.606c0.455-0.439,0.91-0.876,1.365-1.314
			c-0.552,0.109-0.318-0.772-0.516-1.17c-0.491-0.99-0.401-0.323,0.095-1.177c-1.357-0.151-0.258-1.256-0.26-2.228
			c-0.002-0.847-0.573-1.277-1.15-1.98c0.468-0.38,0.936-0.761,1.404-1.141c-0.364-0.317,0.631-1.445,0.658-1.931
			c0.038-0.672,0.124,0.016-0.291-0.585c-0.202-0.292-0.319-0.167-0.388-0.389c-0.149-0.469,0.221-1.519,0.308-2.032
			c0.071-0.438,0.033-1.747,0.53-1.692c-0.334-0.479-1.889-2.019-0.982-2.32c-0.203-0.173-0.405-0.347-0.607-0.521
			c0.667-0.771,0.958-1.838,0.892-2.889c-0.041-0.663-0.472-1.299-0.53-1.961c-0.058-0.674-0.242-0.597,0.576-0.775
			c-0.492-0.64-0.983-1.28-1.474-1.92c1.188-0.906,1.665-1.799,2.582-3.11c-0.3-0.145-0.83-0.275-1.053-0.511
			c-0.386-0.409-0.264-0.024-0.07-0.681C70.036,0.4,70.124,0.202,70.211,0h3.623c-0.201,0.391-0.565,0.869-0.64,1.103
			c-0.212,0.673-0.303,0.316,0.095,0.818c0.301,0.378,0.944,0.656,1.345,0.934c-0.252,0.358-0.772,0.872-0.723,1.246
			c0.052,0.4,0.846,1.101,1.105,1.44c-0.349,0.267-1.354,0.745-1.494,1.139c-0.132,0.37,0.401,1.487,0.51,1.89
			c0.085,0.314,0.35,0.81,0.308,1.139c-0.001,0-0.367,0.336-0.41,0.599c-0.052,0.308-0.067,0.387,0.037,0.609
			c0.143,0.302,0.738,0.427,0.859,0.738c0.043,0.113,0.072,0.155,0.086,0.168c-0.02,0.001-0.067,0.037-0.138,0.253
			c-0.195,0.594-0.948,0.722-0.839,1.314c0.123,0.671,0.81,0.638,0.478,1.199c-0.239,0.405-1.146,0.79-1.539,1.062
			c0.52,0.085,1.04,0.171,1.558,0.255c-0.094,0.569-0.641,1.812,0.102,2.014c-0.209,0.382-0.418,0.764-0.625,1.147
			c0.015,0.18-0.07,0.421-0.1,0.599c-0.218,0.025-0.14,0.061-0.293,0.119c0.286,0.122,0.572,0.243,0.858,0.365
			c-0.257,0.599-0.871,1.511-0.721,2.083c0.141,0.538,0.982,0.891,1.163,1.419c0.203,0.594,0.115,0.081-0.222,0.662
			c-0.37,0.636-0.869,1.821-0.78,2.627c0.073,0.663,0.633,1.135,1.074,1.684c-0.499,0.4-0.969,0.795-1.463,1.169
			c0.378,0.389,0.973,0.811,1.238,1.278c0.194,0.34-0.287,0.522,0.317,0.98c-0.408,0.318-0.815,0.634-1.222,0.952
			c0.381,0.477,0.764,0.955,1.145,1.432c-0.538,0.426-1.075,0.853-1.612,1.279c1.129,0.449,1.557,0.215,1.266,1.362
			c-0.314,1.239-0.773,1.894-0.01,2.926c-0.34,0.25-0.858,0.465-0.957,0.89c0.123-0.006,0.246-0.011,0.369-0.018
			c0.028,0.591-0.125,1.562,0.101,2.093c0.206,0.486,0.648,0.612,1.176,0.895c-0.481,0.895-0.983,1.781-1.446,2.685
			c-0.486,0.947-0.435,0.931,0.558,1.42c-0.232,0.467-0.973,1.275-0.233,1.578c-0.461,0.539-1.013,1.063-1.38,1.669
			c0.65-0.395,1.177,2.291,1.371,2.872c-0.16,0.025-0.325,0.156-0.486,0.161c0.413,0.224,1.369,0.565,1.422,0.93
			c0.058,0.396-0.686,1.171-0.785,1.618c-0.151,0.684,0.262,3.066-0.494,2.965c0.299,0.356,0.58,0.692,0.874,1.043
			c0.167,0.199,0.73,0.655,0.749,0.895C75.408,61.956,75.36,61.746,75.192,62.043z"/>
		<path class="st1" d="M74.913,11.822C74.926,11.822,74.926,11.837,74.913,11.822L74.913,11.822z"/>
		<path class="st1" d="M58.689,47.761c-0.428,0.773-0.526,0.824-0.37,1.618c0.147,0.757,0.43,1.51,0.642,2.252
			c-1.093,0.31-1.006,0.643-1.351,1.732c0.219-0.043,0.473,0.094,0.694,0.053c-0.06,0.784-0.094,1.622-0.152,2.378
			c-0.039,0.507,0.111,2.275-0.606,2.049c0.317,0.564,0.634,1.129,0.951,1.693c-0.477,0.265-0.952,0.53-1.429,0.796
			c0.571,0.801,1.142,1.602,1.713,2.403c-0.427,0.302-0.854,0.604-1.28,0.906c1.288,0.115,0.291,0.837,0.369,1.731
			c0.009,0.099-0.123,0.323-0.094,0.434c0.023,0.086,0.446,0.085,0.454,0.169c0.023,0.244-0.169,0.655-0.29,0.972
			c0.704,0.374,0.319,1.108,0.373,2.012c0.085,1.422,0.518,1.558-0.944,1.703c0.53,0.391,1.061,0.783,1.591,1.174
			c-0.395,0.532-1.131,1.185-1.209,1.849c-0.09,0.768,0.577,1.358,0.999,1.965c-0.502,0.346-1.092,0.564-1.14,1.083
			c-0.054,0.597,0.54,1.601,0.739,2.19c-0.413,0.139-0.827,0.277-1.24,0.416c0.415,0.586,1.032,1.208,1.321,1.86
			c0.318,0.714,0.204,0.546-0.548,1.077c1.011-0.052,0.078,1.6,0.098,2.21c0.021,0.66,1.154,2.777-0.016,2.694
			c0.421,0.489,0.842,0.976,1.263,1.465c-0.31,0.265-0.619,0.53-0.928,0.795c0.213,0.048,0.398,0.229,0.612,0.27
			c-0.128,0.291-0.242,0.766-0.339,0.984c-0.056,0.125-0.261,0.295-0.336,0.534c-0.141,0.452-0.421,1.685,0.305,1.715
			c-0.068,1.027,0.297,1.848,0.492,2.782c0.062,0.303,0.195-0.001,0.193,0.294c-0.001,0.2-0.381,0.64-0.482,0.809
			c-0.288,0.484-0.577,0.967-0.865,1.451c0.352,0.121,0.704,0.241,1.057,0.362c-0.37,1.069-0.867,2.16-1.127,3.259
			c-0.233,0.988,0.318,1.247,0.999,2.082c-0.594,0.482-1.187,0.964-1.782,1.444c0.535,0.267,1.069,0.533,1.604,0.798
			c-0.218,0.433-0.73,1.071-0.749,1.536c-0.019,0.476,0.44,1.254,0.597,1.703c0.145,0.415,0.857,1.703,0.75,2.14
			c-0.089,0.36-0.665,0.414-1.121,0.573c0.396,0.864,0.793,1.729,1.189,2.594c-0.45,0.205-0.9,0.41-1.351,0.615
			c0.135,0.127,0.167,0.362,0.3,0.49c-1.225,0.427,0.202,3.449-0.81,3.238c0.402,0.407,0.802,0.815,1.203,1.222
			c-0.623,0.608-0.808,0.538-0.566,1.221c0.132,0.374,1.064,1.24,0.968,1.588c-0.066,0.241-0.747,0.343-0.884,0.561
			c-0.091,0.144-0.135,0.183-0.152,0.193c0.018,0.002,0.064,0.043,0.091,0.302c0.062,0.595,0.637,1.347,0.898,1.899
			c-0.143,0.036-0.27,0.17-0.414,0.195c0.285,0.366-1.176,2.413-1.471,2.946c0.297,0.127,1.614,0.498,1.706,0.757
			c0.128,0.356-0.714,1.53-0.822,1.911c-0.158,0.559-0.135,1.193-0.182,1.774c-0.021,0.265-0.146,0.729-0.081,1.001
			c0.038,0.15,0.383,0.202,0.484,0.316h-4.109c-0.142-0.904,1.097-3.034-0.249-3.231c0.294-0.685,0.992-1.675,1.034-2.407
			c0.029-0.502,0.187-0.149-0.039-0.504c-0.214-0.338-1.143-0.353-1.298-0.715c-0.213-0.499,0.76-1.17,0.765-1.765
			c0.003-0.574-0.743-1.573-0.993-2.101c0.3-0.14,0.599-0.281,0.898-0.421c-0.226-0.355-1.236-1.474-1.175-1.842
			c0.05-0.292,1.334-0.874,1.64-1.069c-0.877-0.892-0.841-0.771,0.065-1.656c-0.076,0.006-0.151,0.01-0.227,0.015
			c-0.05-0.762-0.472-2.59-0.11-3.121c-0.257-0.42-0.513-0.838-0.77-1.258c0.994-0.225-0.101-1.605-0.356-2.162
			c0.597-0.273,0.732-0.218,0.806-0.688c0.081-0.512-0.568-1.619-0.741-2.115c-0.173-0.492-0.358-0.726-0.146-1.022
			c0.196-0.277,1.281-0.446,1.627-0.567c-0.43-0.214-0.859-0.427-1.288-0.641c0.319-0.637,1.218-1.764,1.229-2.45
			c0.009-0.532-0.789-1.198-1.165-1.659c0.52-0.422,1.04-0.842,1.561-1.264c-0.427-0.147-1.495-0.289-1.782-0.612
			c-0.255-0.286-0.072-0.463,0.101-0.962c0.213-0.618,0.519-1.259,0.656-1.898c0.162-0.756,0.292-0.395-0.182-0.889
			c-0.423-0.443-1.063-0.348-1.038-0.888c0.021-0.44,0.692-0.968,0.83-1.392c0.297-0.907,0.14-2.115-0.078-3.019
			c0.422-0.102,0.843-0.202,1.264-0.303c-0.304-0.135-1.254-0.374-1.447-0.64c-0.274-0.375,0.075-0.388,0.184-0.976
			c0.107-0.57-0.18-0.527-0.221-1.064c-0.035-0.473,0.194-0.425,0.752-0.735c-0.121-0.14-0.849-0.772-0.834-0.967
			c0.022-0.305,0.948-0.635,1.071-0.917c0.104-0.242,0.076-0.86-0.112-1.148c-0.199-0.305-0.461-0.317-0.563-0.578
			c-0.137-0.352,0.486-2.157,0.557-2.476c0.266-1.177,0.184-1.26-0.515-2.245c0.902-0.636,1.462-0.634,1.153-1.695
			c-0.095-0.332-0.687-1.354-0.569-1.688c0.108-0.311,0.437-0.329,0.89-0.481c-0.424-0.612-0.849-1.224-1.273-1.834
			c0.779-0.278,0.5-0.89,0.141-1.295c-0.653-0.735-1.062-0.333-0.718-1.168c0.22-0.538,1.025-1.071,1.137-1.567
			c0.119-0.528,0.015-1.434-0.628-1.471c0.224-0.625,0.326-0.971,0.234-1.466c-0.068-0.366-0.222,0.053-0.221-0.484
			c0-0.254,0.223-0.594,0.316-0.837c-0.413-0.279,0.323-1.998,0.378-2.555c0.091-0.931-0.326-1.248-0.899-2.054
			c0.269-0.19,1.283-0.672,1.366-0.967c0.059-0.207-0.599-1.067-0.704-1.254c-0.128-0.227-0.9-1.233-0.832-1.482
			c0.065-0.239,0.957-0.574,1.216-0.719c-0.342-0.026-0.684-0.052-1.027-0.078c0.112-1.466,0.201-3.136,0.299-4.458
			c0.074-0.991-0.11-1.624-0.407-2.668c-0.085-0.298-0.586-1.338-0.473-1.658c0.087-0.249,0.461-0.259,0.802-0.356
			c-0.325-0.178-0.649-0.355-0.974-0.534c0.538-0.973,0.72-1.272,0.681-2.35c-0.017-0.476-0.412-2.937,0.236-2.83
			c-0.017-0.423,0.197-1.442-0.367-1.347c-0.041-1.548-0.078-2.96-0.124-4.658c0.49,0.139,0.824-0.191,0.7-0.719
			c-0.068-0.289-0.576-0.639-0.809-0.87c0.292-0.293,0.583-0.587,0.876-0.88c-0.776-0.429-0.542-0.186-0.544-0.759
			c0-0.007,0.177-0.622,0.187-0.675v-0.001c0.001-0.001,0.001-0.002,0.001-0.002c0.43-1.263,0.664-1.15-0.505-1.896
			c0.293-0.456,1.272-1.475,1.283-1.993c0.014-0.759-1.251-0.829-0.082-1.42c-0.305-0.13-0.611-0.261-0.915-0.391
			c0.188-0.439,0.679-1.184,0.528-1.578c-0.2-0.522-1.217-0.702-1.142-1.227c0.078-0.542,0.841-0.794,0.907-1.418
			c0.065-0.608-0.157-1.34-0.228-1.952c0.724,0.156,1.049-0.914,0.843-1.487c-0.149-0.414-1.077-0.873-1.456-1.155
			c0.373-0.499,0.747-0.996,1.12-1.494c-0.46-0.029-0.194-2.274-0.189-2.773c0.013-1.296,0.294-0.968,1.589-0.956
			c-0.512-0.647-1.024-1.294-1.536-1.941c0.2-0.157,0.401-0.316,0.602-0.473c-0.144,0.017-0.301-0.053-0.446-0.046
			c0.052-0.5,0.384-1.295-0.345-1.305c0.108-0.355,0.557-1.21,0.466-1.552c-0.11-0.409-0.839-0.283-1.057-0.651
			c-0.345-0.586,0.949-1.804,1.012-2.546c0.049-0.563-0.717-1.414-1.056-1.918c-0.302-0.449-0.532-0.581-0.347-0.941
			c0.178-0.346,1.036-0.692,1.37-0.915c-0.314-0.245-0.63-0.492-0.945-0.737C53.335,0.018,53.342,0.009,53.349,0h5.064
			c-0.085,0.11-0.171,0.218-0.258,0.328c0.407,0.293,0.814,0.586,1.22,0.879c-0.615,0.848-0.697,0.8-0.109,1.674
			c-0.322,0.216-0.646,0.431-0.968,0.647c0.071,0.067,0.142,0.135,0.213,0.202c-0.186,0.193-0.371,0.388-0.556,0.581
			c0.306,0.145,0.613,0.288,0.919,0.433c-0.305,0.645-0.611,1.289-0.917,1.934c0.249,0.074,0.496,0.148,0.743,0.222
			c-0.32,1.068-0.981,2.603-0.779,3.752c0.068,0.386,0.731,0.914,0.68,1.186c-0.058,0.31-1.294,1.017-1.563,1.228
			c0.334,0.003,0.666,0.006,1,0.009c-0.009,0.88-0.017,1.76-0.026,2.638c-0.009,0.975,0.07,0.925,0.881,1.529
			c-0.423,0.563-0.847,1.128-1.27,1.692c1.008-0.165,0.378,0.973,0.409,1.48c0.02,0.342,0.236,1.238,0.295,1.747
			c0.025,0.209,0,0.67,0.102,0.866c0.141,0.273,0.783,0.457,0.837,0.745c0.058,0.32-0.872,1.105-1.145,1.41
			c0.122,0.052,0.244,0.104,0.366,0.156c-0.224,0.521-0.916,1.548-0.832,2.068c0.143,0.893,1.666,1.121,0.435,1.803
			c0.907,0.254,0.261,0.791-0.065,1.298c0.168,0.067,0.832,0.208,0.89,0.355c0.104,0.266-0.504,0.797-0.432,1.077
			c0.211,0.818,0.784,0.005,0.317,1.062c-0.363,0.82-0.894,1.022-0.44,1.724c0.531,0.819,0.564,0.527-0.234,1.329
			c0.191-0.016,0.392,0.113,0.583,0.11c-0.511,2.679-0.152,5.37-0.059,7.992c0.014,0.38-0.097,1.052,0.05,1.401
			c0.124,0.294,0.232,0.153,0.422,0.446c0.379,0.582,0.326-0.097,0.249,0.526C59.325,46.894,58.868,47.438,58.689,47.761z"/>
		<path class="st1" d="M43.306,97.1c0.056,0.119,0.375,0.633,0.362,0.775c-0.007,0.079-0.009,0.131-0.01,0.164
			c-0.011-0.033-0.051-0.037-0.162,0.176c-0.067,0.128-0.418,0.153-0.515,0.277c-0.096,0.122-0.073,0.375-0.133,0.524
			c-0.125,0.311-0.602,1.59-0.481,1.901c0.102,0.264,0.896,0.282,0.982,0.542c0.079,0.24-0.618,1.22-0.747,1.474
			c0.924-0.165,0.19,2.464,0.124,3.024c-0.054,0.457,0.007,1.301-0.204,1.726c-0.04,0.08-0.4-0.077-0.424-0.024
			c-0.087,0.185-0.107,0.532-0.116,0.737c0.304-0.016,0.608-0.032,0.912-0.048c0.056,1.06,0.11,2.118,0.165,3.178
			c0.067,1.3,0.321,1.353-1.033,1.422c0.43,0.758,0.861,1.515,1.293,2.272c-0.184,0.104-1.057,0.443-1.101,0.622
			c-0.058,0.233,0.431,0.317,0.437,0.504c0.011,0.351-0.969,1.406-1.126,1.632c-0.725,1.053-0.082,0.832,0.56,1.82
			c0.134,0.206,0.426,0.348,0.382,0.542c-0.064,0.287-0.796,0.718-1.024,0.923c0.368,0.158,0.734,0.317,1.102,0.475
			c-0.171,0.395-0.882,1.467-0.763,1.837c0.124,0.382,1.233,0.81,1.576,1.021c-0.463,0.745-1.561,1.921-1.713,2.762
			c-0.108,0.599,1.363,1.614,0.406,1.918c0.306,0.043,0.613,0.086,0.918,0.129c-0.141,1-0.282,2.001-0.422,3
			c-0.164,1.165-0.026,1.079,0.943,1.8c-0.185,0.249-0.435,0.517-0.654,0.797h-5.716c0.429-0.571,0.858-1.143,1.287-1.714
			c-0.564-0.079-0.644,0.019-0.783-0.339c-0.126-0.323,0.171-1.22,0.217-1.541c0.093-0.662,0.082-2.212,0.464-2.654
			c-0.159-0.147-0.228-0.4-0.369-0.567c0.514-0.334,1.028-0.666,1.542-0.999c-0.411-0.253-2.136-0.986-2.208-1.383
			c-0.085-0.468,1.215-1.962,1.491-2.407c-0.136-0.024-0.255-0.147-0.393-0.169c0.195-0.448,0.7-1.162,0.712-1.639
			c0.01-0.434-0.364-0.683-0.703-1.055c-0.54-0.595-0.556-0.394-0.271-0.922c0.247-0.458,0.994-0.897,1.39-1.253
			c-0.271-0.187-1.405-0.721-1.474-1.011c-0.064-0.263,0.496-0.614,0.512-0.91c0.034-0.66-1.23-2.161-1.561-2.742
			c0.575-0.325,1.085-0.458,1.255-1.009c0.21-0.684-0.089-1.92-0.136-2.637c-0.073-1.08,0.095-1.706,0.272-2.828
			c-0.096-0.011-0.192-0.023-0.288-0.034c0.092-0.779,0.463-1.921,0.318-2.684c-0.097-0.506,0.094-0.221-0.182-0.553
			c-0.237-0.286-0.918-0.461-1.255-0.631c0.339-0.67,0.679-1.339,1.018-2.008c-0.263-0.066-0.528-0.132-0.792-0.199
			c0.241-0.948,0.699-2.015,0.757-2.987c0.048-0.788-0.402-1.435-0.75-2.179c0.086-0.04,0.171-0.079,0.258-0.119
			c-0.165-0.12-0.244-0.355-0.401-0.485c0.606-0.498,1.638-1.025,1.838-1.785c0.18-0.688,0.112-0.442-0.277-0.783
			c-0.191-0.166-1.304-0.386-1.386-0.634c-0.16-0.487,0.959-2.063,1.165-2.589c0.172-0.443,0.142-0.543,0.177-0.865
			c0.047-0.445-0.582-0.425,0.284-0.793c-0.276-0.268-1.355-1.034-1.357-1.356c0-0.328,1.215-1.238,1.481-1.51
			c-0.418-0.162-0.835-0.324-1.253-0.485c0.207-0.529,1.422-2.629,1.208-3.1c-0.137-0.302-1.109-0.235-1.246-0.538
			c-0.099-0.221,0.453-1.082,0.532-1.324c0.177-0.536,0.964-2.447,0.766-2.918c-0.131-0.312-1.172-0.325-1.268-0.645
			c-0.073-0.245,0.597-1.166,0.726-1.418c-0.204-0.016-0.396-0.187-0.599-0.201c0.331-0.978,1.284-2.215,0.168-2.771
			c0.676-1.053,0.615-0.994-0.162-1.973c1.394-0.623-1.112-1.716,0.502-2.305c-0.387-0.561-0.775-1.123-1.162-1.685
			c0.863-0.59,2.137-1.475,0.368-1.572c0.061-1.116,0.194-2.252,0.186-3.369c-0.006-0.818-0.323-1.226,0.605-1.289
			c-0.373-0.262-0.747-0.526-1.12-0.788c0.157-0.221,0.817-0.872,0.818-1.153c0-0.297-0.477-0.219-0.436-0.594
			c0.076-0.69,1.398-1.911,1.83-2.499c-0.32-0.199-1.085-0.476-1.273-0.791c-0.201-0.337,0.121-0.602,0.394-1.037
			c0.449-0.72,0.42-0.416,0.051-0.919c-0.274-0.374-0.935-0.672-1.311-0.941c0.167-0.23,0.334-0.46,0.499-0.691
			c-0.242-0.204-0.036-0.952,0.002-1.346c0.031-0.317,0.155-0.753,0.102-1.068c-0.017-0.106-0.184-0.459-0.185-0.49
			c-0.002-0.132-0.14-0.175-0.131-0.3c0.008-0.117,0.319-0.21,0.351-0.326c0.048-0.18,0.184-0.406,0.134-0.636
			c-0.084-0.386-0.77-0.781-1.085-1.055c0.38-0.398,0.604-0.958,1.056-1.519c0.624-0.775,0.72-0.958,0.578-1.976
			c-0.203-1.452-0.774-2.886-1.191-4.295c0.3-0.088,0.598-0.175,0.898-0.264c-0.185-0.244-1.048-1.075-1.019-1.35
			c0.026-0.261,1.032-0.81,1.282-0.999c-0.258-0.242-0.515-0.484-0.773-0.726c0.233-0.247,0.465-0.493,0.699-0.74
			c-1.168-0.239-0.886-0.339-0.651-1.478c0.146-0.71,0.431-1.515,0.449-2.241c0.021-0.88-0.554-1.89-0.415-2.753
			c0.076-0.475-0.161-0.198,0.173-0.431c0.26-0.182,0.932-0.139,1.251-0.188c-0.591-0.479-1.183-0.96-1.774-1.441
			c0.437-0.535,1.27-1.228,1.308-1.868c0.064-1.106-1.077-0.994-1.135-1.632c-0.073-0.788,1.069-1.579,0.822-2.341
			c-0.242-0.744-1.767-1.16-0.595-1.785c-0.073-0.065-0.144-0.129-0.217-0.193c0.09-0.1,0.179-0.198,0.268-0.296
			c-0.205-0.125-0.376-0.364-0.596-0.459c0.272-0.352,1.145-1.116,1.203-1.548c0.055-0.413-0.453-0.77-0.798-1.149
			c0.671-0.391,0.631-1.185,0.77-1.868c0.19-0.932,0.346-0.955-0.267-1.583c-0.219-0.224-0.999-0.66-1.069-0.956
			c-0.057-0.239,0.08-0.106,0.209-0.415c0.253-0.615,1.135-1.261,1.594-1.77c-0.363-0.282-0.726-0.563-1.088-0.845
			c0.342-0.438,0.683-0.874,1.025-1.311c-0.611-0.07-0.83,0.032-1.005-0.378c-0.16-0.379,0.167-1.448,0.211-1.834
			c0.043-0.375,0.344-1.306,0.192-1.667C38.256,0.211,37.638,0.122,37.277,0h5.333c-0.044,0.126-0.087,0.252-0.132,0.378
			c0.194,0.021,0.44,0.097,0.633,0.072c-0.118,1.027-0.236,2.053-0.354,3.079c-0.147,1.268,0.059,1.294-1.225,1.148
			c0.215,0.166,0.759,0.465,0.752,0.688c-0.013,0.337-0.903,0.77-0.859,1.098c0.058,0.435,1.481,1.324,1.844,1.649
			c-0.567,0.631-1.135,1.261-1.702,1.892c0.333,0.067,0.84,0.069,0.941,0.31c0.113,0.268-0.265,1.306-0.32,1.578
			c-0.041,0.206-0.182,0.531-0.15,0.74c0.015,0.094,0.231,0.258,0.229,0.31c-0.021,0.344,0.355,0.339-0.249,0.702
			c0.517,0.398,1.035,0.797,1.553,1.196c-0.282,0.362-1.1,0.976-0.481,1.293c-1.025,0.624,0.362,0.745,0.33,1.361
			c-0.016,0.306-1.048,0.944-1.338,1.191c0.37,0.161,0.741,0.321,1.111,0.482c-0.239,0.548-0.8,1.341-0.818,1.924
			c-0.015,0.479,0.907,1.628,0.14,1.703c0.204,0.166,0.689,0.413,0.798,0.649c0.194,0.417,0.127-0.043-0.04,0.451
			c-0.2,0.59-1.132,0.984-1.281,1.587c-0.153,0.612,0.222,3.546,0.989,3.474c-0.146,0.715-0.294,1.429-0.442,2.144
			c-0.089,0.429-0.499,1.458-0.351,1.873c0.089,0.247,0.754,0.467,0.768,0.72c0.014,0.232-0.652,0.476-0.675,0.715
			c-0.034,0.343,1.008,1.335,1.239,1.642c-0.553,0.415-1.087,0.602-1.11,1.208c-0.024,0.639,1.01,1.998,0.756,2.558
			c-0.17,0.373-1.081,0.222-1.267,0.646c-0.255,0.58,0.4,1.671,0.071,2.151c0.333,0.266,1.142,0.679,1.312,1.048
			c0.078,0.17,0.119,0.237,0.151,0.323c0.109,0.299-0.589,0.278-0.006,0.597c-0.259,0.296-0.518,0.591-0.778,0.888
			c0.442,0.187-0.205,1.047,0.375,1.434c-0.491,0.261-0.64,1.35-0.514,1.826c0.136,0.512,0.813,0.811,1.286,1.15
			c-0.565,0.783-1.13,1.565-1.696,2.348c1.371,0.473-0.726,1.511-0.499,2.24c0.163,0.524,1.415,0.777,1.719,1.25
			c0.293,0.456,0.109,0.441-0.304,1.005c0.27,0.191,0.54,0.381,0.81,0.571c-0.658,0.931-1.218,1.337-1.02,2.445
			c0.212,1.199,0.426,2.397,0.639,3.595c-0.904,0.161-0.922,0.175-0.882,1.066c0.014,0.309-0.008,0.766,0.102,1.056
			c0.124,0.325,0.672,0.672,0.696,1.009c0.041,0.555-1.12,0.616-1.242,1.133c-0.094,0.398,0.672,1.52,0.849,1.923
			c-0.282,0.123-0.563,0.246-0.844,0.371c0.112,0.188,0.481,0.475,0.49,0.625c0.015,0.261-0.524,0.815-0.672,1.045
			c0.247,0.084,0.495,0.166,0.742,0.25c-0.141,0.415-0.622,1.236-0.561,1.654c0.061,0.422,0.765,0.314,0.856,0.66
			c0.129,0.49-1.139,2.227-1.376,2.687c0.424,0.111,0.85,0.222,1.275,0.332c-0.05,0.19-0.279,0.672-0.222,0.848
			c0.025,0.077,0.269,0.214,0.27,0.217c0.011,0.059,0.261,0.078,0.283,0.149c0.021,0.068-0.159,0.363-0.166,0.414
			c-0.128,0.891-0.76,1.887-1.1,2.732c0.393,0.151,0.784,0.303,1.176,0.455c-0.333,0.853-0.695,1.7-0.999,2.563
			c-0.325,0.924-0.035,0.898,0.704,1.617c0.985,0.959-0.063,0.691-0.58,1.705c-0.367,0.719-0.134,0.014,0.04,0.8
			c0.089,0.403,0.67,0.532-0.078,0.795c0.435,0.199,0.869,0.398,1.304,0.597c-0.479,1.038-0.958,2.076-1.437,3.114
			c0.064,0.012,0.127,0.024,0.192,0.035c-0.103,0.559-0.27,1.001-0.081,1.523c0.177,0.491,0.703,0.758,0.896,1.218
			C43.258,96.346,42.998,96.441,43.306,97.1z"/>
		<path class="st1" d="M43.658,98.039C43.67,98.072,43.655,98.13,43.658,98.039L43.658,98.039z"/>
		<path class="st1" d="M27.939,57.276c-0.344,0.322-0.688,0.644-1.031,0.966c0.09,0.043,0.179,0.086,0.269,0.129
			c-0.26,0.539-0.417,0.964-0.443,1.408c-0.008,0.122,0.278,0.242,0.303,0.371c0.011,0.059-0.301,0.178-0.29,0.235
			c0.023,0.13,0.027,0.389,0.281,0.577c-0.733,0.567-0.743,0.421-0.453,1.211c0.247,0.671,0.59,1.319,0.883,1.972
			c-0.527,0.233-0.725,0.228-0.852,0.653c-0.128,0.427,0.221,1.388,0.288,1.808c0.055,0.338,0.408,1.319,0.262,1.644
			c-0.12,0.27-0.815,0.251-1.18,0.309c0.381,0.476,0.763,0.952,1.144,1.428c-0.44,0.352-0.882,0.702-1.323,1.053
			c0.569,0.338,0.809,2.748,1.004,3.511c-0.075,0.019-0.15,0.038-0.225,0.058c0.181,0.621,0.378,1.211,0.526,1.807
			c-0.738,0.027-1.103,1.233-1.416,1.769c0.99,0.101,1.099-0.071,0.995,0.943c-0.105,1.023,0.099,0.911,1.051,1.317
			c-0.238,0.555-1.38,2.28-1.226,2.85c0.096,0.357,1.092,0.545,1.152,0.906c0.044,0.264-0.61,0.877-0.817,1.14
			c0.227-0.011,0.465,0.119,0.695,0.13c-0.327,1.729-0.834,3.353-0.546,5.095c-0.263,0.043-0.527,0.086-0.79,0.129
			c0.387,0.491,1.483,1.498,1.452,1.899c-0.031,0.375-0.639,0.823-0.766,1.191c-0.162,0.466-0.124,1.089-0.179,1.576
			c-0.045,0.398-0.138,0.781-0.016,1.113c0.128,0.347,0.372,0.216,0.66,0.655c0.343,0.523-0.679,1.613-1.075,2.243
			c0.252,0.083,1.075,0.214,1.178,0.424c0.101,0.209-0.403,1.226-0.465,1.416c-0.373,1.135-0.944,1.562,0.115,2.162
			c-0.612,1.071-0.579,1.653-0.424,2.903c0.015,0.111,0.241,0.103,0.242,0.127c0.018,0.269-0.132,0.603-0.17,0.867
			c-0.071,0.49-0.062,0.632-0.146,1.113c-0.084,0.487-0.452,1.164-0.397,1.656c0.066,0.593,0.447,0.42,0.505,0.897
			c0.058,0.476-0.599,0.932-0.402,1.388c0.188,0.433,0.899,0.547,1.284,0.692c-0.196,0.572-0.427,1.122-0.651,1.71
			c-0.11,0.288-0.53,0.985-0.489,1.282c0.041,0.293,0.151,0.207,0.443,0.474c0.131,0.12,0.935,0.455,0.974,0.648
			c0.036,0.186-0.654,0.959-0.738,1.1c-0.51,0.851-0.196,0.913,0.378,1.788c-0.347,0.226-0.693,0.451-1.041,0.676
			c0.082,0.015,0.163,0.029,0.246,0.044c-0.209,1.157-0.722,2.231-0.094,3.213c0.241,0.375,0.907,0.919,0.813,1.271
			c-0.091,0.344-1.146,0.875-1.464,1.117c0.277,0.131,0.554,0.262,0.831,0.394c-0.165,0.344-0.872,1.328-0.801,1.678
			c0.066,0.323,0.9,0.831,1.175,1.072c-0.323,0.366-0.647,0.732-0.97,1.098c0.317,0.11,0.634,0.218,0.951,0.328
			c-0.158,0.454-0.778,1.514-0.682,1.963c0.089,0.413,0.955,0.997,1.279,1.315c-0.221,0.162-0.427,0.462-0.61,0.813h-5.097
			c-0.031-0.038-0.091-0.094-0.2-0.262c-0.159-0.246-0.698-0.513-0.671-0.767c0.028-0.268,0.727-0.659,0.882-0.895
			c0.258-0.39,0.822-1.639,0.762-2.089c-0.067-0.499-0.851-0.96-1.28-1.335c0.323-0.365,0.647-0.732,0.97-1.097
			c-0.203-0.033-0.377-0.238-0.58-0.275c0.212-0.443,0.708-1.097,0.751-1.576c0.045-0.493,0.049-0.385-0.313-0.895
			c-0.15-0.211-1.014-1.027-0.981-1.277c0.03-0.225,0.97-0.74,1.172-0.893c-0.09-0.016-0.178-0.032-0.267-0.048
			c0.15-0.829,0.565-1.91,0.495-2.741c-0.056-0.651-0.641-1.268-1.017-1.84c0.094-0.061,0.187-0.122,0.28-0.182
			c-0.299-0.199-0.596-0.397-0.894-0.595c0.566-0.845,1.132-1.688,1.697-2.533c-0.835-0.315-0.876-0.124-0.748-0.881
			c0.036-0.214,0.344-0.59,0.306-0.805c-0.044-0.254-0.544-0.442-0.632-0.688c-0.198-0.544,0.225-0.615,0.737-1.115
			c0.443-0.433,0.577-0.619,0.81-1.208c-0.691-0.164-1.208-0.09-0.856-0.905c-1.092,0.114,0.001-2.607,0.081-3.282
			c0.027-0.224-0.111-0.321-0.103-0.44c0.01-0.148,0.173-0.25,0.162-0.476c-0.032-0.698,0.002-1.02-0.697-1.291
			c0.129-0.225,0.529-0.66,0.52-0.91c-0.019-0.587-0.22-0.192-0.488-0.52c-0.195-0.239-0.346-0.038-0.419-0.269
			c-0.055-0.172,0.245-0.745,0.302-0.918c0.171-0.521,0.88-1.796,0.764-2.327c-0.071-0.331-0.699-0.58-1.038-0.792
			c0.148-0.235,1.036-1.314,0.961-1.531c-0.108-0.314-0.469-0.186-0.581-0.437c-0.217-0.486,0.27-1.497,0.232-2.037
			c-0.049-0.683,0.044-0.552-0.637-1.001c0.216-0.325,0.881-0.988,0.907-1.364c0.032-0.461-0.666-0.693-0.66-1.077
			c0.002-0.248,0.491-0.472,0.562-0.799c0.086-0.398-0.189-1.104-0.252-1.523c-0.074-0.014-0.146-0.028-0.22-0.042
			c0.028-0.148,0.056-0.296,0.084-0.444c-0.017-0.098-0.011-0.335-0.016-0.431c-0.014-0.281-0.254-0.77-0.171-1.035
			c0.06-0.193,0.288,0.049,0.363-0.139c0.107-0.263,0.51-1.008,0.399-1.434c-0.092-0.358-0.491-0.565-0.825-0.828
			c0.404-0.512,0.809-1.023,1.213-1.535c-0.436-0.187-0.872-0.373-1.308-0.559c0.249-0.578,0.497-1.155,0.745-1.731
			c0.104-1.017,0.208-2.033,0.312-3.05c0.601,0.061,1.203,0.122,1.803,0.183c-0.235-0.136-1.769-0.811-1.866-1.082
			c-0.077-0.215,0.387-0.598,0.419-0.854c0.041-0.338-0.292-1-0.382-1.313c-0.234-0.803-0.15-1.179-0.346-2.129
			c-0.216-1.04,0.242-0.811,1.258-1.07c-0.48-0.598-0.96-1.198-1.44-1.796c-0.703-0.878-0.346-0.463,0.253-1.231
			c0.629-0.807-0.049-2.552-0.218-3.611c0.151,0.012,0.311-0.085,0.463-0.074c-0.334-0.746-0.882-1.576-1.06-2.368
			c-0.092-0.408-0.237-0.309-0.077-0.569c0.113-0.187,0.807-0.36,1.021-0.455c-0.271-0.348-0.541-0.697-0.813-1.045
			c0.421-0.266,0.901-0.595,0.329-1.001l0.599-0.485c0.002-0.691-0.417-1.039-1.029-1.689c0.201-0.117,0.331-0.356,0.523-0.49
			c-1.111-0.439,0.493-1.161,0.565-1.758c0.083-0.675-0.578-1.871-0.783-2.538c1.39-0.218,0.506-2.027,0.312-3.02
			c0.192,0.005,0.396-0.13,0.588-0.114c-0.228-0.518-0.62-0.409-0.907-0.784c-0.333-0.432-0.221-0.008-0.067-0.631
			c0.096-0.387,0.438-0.801,0.459-1.329c0.002-0.08-0.057-0.39-0.064-0.437c-0.044-0.311-0.09-0.622-0.135-0.932
			c-0.117-0.805-0.234-1.61-0.351-2.415c0.545-0.042,0.518-0.802,0.58-1.283c0.097-0.758,0.129-0.676-0.471-1.239
			c0.399-0.423,0.917-0.717,0.759-1.151c-0.169-0.466-1.373-0.752-1.414-1.22c-0.042-0.464,1.2-1.018,1.183-1.491
			c-0.014-0.392-1.035-1.244-1.3-1.561c0.434-0.36,0.867-0.718,1.301-1.077c-0.839-0.702-0.872-0.598-0.188-1.407
			c0.495-0.586,0.544-0.545,0.496-1.2c-0.058-0.784-0.742-1.735-0.648-2.508c0.074-0.602,0.209-0.451,0.967-0.646
			c-0.187-0.146-0.31-0.388-0.48-0.555c0.382-0.336-0.527-1.46-0.672-1.917c1.189-0.393,0.593-2.592,0.377-3.385
			c0.141-0.01,0.281-0.114,0.422-0.114c-0.126-0.071-0.201-0.234-0.322-0.312c0.285-0.293,0.571-0.585,0.856-0.876
			c-0.581-0.011-0.694,0.089-0.893-0.268c-0.211-0.378,0.03-1.53,0.038-1.964c0.011-0.581,0.099-1.215,0.035-1.792
			c-0.043-0.39-0.422-0.893-0.373-1.263c0.001-0.012,0.607-0.824,0.684-0.984c0.163-0.335,0.703-1.071,0.661-1.431
			c-0.083-0.718-1.446-1.943-1.893-2.543c0.399-0.296,1.619-0.936,1.656-1.346c0.046-0.52-1.116-1.841-1.406-2.323
			c0.38-0.228,0.748-0.53,0.898-0.716c0.018-0.024-0.169-0.331-0.111-0.431c0.085-0.144,0.561-0.277,0.721-0.356
			c-0.404-0.303-1.716-0.948-1.856-1.391c-0.104-0.334,0.738-1.166,1.007-1.521c-1.101-0.348-0.346-1.034,0.027-1.892
			C22.476,0.394,22.594,0.176,22.681,0h4.475c-0.281,0.559-1.007,1.644-0.924,2.129c0.085,0.496,1.348,0.749,1.422,1.221
			c0.087,0.563-1.4,1.351-1.464,1.938c-0.051,0.478,0.796,1.597,1.016,2.038c-0.176,0.035-0.323,0.211-0.499,0.247
			c0.153,0.139,0.19,0.405,0.335,0.553c-0.444,0.267-0.889,0.534-1.332,0.801c0.528,0.709,1.649,1.699,1.884,2.531
			c0.085,0.3,0.162,0.339,0.184,0.34c-0.021,0.005-0.101,0.047-0.27,0.29c-0.265,0.378-0.93,0.688-1.3,0.961
			c0.198,0.095,1.122,0.396,1.206,0.582c0.07,0.157-0.54,1.047-0.588,1.209c-0.245,0.816,0.136,1.468,0.414,2.318
			c0.033,0.1,0.399,0.909,0.337,1.03c-0.11,0.212-0.699,0.153-0.834,0.388c-0.269,0.467,0.335,2.244-0.192,2.387
			c0.708,0.686,0.56,0.633-0.119,1.329c0.156-0.015,0.321,0.08,0.478,0.076c-0.084,0.524-0.329,0.982,0.421,0.978
			c-0.169,0.562-0.658,1.467-0.601,2.045c0.061,0.634,0.712,1.501,0.987,2.082c-0.859,0.405-1.208,0.293-1.177,1.115
			c0.032,0.845,0.468,1.809,0.681,2.636c-0.167,0.01-0.339,0.133-0.505,0.129c0.227,0.191,1.188,0.762,1.227,1.03
			c0.035,0.235-0.874,1.003-1.002,1.187c-0.424,0.605-0.387,0.284-0.176,0.816c0.187,0.473,0.81,0.974,1.142,1.372
			c-0.269,0.223-0.539,0.447-0.809,0.669c0.317,0.257,0.718,0.461,0.709,0.763c-0.01,0.303-0.928,1.133-1.134,1.385
			c-0.232,0.282-0.648,0.623-0.571,0.904c0.132,0.474,0.94,0.569,1.295,0.641c-0.295,1.455-0.807,2.915-0.594,4.393
			c0.073,0.502,0.067,1.095,0.228,1.573c0.1,0.295,0.302,0.247,0.303,0.525c0.001,0.366-0.62,0.75-0.603,1.115
			c0.014,0.293,0.522,0.759,0.697,1.013c-0.377,0.257-0.792,0.378-0.788,0.802c0.004,0.529,0.302,0.398,0.367,0.717
			c0.058,0.286-0.049,0.774-0.011,1.103c0.048,0.427,0.167,0.856,0.25,1.279c-0.188-0.015-0.387,0.124-0.575,0.112
			c0.187,0.603,0.504,1.27,0.586,1.894c0.1,0.767,0.149,0.559-0.749,0.833c0.193,0.158,0.5,0.327,0.641,0.528
			c0.106,0.152-0.171,0.225-0.121,0.299C27.265,56.66,27.648,56.967,27.939,57.276z"/>
		<path class="st1" d="M6.354,3.358C6.312,3.462,6.335,3.341,6.354,3.358L6.354,3.358z"/>
		<path class="st1" d="M11.383,17.591C11.407,17.585,11.401,17.614,11.383,17.591L11.383,17.591z"/>
		<path class="st1" d="M10.739,120.024c-0.043,0.409,0.519,1.174,0.709,1.568c-0.33,0.159-0.662,0.318-0.992,0.477
			c0.487,0.254,0.816,0.276,0.83,0.68c0.016,0.509-0.802,1.038-0.814,1.547c-0.012,0.593,1.254,1.475,1.132,1.989
			c-0.081,0.336-1.026,0.522-1.25,0.819c-0.233,0.309-0.161,0.421-0.124,0.904c0.037,0.485,0.582,2.464-0.275,2.271
			c0.465,0.692,0.931,1.384,1.396,2.075c-0.423,0.283-0.847,0.565-1.27,0.848c0.395,0.457,0.79,0.914,1.185,1.371
			c-0.166,0.143-0.331,0.284-0.497,0.428H6.812c-0.078-0.219-0.2-0.431-0.368-0.626c0.255-0.219,0.725-0.475,0.888-0.762
			c0.288-0.51,0.204,0.008,0.072-0.537c-0.109-0.45-1.406-1.499-1.3-1.933c0.071-0.291,0.864-0.396,1.004-0.671
			c0.09-0.177-0.03-0.464-0.012-0.675c0.062-0.746-0.123-1.583-0.182-2.335c0.267-0.02,0.532-0.041,0.799-0.062
			c-0.41-0.62-1.154-1.372-1.368-2.071c-0.173-0.564-0.274-0.119-0.031-0.537c0.137-0.235,0.681-0.447,0.913-0.598
			c-0.213-0.042-0.407-0.244-0.614-0.32c0.326-0.618,0.693-1.038,0.567-1.668c-0.15-0.751-0.77-1.59-1.107-2.287
			c0.094-0.045,0.187-0.089,0.281-0.135c-0.76-0.517-0.868-0.395-0.393-1.157c0.353-0.568,0.487-0.854,0.58-1.537
			c0.153-1.12-0.25-2.172-0.511-3.275c0.288-0.068,0.577-0.136,0.865-0.204c-0.117-0.396-0.235-0.792-0.352-1.186
			c0.674,0.014,0.965-1.081,0.901-1.59c-0.123-0.972-1.163-1.831-1.368-2.793c-0.12-0.564-0.255-0.162,0.079-0.559
			c0.291-0.343,0.943-0.18,0.948-0.784c0.003-0.481-1.221-1.214-1.62-1.553c0.409-0.476,1.63-1.518,1.591-2.075
			c-0.026-0.382-0.703-1.081-0.927-1.414c-0.202-0.301-0.296-0.392-0.533-0.815c0.456-0.298,1.374-0.771,1.371-1.443
			c-0.002-0.421-0.892-1.221-1.179-1.589c0.46-0.356,0.918-0.714,1.378-1.07c-0.178-0.026-0.336-0.192-0.513-0.226
			c0.291-0.654,0.581-1.307,0.873-1.96c-1.422-0.62-1.689-0.365-1.071-1.772c0.159-0.361,0.868-1.423,0.793-1.805
			c-0.057-0.284-0.454-0.357-0.805-0.513c0.258-0.576,1.02-1.665,0.909-2.228c-0.133-0.672-1.398-1.702-1.849-2.252
			c0.311-0.253,0.692-0.559,0.84-0.813c0.316-0.539-0.613-0.32,0.52-0.851c-0.07-0.052-0.141-0.103-0.212-0.155
			c0.372-0.506,0.743-1.011,1.116-1.518c-0.295-0.206-1.632-0.863-1.689-1.178c-0.056-0.309,0.997-1.417,1.199-1.704
			c-0.561-0.294-1.12-0.588-1.681-0.883c0.11-0.207,0.591-0.849,0.57-1.077c-0.026-0.278-0.486-0.459-0.567-0.736
			c-0.165-0.555,0.43-0.78,0.97-1.236c-0.328-0.133-0.657-0.268-0.985-0.401c0.342-0.832,0.682-1.665,1.026-2.495
			c0.037-0.089,0.141-0.314,0.143-0.347c0.011-0.137,0.162-0.269,0.167-0.406c0.001-0.054-0.398-0.129-0.395-0.182
			c0.047-0.688,1.155-1.583,1.05-2.25c-0.076-0.484-1.085-1.165-1.485-1.543c0.679-0.712,0.844-1.272,1.153-2.218
			c-1.087,0.172-0.123-2.798-0.008-3.491c0.073,0.011,0.146,0.024,0.219,0.035c-0.337-0.349-1.119-0.883-1.278-1.326
			c-0.228-0.639,0.563-0.444,0.733-1.099c0.113-0.432-0.544-0.855-0.852-1.299c-0.431-0.622-0.464-0.468,0.177-1.005
			c-0.196-0.306,0.3-1.099,0.476-1.53c-0.157,0.002-0.314-0.121-0.471-0.12c0.21-0.824,0.536-1.684,0.646-2.525
			c0.073-0.554-0.059-1.33-0.041-1.717c0.023-0.494-0.117-1.582-0.03-2.219c0.059-0.435-0.119-0.357,0.14-0.555
			c0.191-0.146,0.947-0.061,1.205-0.078c-0.394-0.32-1.286-0.781-1.503-1.221c-0.242-0.491,0.162-0.333,0.254-0.893
			c0.143-0.87-0.809-2.578-1.08-3.445c0.835-0.26,1.224-0.285,0.801-1.073c-0.184-0.343-1.003-0.82-1.049-1.201
			c-0.039-0.322-0.044-0.02,0.157-0.388c0.311-0.568,1.452-0.864,1.415-1.452c-0.032-0.521-1.187-1.562-1.522-2.003
			c0.274-0.206,0.546-0.413,0.819-0.619c-0.368-0.328-0.737-0.655-1.105-0.983c0.3-0.334,1.175-0.962,0.922-1.374
			c0.207-0.135,0.864-0.418,0.888-0.684c0.022-0.235-0.975-1.077-1.142-1.261c-0.519-0.573-0.52-0.366-0.229-0.874
			c0.217-0.379,0.797-0.716,1.125-1.011c-0.211-0.157-0.423-0.313-0.634-0.47c0.347-0.466,0.695-0.932,1.042-1.399
			c-1.04-0.045-0.982,0.041-0.938-0.962c0.044-1.035,0.119-2.074,0.135-3.111c0.012-0.726-0.117-1.189-0.326-1.91
			C5.899,21.662,5.9,21.801,6.978,21.49c-1.038-0.676,0.178-1.358,0.789-2.074c-0.382-0.235-0.765-0.469-1.147-0.705
			c0.12-0.195,0.521-0.667,0.494-0.88c-0.036-0.284-0.739-0.59-0.718-0.867c0.025-0.348,1.259-1.095,1.589-1.366
			c-0.319-0.181-1.001-0.415-1.216-0.69c-0.378-0.483-0.106-0.026,0.048-0.758c0.176-0.836,0.443-0.257-0.037-0.91
			c-0.258-0.35-0.739-0.622-1.076-0.907c0.678-0.797,1.355-1.593,2.032-2.39C7.3,9.694,6.754,9.546,6.75,9.152
			c-0.005-0.538,0.876-1.07,0.931-1.612c0.083-0.835-1.569-1.29-1.85-2.086C5.67,4.997,5.665,5.172,6.174,4.658
			C7.003,3.821,6.346,4.336,6.37,3.61c0.006-0.183-0.005-0.242-0.016-0.252c0.014-0.036,0.035-0.1,0.068-0.205
			c0.047-0.148,0.393-0.265,0.48-0.413c0.253-0.426,0.337-1.018-0.276-1.025C6.784,1.208,7.073,0.593,7.267,0h3.475
			c-0.003,0.008-0.006,0.017-0.008,0.025c0.079,0.018,0.158,0.036,0.237,0.054c-0.157,0.692-0.729,1.932-0.59,2.608
			c0.11,0.538,1.269,1.148,0.989,1.612c0.759,0.746,0.741,0.633,0.008,1.373c-0.571,0.576-1.142,1.151-1.713,1.727
			c0.504,0.288,1.008,0.578,1.513,0.866c-0.218,0.378-1.141,1.474-1.076,1.863c0.084,0.5,1.43,1.089,1.752,1.511
			c0.506,0.66,0.33,0.494-0.328,1.269c-0.446,0.525-0.866,1.008-1.224,1.589c-0.607,0.984-0.599,0.934,0.115,1.796
			c0.21,0.253,0.843,0.769,0.9,1.086c0.024,0.139,0.05,0.194,0.066,0.214c-0.027,0.006-0.093,0.054-0.22,0.267
			c-0.358,0.595-1.361,0.883-1.449,1.723c-0.052,0.495,0.624,0.833,1.077,1.217c-0.775,0.484,0.482,3.08,0.693,3.805
			c-0.999,0.295,0.237,4.1-0.629,4.258c0.168,0.066,0.299,0.252,0.456,0.338c-0.22,0.295-0.916,0.956-0.882,1.279
			c0.041,0.382,1.096,1.211,1.363,1.505c-0.555,0.499-1.11,0.997-1.665,1.495c0.428,0.381,0.856,0.761,1.284,1.141
			c0.578,0.514,0.536,0.319,0.388,0.836c-0.124,0.432-0.975,0.764-0.986,1.192c-0.008,0.318,0.844,1.109,1.052,1.384
			c-0.603,0.455-1.205,0.909-1.808,1.364c0.69,0.789,1.379,1.58,2.068,2.369c-0.822,0.712-1.329,0.776-1.003,1.812
			c0.302,0.966,0.605,1.93,0.908,2.896c-0.465,0.145-0.931,0.29-1.396,0.434c0.195,0.092,0.325,0.322,0.518,0.421
			c-0.444,0.542-0.888,1.083-1.331,1.626c0.35-0.024,0.699-0.046,1.049-0.069c0.083,1.267,0.166,2.532,0.248,3.799
			c-0.087,0.006-0.175,0.011-0.263,0.017c-0.044,0.405,0.181,0.629,0.573,0.621c-0.091,0.354-0.181,0.709-0.272,1.064
			c-0.002,0.009-0.136,0.702-0.154,0.605c0.084,0.455-0.134,0.072,0.039,0.374c0.085,0.149,0.583,0.113,0.657,0.268
			c0.057,0.118-0.38,0.926-0.427,1.042c-0.589,1.435-0.126,0.78,0.413,2.038c0.271,0.634,0.309,0.084-0.05,0.636
			c-0.203,0.313-0.691,0.58-0.982,0.823c0.365,0.379,0.73,0.758,1.095,1.137c-0.573,0.547-1.145,1.095-1.717,1.643
			c0.137-0.009,0.28,0.069,0.419,0.068c-0.062,0.38-0.41,1.313-0.271,1.651c0.129,0.317,0.712,0.382,1.111,0.512
			c-0.157,0.478-0.587,1.227-0.562,1.72c0.028,0.561,0.795,0.646,0.959,1.168c0.188,0.602-1.187,1.623-1.725,2.187
			c0.893,0.414,0.683,0.216,0.476,1.046c-0.112,0.446-0.266,0.983,0.111,1.427c0.381,0.449,0.863,0.128,0.907,0.687
			c0.048,0.605-0.628,0.85-0.243,1.507c-0.9,0.027-0.625,0.954-0.169,1.339c0.456,0.387,0.869,0.318,0.75,0.884
			c-0.124,0.581-1.033,1.288-1.195,1.962c-0.141,0.58-0.254,0.19-0.018,0.607c0.139,0.243,0.665,0.464,0.897,0.625
			C11.07,80.92,10.161,81.771,10,82.44c-0.044,0.184-0.082,0.243-0.1,0.26c0.025,0.003,0.086,0.043,0.199,0.237
			c0.151,0.257,0.707,0.516,0.958,0.699c-0.499,0.68-0.548,0.609-0.307,1.337c0.185,0.56,0.515,0.972,0.881,1.417
			c-0.229,0.188-0.46,0.376-0.69,0.563c0.056,0.067,0.111,0.133,0.167,0.2c-0.519,0.431-1.036,0.862-1.555,1.291
			c0.404,0.181,0.808,0.361,1.212,0.541c-0.36,0.803-0.72,1.606-1.08,2.409c0.28,0.122,1.194,0.356,1.351,0.589
			c0.168,0.247,0.011,0.319-0.138,0.72c-0.107,0.286-0.756,1.238-0.682,1.553c0.067,0.282,0.287,0.307,0.673,0.477
			c-0.128,0.287-0.519,0.862-0.518,1.164c0,0.294,0.083,0.229,0.21,0.535c0.283,0.68,1.062,1.357,1.523,1.947
			c-0.379,0.294-0.758,0.588-1.138,0.883c0.209,0.114,1.008,0.391,1.084,0.594c0.078,0.211-0.27,0.559-0.37,0.82
			c-0.312,0.81,0.04,0.999,0.548,1.776c-0.564,0.366-1.129,0.734-1.693,1.101c0.342,0.291,0.968,0.644,1.191,1.013
			c0.332,0.552,0.309,0.01,0.007,0.654c-0.334,0.714-1.158,0.971-1.058,1.826c0.072,0.611,1.356,1.88,1.159,2.417
			c-0.145,0.395-1.993,0.969-2.402,1.168c0.243,0.083,0.799,0.159,0.968,0.329c0.111,0.111,0.15,0.136,0.158,0.14
			c0,0-0.074-0.029-0.02,0.241c0.033,0.17-0.165,0.447-0.163,0.638c0.003,0.241,0.166,0.555,0.233,0.785
			c0.167,0.562,0.585,1.374,0.583,1.967c0,0.001-1.005,0.604,0.141,0.487c-0.093,0.52-0.247,1.272-0.289,1.627
			c-0.031,0.269-0.149,0.529-0.044,0.738c0.129,0.261,0.909,0.381,0.965,0.656C12.059,118.731,10.794,119.501,10.739,120.024z"/>
	</g>
</g>
</svg>
