<?xml version="1.0" encoding="utf-8"?>
<!-- Generator: Adobe Illustrator 22.1.0, SVG Export Plug-In . SVG Version: 6.00 Build 0)  -->
<svg version="1.1" id="_x31_0" xmlns="http://www.w3.org/2000/svg" xmlns:xlink="http://www.w3.org/1999/xlink" x="0px" y="0px"
	 viewBox="0 0 128 101" style="enable-background:new 0 0 128 101;" xml:space="preserve">
<style type="text/css">
	.st0{fill:#FAF7F0;}
	.st1{fill:#361041;}
	.st2{fill:#F8DCDB;}
</style>
<g>
	<rect class="st0" width="128" height="101"/>
	<path class="st1" d="M123.381,89.501c-1.871,1.201-3.872,2.941-5.963,4.897c-1.655,1.543-3.364,3.222-5.102,4.872
		c-0.613,0.583-1.233,1.161-1.853,1.73h11.213c0.57-0.64,1.136-1.212,1.709-1.704c1.503-1.312,3.032-2.086,4.615-2.086v-9.417
		C126.587,87.793,125.036,88.437,123.381,89.501z M79.684,99.27c-1.741-1.654-3.447-3.329-5.098-4.872
		c-2.091-1.956-4.096-3.696-5.967-4.897c-1.655-1.064-3.202-1.708-4.619-1.708s-2.964,0.644-4.619,1.708
		c-1.871,1.201-3.876,2.941-5.967,4.897c-1.651,1.543-3.357,3.218-5.098,4.872c-0.613,0.583-1.233,1.161-1.853,1.73h11.213
		c0.566-0.636,1.136-1.208,1.705-1.704c1.507-1.309,3.036-2.086,4.619-2.086s3.111,0.777,4.619,2.086
		c0.57,0.496,1.139,1.068,1.705,1.704h11.213C80.917,100.432,80.297,99.853,79.684,99.27z M15.684,99.27
		c-1.738-1.65-3.447-3.329-5.102-4.872c-2.091-1.956-4.092-3.696-5.963-4.897C2.964,88.437,1.413,87.793,0,87.793v9.417
		c1.583,0,3.112,0.773,4.615,2.086c0.573,0.493,1.139,1.064,1.709,1.704h11.213C16.917,100.432,16.296,99.853,15.684,99.27z"/>
	<path class="st2" d="M123.381,64.252c-1.871,1.201-3.872,2.941-5.963,4.897c-1.655,1.543-3.364,3.222-5.102,4.872
		c-3.133,2.977-6.371,5.868-9.59,7.752c-2.264,1.327-4.521,2.154-6.724,2.154c-2.203,0-4.46-0.827-6.728-2.154
		c-3.22-1.884-6.457-4.779-9.59-7.752c-1.741-1.654-3.447-3.33-5.098-4.872c-2.091-1.956-4.096-3.696-5.967-4.897
		c-1.655-1.064-3.202-1.708-4.619-1.708s-2.964,0.644-4.619,1.708c-1.871,1.201-3.876,2.941-5.967,4.897
		c-1.651,1.543-3.357,3.218-5.098,4.872c-3.133,2.974-6.371,5.868-9.59,7.752c-2.268,1.327-4.525,2.154-6.728,2.154
		s-4.46-0.827-6.724-2.154c-3.22-1.884-6.457-4.775-9.59-7.752c-1.738-1.65-3.447-3.33-5.102-4.872
		c-2.091-1.956-4.092-3.696-5.963-4.897C2.964,63.187,1.413,62.544,0,62.544v9.413c1.583,0,3.112,0.777,4.619,2.086
		c2.059,1.787,4.078,4.574,6.136,7.731c1.604,2.456,3.234,5.138,4.929,7.749c1.089,1.679,2.203,3.329,3.357,4.876
		c-1.154,1.543-2.268,3.193-3.357,4.872c-0.371,0.575-0.743,1.151-1.111,1.73h34.85c-0.368-0.579-0.736-1.154-1.107-1.73
		c-1.089-1.679-2.203-3.329-3.357-4.872c1.154-1.543,2.268-3.193,3.357-4.872c1.694-2.614,3.321-5.296,4.929-7.752
		c2.059-3.157,4.078-5.944,6.136-7.731c1.507-1.309,3.036-2.086,4.619-2.086s3.111,0.777,4.619,2.086
		c2.059,1.787,4.078,4.574,6.136,7.731c1.608,2.456,3.234,5.138,4.929,7.752c1.089,1.679,2.203,3.33,3.357,4.872
		c-1.154,1.543-2.268,3.193-3.357,4.872c-0.371,0.575-0.739,1.151-1.107,1.73h34.85c-0.368-0.579-0.739-1.154-1.11-1.73
		c-1.089-1.679-2.203-3.329-3.357-4.872c1.154-1.546,2.268-3.197,3.357-4.876c1.694-2.61,3.324-5.293,4.929-7.749
		c2.059-3.157,4.078-5.944,6.136-7.731c1.507-1.309,3.036-2.086,4.619-2.086v-9.413C126.587,62.544,125.036,63.187,123.381,64.252z"
		/>
	<path class="st1" d="M123.385,39.003c-1.871,1.201-3.876,2.941-5.967,4.897c-1.655,1.542-3.364,3.222-5.102,4.872
		c-3.133,2.974-6.371,5.865-9.59,7.749c-2.264,1.327-4.521,2.154-6.724,2.154c-2.203,0-4.46-0.827-6.728-2.154
		c-3.22-1.884-6.457-4.779-9.59-7.752c-1.741-1.651-3.447-3.33-5.098-4.869c-2.095-1.96-4.099-3.7-5.971-4.901
		c-1.651-1.061-3.202-1.704-4.615-1.704s-2.964,0.644-4.615,1.704c-1.871,1.201-3.876,2.941-5.97,4.901
		c-1.651,1.539-3.357,3.218-5.098,4.869c-3.133,2.974-6.371,5.868-9.59,7.752c-2.268,1.327-4.525,2.154-6.728,2.154
		s-4.46-0.827-6.724-2.154c-3.22-1.884-6.457-4.775-9.59-7.749c-1.738-1.65-3.447-3.33-5.102-4.872
		c-2.091-1.956-4.096-3.696-5.967-4.897C2.964,37.938,1.413,37.295,0,37.295v9.414c1.583,0,3.112,0.777,4.619,2.085
		c2.059,1.787,4.074,4.57,6.136,7.727c1.601,2.456,3.231,5.138,4.925,7.749c1.089,1.683,2.207,3.333,3.36,4.879
		c-1.154,1.543-2.268,3.193-3.357,4.872c-1.694,2.614-3.324,5.297-4.929,7.752c-2.059,3.153-4.078,5.94-6.136,7.727
		C3.112,90.81,1.583,91.587,0,91.587V101c1.413,0,2.964-0.644,4.615-1.704c1.871-1.201,3.876-2.941,5.967-4.897
		c1.655-1.546,3.364-3.225,5.102-4.876c3.133-2.977,6.371-5.868,9.59-7.749c2.264-1.327,4.521-2.154,6.724-2.154
		s4.46,0.827,6.728,2.154c3.22,1.884,6.457,4.775,9.59,7.752c1.741,1.651,3.447,3.33,5.098,4.872
		c2.091,1.956,4.096,3.696,5.967,4.897C61.036,100.356,62.583,101,64,101s2.964-0.644,4.619-1.704
		c1.871-1.201,3.876-2.941,5.967-4.897c1.651-1.543,3.357-3.222,5.098-4.872c3.133-2.977,6.371-5.868,9.59-7.752
		c2.268-1.327,4.525-2.154,6.728-2.154c2.203,0,4.46,0.827,6.724,2.154c3.22,1.88,6.457,4.771,9.59,7.749
		c1.738,1.65,3.447,3.329,5.102,4.876c2.091,1.956,4.096,3.696,5.967,4.897c1.651,1.061,3.202,1.704,4.615,1.704v-9.413
		c-1.583,0-3.112-0.777-4.619-2.086c-2.059-1.787-4.078-4.574-6.136-7.727c-1.604-2.456-3.234-5.138-4.929-7.752
		c-1.089-1.679-2.203-3.33-3.357-4.872c1.154-1.546,2.271-3.197,3.36-4.879c1.694-2.611,3.324-5.293,4.925-7.749
		c2.062-3.157,4.078-5.94,6.136-7.727c1.507-1.309,3.036-2.085,4.619-2.085v-9.414C126.587,37.295,125.036,37.938,123.385,39.003z
		 M74.755,81.774c-2.059,3.153-4.078,5.94-6.136,7.727c-1.507,1.309-3.036,2.086-4.619,2.086s-3.111-0.777-4.619-2.086
		c-2.059-1.787-4.078-4.574-6.136-7.727c-1.604-2.456-3.234-5.138-4.929-7.752c-1.089-1.679-2.203-3.33-3.357-4.872
		c1.154-1.546,2.268-3.197,3.357-4.876c1.694-2.614,3.324-5.297,4.929-7.752c2.059-3.157,4.078-5.94,6.136-7.727
		c1.507-1.309,3.036-2.085,4.619-2.085s3.111,0.777,4.619,2.085c2.059,1.787,4.078,4.57,6.136,7.727
		c1.604,2.456,3.234,5.138,4.929,7.752c1.089,1.679,2.203,3.329,3.357,4.876c-1.154,1.543-2.268,3.193-3.357,4.872
		C77.989,76.635,76.359,79.318,74.755,81.774z"/>
	<path class="st2" d="M123.381,13.75c-1.871,1.201-3.872,2.941-5.963,4.897c-1.655,1.543-3.364,3.222-5.102,4.876
		c-3.133,2.974-6.371,5.864-9.59,7.749c-2.264,1.327-4.521,2.154-6.724,2.154c-2.203,0-4.46-0.827-6.728-2.154
		c-3.22-1.884-6.457-4.779-9.59-7.752c-1.741-1.654-3.447-3.33-5.098-4.872c-2.091-1.956-4.096-3.697-5.967-4.897
		c-1.655-1.064-3.202-1.708-4.619-1.708s-2.964,0.644-4.619,1.708c-1.871,1.201-3.876,2.941-5.967,4.897
		c-1.651,1.543-3.357,3.218-5.098,4.872c-3.133,2.974-6.371,5.868-9.59,7.752c-2.268,1.327-4.525,2.154-6.728,2.154
		s-4.46-0.827-6.724-2.154c-3.22-1.884-6.457-4.775-9.59-7.749c-1.738-1.654-3.447-3.333-5.102-4.876
		c-2.091-1.956-4.092-3.697-5.963-4.897C2.964,12.686,1.413,12.042,0,12.042v9.417c1.583,0,3.112,0.773,4.615,2.082
		c2.059,1.787,4.078,4.574,6.14,7.731c1.601,2.456,3.231,5.138,4.925,7.749c1.089,1.679,2.207,3.333,3.36,4.876
		c-1.154,1.546-2.268,3.197-3.357,4.876c-1.694,2.611-3.324,5.293-4.929,7.749c-2.059,3.157-4.078,5.944-6.136,7.731
		C3.112,65.561,1.583,66.337,0,66.337v9.414c1.413,0,2.964-0.644,4.619-1.708c1.871-1.201,3.872-2.941,5.963-4.894
		c1.655-1.546,3.36-3.222,5.098-4.879c3.133-2.97,6.374-5.865,9.594-7.749c2.264-1.327,4.521-2.154,6.724-2.154
		s4.46,0.827,6.728,2.154c3.22,1.884,6.457,4.778,9.59,7.752c1.741,1.654,3.447,3.329,5.098,4.876
		c2.091,1.952,4.096,3.693,5.967,4.894c1.655,1.064,3.202,1.708,4.619,1.708s2.964-0.644,4.619-1.708
		c1.871-1.201,3.876-2.941,5.967-4.894c1.651-1.546,3.357-3.222,5.098-4.876c3.133-2.974,6.371-5.868,9.59-7.752
		c2.268-1.327,4.525-2.154,6.728-2.154c2.203,0,4.46,0.827,6.724,2.154c3.22,1.884,6.461,4.778,9.594,7.749
		c1.738,1.658,3.443,3.333,5.098,4.879c2.091,1.952,4.092,3.693,5.963,4.894c1.655,1.064,3.205,1.708,4.619,1.708v-9.414
		c-1.583,0-3.112-0.777-4.619-2.085c-2.059-1.787-4.078-4.574-6.136-7.731c-1.604-2.456-3.234-5.138-4.929-7.749
		c-1.089-1.679-2.203-3.33-3.357-4.876c1.154-1.543,2.271-3.196,3.36-4.876c1.694-2.61,3.324-5.293,4.925-7.749
		c2.062-3.157,4.081-5.944,6.14-7.731c1.503-1.309,3.032-2.082,4.615-2.082v-9.417C126.587,12.042,125.036,12.686,123.381,13.75z
		 M74.755,56.521c-2.059,3.157-4.078,5.944-6.136,7.731c-1.507,1.309-3.036,2.085-4.619,2.085s-3.111-0.777-4.619-2.085
		c-2.059-1.787-4.078-4.574-6.136-7.731c-1.604-2.456-3.234-5.138-4.929-7.752c-1.089-1.679-2.203-3.33-3.357-4.872
		c1.154-1.543,2.268-3.193,3.357-4.872c1.694-2.614,3.324-5.297,4.929-7.752c2.062-3.157,4.078-5.944,6.14-7.727
		c1.504-1.312,3.032-2.085,4.615-2.085s3.111,0.773,4.615,2.085c2.062,1.784,4.078,4.57,6.14,7.727
		c1.604,2.456,3.234,5.138,4.929,7.752c1.089,1.679,2.203,3.33,3.357,4.872c-1.154,1.543-2.268,3.193-3.357,4.872
		C77.989,51.383,76.359,54.065,74.755,56.521z"/>
	<path class="st1" d="M123.385,39.003c-2.059-1.787-4.078-4.574-6.14-7.731c-1.604-2.456-3.234-5.138-4.929-7.749
		c-1.089-1.679-2.203-3.33-3.357-4.876c1.154-1.546,2.268-3.197,3.357-4.876c1.694-2.611,3.324-5.293,4.929-7.749
		c1.489-2.28,2.953-4.365,4.431-6.023h-11.209c-2.549,2.341-5.152,4.509-7.741,6.023c-2.264,1.327-4.521,2.154-6.724,2.154
		c-2.203,0-4.46-0.827-6.728-2.154C86.685,4.509,84.082,2.337,81.533,0H70.324c1.478,1.658,2.946,3.743,4.431,6.023
		c1.604,2.456,3.234,5.138,4.929,7.752c1.089,1.679,2.203,3.33,3.357,4.872c-1.154,1.543-2.268,3.193-3.357,4.872
		c-1.695,2.614-3.324,5.296-4.929,7.752c-2.059,3.157-4.078,5.944-6.14,7.727c-1.504,1.312-3.032,2.085-4.615,2.085
		s-3.111-0.773-4.615-2.085c-2.062-1.783-4.081-4.57-6.14-7.727c-1.604-2.456-3.234-5.138-4.929-7.752
		c-1.089-1.679-2.203-3.33-3.357-4.872c1.154-1.543,2.268-3.193,3.357-4.872c1.694-2.614,3.324-5.296,4.929-7.752
		C54.73,3.743,56.198,1.658,57.676,0H46.467c-2.549,2.337-5.152,4.509-7.741,6.023c-2.268,1.327-4.525,2.154-6.728,2.154
		s-4.46-0.827-6.724-2.154C22.685,4.509,20.082,2.341,17.533,0H6.324c1.478,1.658,2.942,3.743,4.431,6.023
		c1.604,2.456,3.234,5.138,4.929,7.749c1.089,1.679,2.203,3.33,3.357,4.876c-1.154,1.546-2.268,3.197-3.357,4.876
		c-1.694,2.61-3.324,5.293-4.929,7.749c-2.062,3.157-4.081,5.944-6.14,7.731C3.112,40.312,1.583,41.085,0,41.085v9.417
		c1.413,0,2.964-0.644,4.619-1.708c1.871-1.201,3.872-2.941,5.963-4.894c1.655-1.546,3.36-3.222,5.098-4.88
		c3.133-2.97,6.374-5.864,9.594-7.749c2.264-1.327,4.521-2.154,6.724-2.154s4.46,0.827,6.728,2.154
		c3.22,1.884,6.457,4.779,9.59,7.752c1.741,1.654,3.447,3.33,5.098,4.876c2.091,1.952,4.096,3.693,5.967,4.894
		c1.655,1.064,3.202,1.708,4.619,1.708s2.964-0.644,4.619-1.708c1.871-1.201,3.876-2.941,5.967-4.894
		c1.651-1.546,3.357-3.222,5.098-4.876c3.133-2.974,6.371-5.868,9.59-7.752c2.268-1.327,4.525-2.154,6.728-2.154
		c2.203,0,4.46,0.827,6.724,2.154c3.22,1.884,6.461,4.779,9.594,7.749c1.738,1.658,3.443,3.333,5.098,4.88
		c2.091,1.952,4.092,3.693,5.963,4.894c1.655,1.064,3.205,1.708,4.619,1.708v-9.417C126.417,41.085,124.888,40.312,123.385,39.003z"
		/>
	<path class="st2" d="M123.381,13.75c-2.059-1.787-4.074-4.57-6.136-7.727c-1.251-1.917-2.517-3.97-3.818-6.023h-34.85
		c-1.305,2.053-2.571,4.106-3.822,6.023c-2.059,3.157-4.078,5.94-6.136,7.727c-1.507,1.309-3.036,2.085-4.619,2.085
		s-3.111-0.777-4.619-2.085c-2.059-1.787-4.078-4.57-6.136-7.727C51.994,4.106,50.728,2.053,49.423,0h-34.85
		c-1.302,2.053-2.567,4.106-3.818,6.023c-2.062,3.157-4.078,5.94-6.136,7.727C3.112,15.059,1.583,15.835,0,15.835v9.414
		c1.413,0,2.964-0.644,4.615-1.708c1.871-1.201,3.876-2.941,5.967-4.894c1.655-1.546,3.364-3.225,5.102-4.876
		c3.133-2.974,6.371-5.865,9.59-7.749c2.264-1.327,4.521-2.154,6.724-2.154s4.46,0.827,6.728,2.154
		c3.22,1.884,6.457,4.779,9.59,7.752c1.741,1.651,3.447,3.33,5.098,4.872c2.095,1.956,4.099,3.696,5.97,4.897
		c1.651,1.061,3.202,1.704,4.615,1.704s2.964-0.644,4.615-1.704c1.871-1.201,3.876-2.941,5.971-4.897
		c1.651-1.543,3.357-3.222,5.098-4.872c3.133-2.974,6.371-5.868,9.59-7.752c2.268-1.327,4.525-2.154,6.728-2.154
		c2.203,0,4.46,0.827,6.724,2.154c3.22,1.884,6.457,4.775,9.59,7.749c1.738,1.65,3.447,3.33,5.102,4.876
		c2.091,1.952,4.096,3.693,5.967,4.894c1.651,1.064,3.202,1.708,4.615,1.708v-9.414C126.417,15.835,124.888,15.059,123.381,13.75z"
		/>
</g>
</svg>
