<?xml version="1.0" encoding="utf-8"?>
<!-- Generator: Adobe Illustrator 22.1.0, SVG Export Plug-In . SVG Version: 6.00 Build 0)  -->
<svg version="1.1" id="_x31_0" xmlns="http://www.w3.org/2000/svg" xmlns:xlink="http://www.w3.org/1999/xlink" x="0px" y="0px"
	 viewBox="0 0 128 128" style="enable-background:new 0 0 128 128;" xml:space="preserve">
<style type="text/css">
	.st0{fill:#FFFFFF;}
	.st1{fill:#F7B52C;}
	.st2{fill:#FFF000;}
	.st3{fill:#231815;}
	.st4{fill:#E50012;}
	.st5{fill:#E73828;}
	.st6{fill:#00A199;}
	.st7{fill:#0DAC67;}
</style>
<g>
	<g>
		<rect x="0.001" class="st0" width="127.998" height="128"/>
		<g>
			<path class="st0" d="M52.473,16.427c-4.57,2.089-4.746,6.586-7.555,9.976c-2.809,3.39-3.39,8.62,3.099,11.332
				c5.059,2.114,6.152,4.681,12.301,3.874c5.908-0.775,6.393-6.489,8.523-9.879c2.086-3.318,2.615-8.233-1.743-10.46
				C62.43,18.884,59.253,13.328,52.473,16.427z"/>
			<path class="st1" d="M54.291,28.294c0,0,0.566,2.182,1.05,2.505c0.485,0.323,2.101,0.485,3.313-0.404
				c0,0,0.889-2.667,0.404-2.667C58.574,27.728,54.291,28.294,54.291,28.294z"/>
			<path class="st2" d="M55.746,25.95c-1.602,0.458-3.065,1.937-1.131,2.828c1.934,0.891,3.879-0.162,4.444-1.05
				C59.624,26.839,58.008,25.304,55.746,25.95z"/>
			<path class="st3" d="M57.536,41.68c-2.908,0-4.541-0.955-6.514-2.109c-1.04-0.608-2.219-1.297-3.745-1.935
				c-2.792-1.167-4.548-2.923-5.079-5.079c-0.525-2.133,0.163-4.549,1.887-6.63c1.001-1.208,1.673-2.583,2.323-3.913
				c1.144-2.341,2.327-4.762,5.318-6.129c2.138-0.977,4.104-1.188,6.011-0.643c0.129,0.037,0.203,0.171,0.166,0.299
				c-0.037,0.129-0.171,0.203-0.299,0.166c-1.792-0.511-3.648-0.309-5.677,0.618c-2.833,1.295-3.926,3.533-5.084,5.902
				c-0.662,1.355-1.347,2.756-2.385,4.009c-1.625,1.962-2.278,4.224-1.79,6.206c0.493,2.001,2.151,3.643,4.796,4.749
				c1.556,0.65,2.749,1.348,3.802,1.964c2.426,1.419,4.179,2.444,8.374,1.894c4.238-0.556,5.583-3.707,6.883-6.753
				c0.465-1.09,0.904-2.119,1.467-3.015c1.366-2.173,1.856-4.651,1.312-6.629c-0.42-1.524-1.416-2.698-2.96-3.487
				c-1.3-0.664-2.492-1.576-3.646-2.457c-0.414-0.316-0.842-0.643-1.265-0.951c-0.108-0.079-0.132-0.23-0.053-0.338
				c0.079-0.108,0.23-0.132,0.338-0.053c0.428,0.312,0.859,0.64,1.275,0.958c1.136,0.868,2.311,1.766,3.572,2.411
				c1.671,0.854,2.75,2.129,3.207,3.79c0.58,2.107,0.068,4.729-1.369,7.015c-0.543,0.863-0.975,1.875-1.432,2.947
				c-1.29,3.024-2.753,6.452-7.265,7.043C58.905,41.631,58.189,41.68,57.536,41.68z"/>
			<path class="st3" d="M55.83,28.893c-0.374,0-0.768-0.04-1.177-0.122c-0.971-0.194-1.577-0.734-1.621-1.443
				c-0.046-0.736,0.541-1.418,1.495-1.736c0.127-0.042,0.264,0.026,0.306,0.153c0.042,0.127-0.026,0.264-0.153,0.306
				c-0.739,0.246-1.197,0.736-1.165,1.246c0.03,0.477,0.49,0.85,1.232,0.998c1.761,0.352,3.147-0.106,3.707-1.227
				c0.132-0.264,0.127-0.495-0.017-0.707c-0.301-0.445-1.186-0.752-1.974-0.687c-0.133,0.011-0.25-0.088-0.261-0.221
				s0.088-0.25,0.221-0.261c0.829-0.07,1.958,0.222,2.416,0.899c0.17,0.25,0.316,0.661,0.049,1.194
				C58.371,28.321,57.247,28.893,55.83,28.893z"/>
			<path class="st3" d="M58.575,29.551c-0.011,0-0.021-0.001-0.032-0.002c-0.132-0.018-0.226-0.139-0.208-0.272l0.194-1.453
				c0.018-0.132,0.14-0.225,0.272-0.208c0.133,0.018,0.226,0.139,0.208,0.272l-0.194,1.453
				C58.798,29.462,58.694,29.551,58.575,29.551z"/>
			<path class="st3" d="M56.002,30.729c-0.774,0-1.641-0.271-1.975-0.688c-0.005-0.007-0.01-0.013-0.015-0.02l-0.872-1.356
				c-0.072-0.112-0.04-0.262,0.073-0.335c0.112-0.072,0.262-0.04,0.335,0.073l0.864,1.344c0.322,0.384,1.544,0.66,2.237,0.4
				c0.125-0.047,0.265,0.016,0.312,0.142c0.047,0.125-0.016,0.265-0.142,0.312C56.585,30.689,56.3,30.729,56.002,30.729z"/>
		</g>
		<g>
			<path class="st0" d="M127.999,71.37v23.881c-0.921-0.15-1.681-0.369-2.341-0.638c-2.642-1.075-3.649-3.018-6.664-5.191
				c-1.326-0.957-2.212-1.968-2.735-2.979c-1.527-2.932-0.036-5.89,2.334-7.689c3.183-2.423,4.269-6.366,8.743-7.273
				C127.565,71.438,127.784,71.399,127.999,71.37z"/>
			<path class="st1" d="M127.999,82.511v2.778c-0.513-0.107-0.918-0.312-1.09-0.495c-0.039-0.043-0.075-0.1-0.108-0.179
				c-0.064-0.15-0.115-0.362-0.154-0.591c-0.075-0.43-0.115-0.929-0.133-1.265c0-0.018,0-0.032-0.004-0.047
				c-0.011-0.212-0.014-0.351-0.014-0.351s0.097,0.011,0.262,0.025C127.031,82.414,127.486,82.461,127.999,82.511z"/>
			<path class="st2" d="M128,80.612v2.866c-0.447-0.099-0.898-0.295-1.317-0.622c-0.015-0.011-0.029-0.023-0.042-0.034
				c-0.046-0.037-0.089-0.073-0.129-0.111c-0.376-0.343-0.493-0.67-0.431-0.959C126.205,81.158,127.083,80.721,128,80.612z"/>
			<path class="st3" d="M115.354,83.633c0.012,0.967,0.319,1.913,0.905,2.812c0.547,0.842,1.338,1.643,2.36,2.381
				c1.242,0.896,2.155,1.76,2.96,2.523c1.754,1.661,3.047,2.888,6.42,3.336v0.443c-0.506-0.065-0.968-0.148-1.394-0.248
				c-0.339-0.078-0.654-0.167-0.949-0.266c-1.957-0.649-3.07-1.705-4.38-2.946c-0.795-0.752-1.696-1.606-2.916-2.485
				c-2.23-1.608-3.422-3.525-3.447-5.544c-0.024-1.995,1.083-3.993,3.038-5.478c1.136-0.863,2.014-1.941,2.864-2.984
				c1.496-1.836,3.043-3.734,5.972-4.326c0.416-0.084,0.819-0.143,1.211-0.177v0.443c-0.364,0.031-0.737,0.087-1.123,0.165
				c-2.775,0.562-4.205,2.316-5.719,4.173c-0.865,1.063-1.761,2.161-2.938,3.057C116.376,79.91,115.332,81.777,115.354,83.633z"/>
			<path class="st3" d="M128,82.821v0.442c-0.088-0.015-0.176-0.033-0.264-0.053c-0.331-0.077-0.672-0.194-1.017-0.351
				c-0.027-0.012-0.052-0.024-0.078-0.036c-0.043-0.022-0.086-0.043-0.127-0.066c-0.684-0.375-1.03-0.928-0.932-1.51
				c0.112-0.661,0.772-1.143,1.682-1.228c0.122-0.012,0.228,0.077,0.24,0.199c0.011,0.12-0.078,0.228-0.199,0.239
				c-0.706,0.066-1.211,0.405-1.288,0.863c-0.025,0.147-0.002,0.294,0.064,0.434c0.11,0.237,0.342,0.458,0.677,0.634
				c0.046,0.025,0.094,0.048,0.143,0.071C127.281,82.63,127.649,82.751,128,82.821z"/>
			<path class="st3" d="M127.999,84.497v0.437c-0.154,0-0.323-0.025-0.491-0.065c-0.24-0.054-0.48-0.143-0.706-0.255
				c-0.416-0.201-0.763-0.477-0.9-0.763c-0.004-0.004-0.007-0.011-0.007-0.018l-0.491-1.38c-0.043-0.115,0.018-0.24,0.133-0.283
				c0.115-0.039,0.24,0.021,0.28,0.136l0.488,1.366c0.057,0.115,0.183,0.236,0.344,0.351
				C127.003,84.275,127.547,84.486,127.999,84.497z"/>
		</g>
		<g>
			<path class="st4" d="M108.246,103.208c-4.473,0.246-6.082,3.92-9.516,5.819c-3.434,1.898-5.619,6.049-1.117,10.412
				c3.51,3.401,3.581,5.886,8.946,7.219c5.155,1.28,7.417-3.304,10.288-5.423c2.81-2.074,4.85-5.98,1.958-9.247
				C115.708,108.488,114.88,102.843,108.246,103.208z"/>
			<path class="st1" d="M105.892,113.647c0,0-0.241,1.994,0.056,2.42c0.297,0.426,1.585,1.086,2.881,0.743
				c0,0,1.605-1.923,1.203-2.081C109.629,114.571,105.892,113.647,105.892,113.647z"/>
			<path class="st2" d="M107.861,112.176c-1.478-0.142-3.174,0.61-1.859,1.978c1.315,1.369,3.271,1.129,4.03,0.575
				C110.79,114.176,109.949,112.376,107.861,112.176z"/>
			<path class="st3" d="M104.227,125.81c-2.413-0.946-3.457-2.271-4.718-3.87c-0.665-0.843-1.419-1.799-2.477-2.825
				c-1.937-1.877-2.823-3.906-2.561-5.868c0.258-1.94,1.616-3.722,3.724-4.887c1.224-0.677,2.229-1.599,3.201-2.49
				c1.712-1.57,3.482-3.194,6.408-3.355c2.092-0.115,3.792,0.35,5.197,1.423c0.095,0.072,0.113,0.208,0.041,0.302
				c-0.072,0.095-0.208,0.113-0.303,0.041c-1.32-1.007-2.927-1.444-4.912-1.335c-2.772,0.152-4.408,1.653-6.14,3.242
				c-0.991,0.909-2.015,1.849-3.284,2.55c-1.987,1.099-3.265,2.763-3.505,4.567c-0.242,1.821,0.599,3.723,2.434,5.501
				c1.079,1.046,1.842,2.013,2.516,2.867c1.551,1.967,2.672,3.388,6.332,4.297c3.698,0.918,5.839-1.258,7.91-3.363
				c0.741-0.753,1.44-1.464,2.199-2.024c1.84-1.358,3.054-3.255,3.246-5.073c0.148-1.401-0.297-2.699-1.321-3.857
				c-0.862-0.974-1.555-2.119-2.225-3.226c-0.24-0.397-0.489-0.808-0.74-1.201c-0.064-0.1-0.035-0.234,0.066-0.298
				c0.1-0.064,0.234-0.035,0.298,0.066c0.254,0.398,0.504,0.811,0.746,1.21c0.66,1.09,1.343,2.218,2.179,3.163
				c1.108,1.252,1.589,2.662,1.427,4.188c-0.205,1.937-1.483,3.946-3.419,5.375c-0.731,0.54-1.419,1.239-2.147,1.979
				c-2.055,2.089-4.384,4.457-8.321,3.48C105.379,126.216,104.768,126.022,104.227,125.81z"/>
			<path class="st3" d="M106.974,114.645c-0.31-0.122-0.625-0.283-0.938-0.484c-0.742-0.477-1.07-1.122-0.875-1.725
				c0.202-0.626,0.91-1,1.805-0.954c0.119,0.006,0.211,0.108,0.204,0.227c-0.006,0.119-0.108,0.21-0.227,0.204
				c-0.694-0.036-1.232,0.221-1.372,0.655c-0.131,0.405,0.13,0.865,0.698,1.23c1.347,0.865,2.646,0.936,3.475,0.189
				c0.195-0.176,0.266-0.369,0.216-0.592c-0.105-0.467-0.739-1.011-1.414-1.213c-0.114-0.034-0.179-0.155-0.145-0.269
				c0.034-0.114,0.154-0.179,0.269-0.145c0.711,0.212,1.552,0.822,1.712,1.532c0.059,0.263,0.047,0.651-0.348,1.007
				C109.268,114.997,108.149,115.106,106.974,114.645z"/>
			<path class="st3" d="M109.037,116.084c-0.009-0.003-0.018-0.008-0.026-0.012c-0.104-0.058-0.142-0.189-0.084-0.293l0.634-1.142
				c0.058-0.104,0.189-0.141,0.293-0.084c0.104,0.058,0.142,0.189,0.084,0.293l-0.634,1.142
				C109.251,116.084,109.136,116.123,109.037,116.084z"/>
			<path class="st3" d="M106.518,116.224c-0.642-0.252-1.273-0.759-1.414-1.214c-0.002-0.007-0.004-0.014-0.006-0.022l-0.282-1.409
				c-0.023-0.117,0.052-0.231,0.169-0.254c0.117-0.023,0.231,0.052,0.254,0.169l0.28,1.397c0.142,0.424,1.067,1.05,1.726,1.06
				c0.119,0.002,0.214,0.1,0.213,0.219c-0.002,0.119-0.1,0.214-0.219,0.213C107.015,116.381,106.766,116.322,106.518,116.224z"/>
		</g>
		<g>
			<path class="st5" d="M71.972,76.829c-5.024-0.11-7.141,3.862-11.146,5.69c-4.005,1.828-6.806,6.283-2.146,11.551
				c3.633,4.107,3.499,6.893,9.385,8.845c5.656,1.876,8.581-3.057,11.975-5.181c3.322-2.078,5.94-6.272,2.987-10.175
				C79.865,83.378,79.425,76.993,71.972,76.829z"/>
			<path class="st1" d="M68.44,88.303c0,0-0.441,2.21-0.146,2.712c0.296,0.502,1.68,1.352,3.158,1.079c0,0,1.962-2.013,1.525-2.224
				C72.541,89.66,68.44,88.303,68.44,88.303z"/>
			<path class="st2" d="M70.77,86.827c-1.641-0.286-3.603,0.409-2.25,2.053c1.353,1.644,3.562,1.544,4.458,0.99
				C73.874,89.317,73.088,87.231,70.77,86.827z"/>
			<path class="st3" d="M65.531,101.766c-2.617-1.266-3.672-2.838-4.945-4.735c-0.671-1-1.432-2.134-2.528-3.373
				c-2.005-2.266-2.821-4.612-2.36-6.785c0.456-2.148,2.128-4.024,4.586-5.147c1.427-0.651,2.631-1.596,3.795-2.51
				c2.05-1.609,4.169-3.273,7.457-3.201c2.35,0.051,4.212,0.718,5.691,2.039c0.1,0.089,0.108,0.242,0.019,0.342
				c-0.089,0.1-0.242,0.108-0.342,0.019c-1.39-1.241-3.15-1.867-5.379-1.916c-3.114-0.068-5.073,1.47-7.147,3.098
				c-1.186,0.931-2.413,1.894-3.893,2.57c-2.318,1.058-3.89,2.81-4.314,4.807c-0.428,2.016,0.35,4.217,2.249,6.363
				c1.117,1.263,1.888,2.411,2.567,3.424c1.566,2.334,2.698,4.02,6.713,5.352c4.058,1.346,6.64-0.905,9.137-3.081
				c0.893-0.778,1.737-1.514,2.634-2.075c2.176-1.361,3.696-3.378,4.068-5.396c0.286-1.555-0.099-3.045-1.146-4.428
				c-0.881-1.164-1.557-2.504-2.211-3.8c-0.235-0.465-0.478-0.946-0.725-1.408c-0.063-0.118-0.019-0.265,0.099-0.328
				c0.118-0.063,0.265-0.019,0.328,0.099c0.25,0.467,0.494,0.95,0.73,1.418c0.645,1.277,1.311,2.597,2.165,3.726
				c1.132,1.496,1.548,3.114,1.236,4.808c-0.396,2.149-1.998,4.287-4.287,5.718c-0.865,0.541-1.694,1.264-2.572,2.029
				c-2.479,2.16-5.288,4.609-9.608,3.176C66.784,102.319,66.118,102.05,65.531,101.766z"/>
			<path class="st3" d="M69.564,89.513c-0.337-0.163-0.674-0.371-1.007-0.622c-0.789-0.598-1.1-1.347-0.83-2.005
				c0.28-0.683,1.104-1.041,2.102-0.911c0.133,0.017,0.226,0.139,0.209,0.271c-0.017,0.133-0.139,0.226-0.271,0.209
				c-0.773-0.1-1.397,0.141-1.591,0.615c-0.181,0.442,0.071,0.979,0.675,1.436c1.432,1.084,2.879,1.275,3.871,0.51
				c0.234-0.18,0.329-0.39,0.293-0.643c-0.077-0.531-0.74-1.194-1.478-1.479c-0.124-0.048-0.187-0.188-0.139-0.313
				c0.048-0.125,0.188-0.187,0.313-0.139c0.777,0.298,1.665,1.053,1.783,1.861c0.044,0.299-0.004,0.732-0.476,1.096
				C72.1,90.105,70.84,90.13,69.564,89.513z"/>
			<path class="st3" d="M71.748,91.301c-0.01-0.005-0.019-0.01-0.028-0.016c-0.112-0.074-0.142-0.224-0.069-0.335l0.807-1.223
				c0.074-0.111,0.224-0.142,0.335-0.069c0.112,0.074,0.142,0.224,0.069,0.335l-0.807,1.223
				C71.988,91.319,71.856,91.353,71.748,91.301z"/>
			<path class="st3" d="M68.919,91.241c-0.697-0.337-1.359-0.959-1.478-1.479c-0.002-0.008-0.003-0.016-0.004-0.025l-0.194-1.6
				c-0.016-0.133,0.078-0.253,0.211-0.27c0.133-0.016,0.254,0.079,0.27,0.211l0.192,1.587c0.123,0.486,1.103,1.267,1.839,1.335
				c0.133,0.012,0.231,0.13,0.219,0.263c-0.012,0.133-0.13,0.231-0.263,0.219C69.461,91.459,69.188,91.371,68.919,91.241z"/>
		</g>
		<g>
			<path class="st5" d="M38.841,128H16.713c-0.419-0.575-0.892-1.18-1.454-1.816c-1.192-1.346-1.895-2.639-2.216-3.849
				c-0.935-3.524,1.379-6.341,4.361-7.701c4.005-1.828,6.122-5.8,11.146-5.689c1.795,0.039,3.184,0.438,4.301,1.082
				c0.296,0.171,0.574,0.359,0.834,0.561c1.07,0.831,1.863,1.914,2.551,3.096c1.141,1.953,2,4.178,3.37,5.989
				c0.407,0.538,0.708,1.082,0.916,1.624C41.457,123.739,40.511,126.164,38.841,128z"/>
			<path class="st1" d="M25.018,120.419c0,0-0.441,2.21-0.146,2.712c0.296,0.502,1.68,1.352,3.158,1.079
				c0,0,1.962-2.013,1.525-2.224C29.119,121.775,25.018,120.419,25.018,120.419z"/>
			<path class="st2" d="M27.348,118.943c-1.641-0.286-3.603,0.409-2.25,2.053c1.353,1.644,3.562,1.544,4.458,0.99
				C30.452,121.432,29.666,119.346,27.348,118.943z"/>
			<path class="st3" d="M33.805,110.169c0.1,0.089,0.108,0.242,0.019,0.342c-0.039,0.043-0.088,0.069-0.14,0.077
				c-0.07,0.012-0.145-0.007-0.201-0.058c-0.202-0.181-0.413-0.348-0.632-0.504c-1.281-0.907-2.843-1.371-4.747-1.412
				c-3.114-0.069-5.073,1.47-7.148,3.098c-1.185,0.931-2.412,1.895-3.893,2.57c-2.317,1.058-3.889,2.811-4.313,4.807
				c-0.222,1.043-0.12,2.136,0.293,3.246c0.384,1.034,1.038,2.082,1.955,3.118c0.807,0.911,1.432,1.762,1.974,2.547h-0.59
				c-0.488-0.695-1.049-1.44-1.746-2.226c-2.005-2.266-2.82-4.612-2.359-6.784c0.455-2.149,2.128-4.025,4.585-5.147
				c1.428-0.652,2.631-1.596,3.795-2.511c2.051-1.608,4.17-3.273,7.456-3.201C30.465,108.182,32.326,108.849,33.805,110.169z"/>
			<path class="st3" d="M40.594,123.764c-0.276,1.496-1.136,2.985-2.405,4.236h-0.707c1.401-1.247,2.352-2.785,2.636-4.324
				c0.285-1.554-0.1-3.045-1.147-4.428c-0.88-1.164-1.557-2.504-2.211-3.8c-0.235-0.465-0.478-0.946-0.725-1.408
				c-0.063-0.117-0.018-0.264,0.1-0.326c0.031-0.017,0.066-0.026,0.1-0.029c0.091-0.005,0.181,0.042,0.228,0.128
				c0.249,0.466,0.494,0.951,0.73,1.418c0.645,1.276,1.311,2.596,2.165,3.725c0.569,0.752,0.958,1.535,1.163,2.342
				C40.724,122.098,40.75,122.922,40.594,123.764z"/>
			<path class="st3" d="M26.143,121.629c-0.337-0.163-0.674-0.371-1.007-0.622c-0.789-0.598-1.1-1.347-0.83-2.005
				c0.279-0.683,1.104-1.041,2.102-0.911c0.133,0.017,0.226,0.139,0.209,0.271s-0.139,0.226-0.271,0.209
				c-0.773-0.1-1.397,0.141-1.591,0.615c-0.181,0.442,0.071,0.979,0.675,1.436c1.432,1.084,2.879,1.275,3.871,0.51
				c0.234-0.18,0.329-0.391,0.293-0.643c-0.077-0.531-0.74-1.194-1.478-1.479c-0.124-0.048-0.187-0.188-0.139-0.313
				c0.048-0.125,0.188-0.187,0.313-0.139c0.777,0.298,1.665,1.053,1.783,1.861c0.044,0.299-0.004,0.732-0.476,1.096
				C28.679,122.22,27.418,122.245,26.143,121.629z"/>
			<path class="st3" d="M28.327,123.416c-0.01-0.005-0.019-0.01-0.028-0.016c-0.112-0.074-0.142-0.224-0.069-0.335l0.807-1.223
				c0.074-0.112,0.224-0.142,0.335-0.069c0.112,0.074,0.142,0.224,0.069,0.335l-0.807,1.223
				C28.566,123.434,28.434,123.468,28.327,123.416z"/>
			<path class="st3" d="M25.497,123.356c-0.697-0.337-1.359-0.959-1.478-1.479c-0.002-0.008-0.003-0.016-0.004-0.025l-0.194-1.6
				c-0.016-0.133,0.078-0.253,0.211-0.27c0.133-0.016,0.253,0.078,0.27,0.211l0.192,1.587c0.123,0.486,1.103,1.267,1.84,1.335
				c0.133,0.012,0.231,0.13,0.219,0.263c-0.012,0.133-0.13,0.231-0.263,0.219C26.039,123.574,25.766,123.486,25.497,123.356z"/>
		</g>
		<g>
			<path class="st6" d="M48.114,50.238c-7.361-1.646-12.979,5.424-10.848,11.913C43.174,63.604,51.698,59.439,48.114,50.238z"/>
			<path class="st3" d="M39.028,62.353c-0.846,0-1.68-0.096-2.465-0.29c-0.081-0.02-0.146-0.08-0.172-0.16
				c-0.407-1.241-0.55-2.528-0.425-3.825c0.013-0.133,0.131-0.23,0.264-0.218c0.133,0.013,0.231,0.131,0.218,0.264
				c-0.115,1.185,0.007,2.362,0.362,3.499c3.413,0.786,7.393-0.376,9.511-2.789c1.366-1.556,2.634-4.327,0.969-8.711
				c-4.912-1.034-8.677,1.956-10.106,5.199c-0.054,0.122-0.197,0.178-0.319,0.124c-0.122-0.054-0.178-0.197-0.124-0.319
				c0.861-1.954,2.346-3.58,4.181-4.581c1.995-1.088,4.277-1.388,6.6-0.868c0.079,0.018,0.143,0.073,0.173,0.149
				c0.752,1.931,1.017,3.743,0.788,5.389c-0.208,1.491-0.812,2.816-1.797,3.938c-1.155,1.316-2.775,2.285-4.686,2.803
				C41.028,62.221,40.019,62.353,39.028,62.353z"/>
			<path class="st3" d="M41.602,56.629c-0.056,0-0.112-0.019-0.157-0.058c-0.102-0.087-0.113-0.24-0.026-0.341l4.046-4.721
				c0.087-0.102,0.24-0.113,0.341-0.026c0.101,0.087,0.113,0.24,0.026,0.341l-4.046,4.721
				C41.738,56.601,41.671,56.629,41.602,56.629z"/>
			<path class="st3" d="M38.677,60.042c-0.056,0-0.112-0.019-0.157-0.058c-0.102-0.087-0.113-0.24-0.026-0.341l1.422-1.659
				c0.087-0.102,0.24-0.113,0.341-0.026c0.102,0.087,0.113,0.24,0.026,0.341l-1.422,1.659
				C38.813,60.014,38.745,60.042,38.677,60.042z"/>
		</g>
		<g>
			<path class="st6" d="M42.859,122.113c5.837,4.778,14.032,0.985,15.044-5.77C53.276,112.391,43.79,112.283,42.859,122.113z"/>
			<path class="st3" d="M56.419,115.371c0.756,0.38,1.457,0.84,2.073,1.366c0.063,0.054,0.095,0.137,0.082,0.22
				c-0.193,1.291-0.644,2.505-1.339,3.608c-0.071,0.113-0.22,0.147-0.334,0.076c-0.113-0.071-0.147-0.221-0.076-0.334
				c0.635-1.007,1.055-2.113,1.248-3.288c-2.697-2.235-6.774-2.986-9.751-1.781c-1.919,0.777-4.297,2.683-4.779,7.347
				c3.924,3.131,8.631,2.15,11.365-0.105c0.103-0.085,0.256-0.07,0.341,0.033c0.085,0.103,0.07,0.256-0.033,0.341
				c-1.647,1.359-3.704,2.145-5.794,2.214c-2.271,0.075-4.445-0.682-6.286-2.189c-0.062-0.051-0.095-0.13-0.088-0.21
				c0.196-2.063,0.773-3.801,1.717-5.168c0.855-1.239,1.991-2.151,3.375-2.711c1.623-0.657,3.506-0.795,5.445-0.4
				C54.572,114.59,55.533,114.926,56.419,115.371z"/>
			<path class="st3" d="M51.548,119.328c0.05,0.025,0.091,0.067,0.114,0.123c0.052,0.123-0.007,0.265-0.13,0.317l-5.736,2.4
				c-0.123,0.052-0.265-0.007-0.317-0.13c-0.052-0.123,0.007-0.265,0.13-0.317l5.736-2.4
				C51.413,119.293,51.487,119.297,51.548,119.328z"/>
			<path class="st3" d="M55.694,117.593c0.05,0.025,0.091,0.067,0.114,0.123c0.052,0.123-0.007,0.265-0.13,0.317l-2.015,0.843
				c-0.123,0.052-0.265-0.007-0.317-0.13c-0.052-0.123,0.006-0.265,0.13-0.317l2.015-0.843
				C55.56,117.558,55.633,117.562,55.694,117.593z"/>
		</g>
		<g>
			<path class="st6" d="M52.279,52.175c6.005,0.484,7.749,8.814,4.262,13.172C47.92,63.991,48.114,54.887,52.279,52.175z"/>
			<path class="st3" d="M55.895,65.267c-0.013,0-0.025-0.001-0.038-0.003c-3.807-0.599-6.388-2.803-7.081-6.047
				c-0.63-2.947,0.516-6.13,2.725-7.568c0.045-0.029,0.098-0.043,0.152-0.038c1.254,0.101,2.378,0.533,3.339,1.283
				c0.105,0.082,0.124,0.234,0.042,0.34c-0.082,0.105-0.234,0.124-0.34,0.042c-0.864-0.675-1.872-1.07-2.997-1.175
				c-2.002,1.354-3.03,4.288-2.447,7.015c0.641,2.998,3.022,5.05,6.543,5.647c2.094-2.735,2.188-7.238,0.188-10.113
				c-0.076-0.11-0.049-0.261,0.061-0.337c0.11-0.076,0.261-0.049,0.337,0.061c1.029,1.48,1.575,3.402,1.538,5.41
				c-0.038,2.049-0.689,3.964-1.832,5.393C56.038,65.234,55.968,65.267,55.895,65.267z"/>
			<path class="st3" d="M54.846,62.578c-0.103,0-0.198-0.066-0.231-0.17l-2.776-8.845c-0.04-0.128,0.031-0.264,0.158-0.304
				c0.128-0.04,0.264,0.031,0.304,0.159l2.776,8.845c0.04,0.128-0.031,0.264-0.159,0.304C54.895,62.574,54.87,62.578,54.846,62.578z
				"/>
		</g>
		<g>
			<path class="st6" d="M89.007,83.377c2.807-5.331,11.151-3.657,13.787,1.263C98.156,92.032,89.862,88.273,89.007,83.377z"/>
			<path class="st3" d="M102.465,85.202c-0.005,0.011-0.011,0.023-0.018,0.033c-2.048,3.264-5.089,4.77-8.345,4.132
				c-2.957-0.58-5.433-2.885-5.886-5.482c-0.009-0.053-0.001-0.107,0.024-0.154c0.586-1.113,1.425-1.976,2.493-2.565
				c0.117-0.065,0.264-0.022,0.329,0.095c0.065,0.117,0.022,0.264-0.095,0.329c-0.96,0.529-1.72,1.3-2.259,2.293
				c0.458,2.373,2.751,4.472,5.487,5.009c3.008,0.59,5.831-0.792,7.765-3.794c-1.691-3.001-5.794-4.858-9.224-4.151
				c-0.131,0.027-0.259-0.057-0.286-0.188c-0.027-0.131,0.057-0.259,0.188-0.286c1.766-0.364,3.747-0.11,5.579,0.714
				c1.869,0.841,3.374,2.193,4.238,3.806C102.491,85.058,102.494,85.135,102.465,85.202z"/>
			<path class="st3" d="M99.581,85.109c-0.041,0.095-0.139,0.156-0.247,0.146l-9.224-0.927c-0.133-0.013-0.23-0.132-0.217-0.265
				c0.013-0.133,0.132-0.23,0.265-0.217l9.224,0.927c0.133,0.013,0.23,0.132,0.217,0.265C99.596,85.063,99.59,85.087,99.581,85.109z
				"/>
		</g>
		<g>
			<path class="st6" d="M26.567,82.213c-0.41,6.011-8.717,7.857-13.119,4.425C14.697,78.001,23.803,78.082,26.567,82.213z"/>
			<path class="st3" d="M13.521,85.991c0-0.012,0.001-0.025,0.002-0.038c0.552-3.814,2.723-6.422,5.959-7.155
				c2.939-0.666,6.135,0.44,7.601,2.631c0.03,0.045,0.044,0.098,0.04,0.151c-0.086,1.255-0.503,2.384-1.242,3.355
				c-0.081,0.106-0.233,0.127-0.339,0.046s-0.127-0.233-0.046-0.339c0.664-0.873,1.047-1.885,1.138-3.011
				c-1.379-1.985-4.325-2.976-7.045-2.359c-2.99,0.678-5.012,3.084-5.565,6.612c2.761,2.06,7.264,2.098,10.115,0.063
				c0.109-0.078,0.26-0.052,0.338,0.056c0.078,0.109,0.052,0.26-0.056,0.338c-1.468,1.048-3.382,1.618-5.391,1.605
				c-2.049-0.013-3.972-0.64-5.416-1.765C13.555,86.133,13.521,86.064,13.521,85.991z"/>
			<path class="st3" d="M16.196,84.909c-0.001-0.103,0.064-0.199,0.167-0.233l8.81-2.886c0.127-0.042,0.264,0.028,0.305,0.155
				c0.042,0.127-0.028,0.264-0.155,0.305l-8.81,2.886c-0.127,0.042-0.264-0.028-0.305-0.155
				C16.2,84.957,16.196,84.933,16.196,84.909z"/>
		</g>
		<g>
			<path class="st7" d="M70.682,19.623c5.908,1.259,11.526-3.002,12.301-9.007C75.524,7.516,68.551,13.521,70.682,19.623z"/>
			<path class="st3" d="M72.135,19.765c-0.714,0-1.433-0.075-2.149-0.228c-0.083-0.018-0.15-0.077-0.178-0.157
				c-0.394-1.129-0.5-2.283-0.315-3.428c0.176-1.086,0.604-2.113,1.271-3.052c1.642-2.312,4.439-3.692,7.483-3.692
				c0.001,0,0.002,0,0.003,0c0.134,0,0.242,0.108,0.242,0.242c0,0.134-0.108,0.242-0.242,0.242c-0.001,0.001-0.002,0-0.003,0
				c-2.887,0-5.537,1.304-7.088,3.488c-1.271,1.79-1.602,3.884-0.938,5.911c2.649,0.527,5.332-0.053,7.571-1.638
				c2.312-1.637,3.864-4.183,4.279-7.007c-0.374-0.148-0.754-0.276-1.131-0.381c-0.129-0.036-0.204-0.169-0.169-0.298
				c0.036-0.129,0.169-0.204,0.298-0.169c0.455,0.126,0.913,0.284,1.361,0.47c0.101,0.042,0.161,0.146,0.147,0.255
				c-0.391,3.031-2.033,5.774-4.505,7.524C76.289,19.111,74.237,19.765,72.135,19.765z"/>
			<path class="st3" d="M77.385,12.321c-0.088,0-0.172-0.048-0.215-0.131c-0.062-0.119-0.015-0.265,0.104-0.326
				c0.622-0.323,1.244-0.573,1.848-0.744c0.129-0.036,0.262,0.038,0.299,0.167c0.036,0.129-0.038,0.263-0.167,0.299
				c-0.572,0.162-1.163,0.4-1.757,0.708C77.461,12.313,77.423,12.321,77.385,12.321z"/>
			<path class="st3" d="M72.666,16.374c-0.033,0-0.066-0.007-0.098-0.021c-0.122-0.054-0.177-0.197-0.123-0.32
				c0.187-0.421,1.612-2.14,3.712-3.514c0.112-0.073,0.262-0.042,0.335,0.07c0.073,0.112,0.042,0.262-0.07,0.335
				c-2.005,1.312-3.39,2.979-3.535,3.306C72.847,16.32,72.759,16.374,72.666,16.374z"/>
		</g>
		<g>
			<path class="st7" d="M50.288,90.834c-3.203,5.122-10.172,6.196-15.027,2.577C38.22,85.896,47.384,85.059,50.288,90.834z"/>
			<path class="st3" d="M49.38,91.977c0.496-0.513,0.942-1.082,1.331-1.703c0.045-0.072,0.049-0.162,0.011-0.237
				c-0.537-1.069-1.293-1.947-2.245-2.61c-0.903-0.628-1.938-1.035-3.077-1.209c-2.803-0.427-5.74,0.623-7.856,2.811
				c-0.001,0.001-0.001,0.001-0.002,0.002c-0.093,0.096-0.09,0.249,0.006,0.342c0.096,0.093,0.249,0.09,0.342-0.006
				c0.001,0,0.001-0.001,0.002-0.002c2.008-2.075,4.787-3.073,7.435-2.669c2.171,0.331,3.906,1.549,4.901,3.436
				c-1.463,2.27-3.746,3.796-6.442,4.302c-2.784,0.523-5.693-0.132-8.011-1.797c0.153-0.372,0.326-0.733,0.513-1.078
				c0.064-0.117,0.021-0.264-0.097-0.328c-0.117-0.064-0.264-0.021-0.328,0.097c-0.226,0.415-0.431,0.854-0.608,1.305
				c-0.04,0.102-0.007,0.217,0.081,0.283c2.45,1.827,5.563,2.554,8.54,1.994C46.021,94.507,47.918,93.487,49.38,91.977z"/>
			<path class="st3" d="M40.379,90.574c0.061-0.063,0.085-0.157,0.056-0.245c-0.043-0.127-0.18-0.195-0.307-0.153
				c-0.664,0.223-1.277,0.496-1.819,0.811c-0.116,0.067-0.155,0.215-0.088,0.331c0.067,0.116,0.215,0.155,0.331,0.088
				c0.514-0.299,1.097-0.558,1.73-0.771C40.32,90.622,40.353,90.601,40.379,90.574z"/>
			<path class="st3" d="M46.573,90c0.023-0.024,0.041-0.052,0.053-0.085c0.046-0.126-0.019-0.265-0.144-0.311
				c-0.433-0.158-2.659-0.329-5.107,0.224c-0.131,0.03-0.212,0.159-0.183,0.29c0.029,0.13,0.159,0.212,0.29,0.183
				c2.337-0.529,4.499-0.365,4.833-0.242C46.408,90.093,46.508,90.067,46.573,90z"/>
		</g>
		<g>
			<path class="st6" d="M101.902,25.809c-5.037-1.55-7.652-6.683-3.971-10.945C106.163,16.898,103.064,24.259,101.902,25.809z"/>
			<path class="st3" d="M101.256,25.728c-0.024,0-0.048-0.003-0.071-0.011c-1.387-0.427-2.641-1.139-3.624-2.058
				c-0.978-0.914-1.672-2.016-2.009-3.186c-0.597-2.078-0.047-4.241,1.55-6.09c0.06-0.069,0.153-0.099,0.241-0.077
				c2.829,0.699,4.63,2.082,5.354,4.11c1.004,2.816-0.436,6.134-1.247,7.215C101.403,25.693,101.331,25.728,101.256,25.728z
				 M97.372,14.813c-1.412,1.696-1.894,3.653-1.355,5.526c0.635,2.207,2.551,4.015,5.144,4.863c0.773-1.138,1.979-4.101,1.079-6.623
				C101.588,16.747,99.95,15.481,97.372,14.813z"/>
			<path class="st3" d="M100.3,22.913c-0.104,0-0.2-0.068-0.232-0.173c-0.764-2.548-2.114-6.472-2.128-6.512
				c-0.044-0.126,0.024-0.264,0.15-0.308c0.126-0.043,0.264,0.024,0.308,0.15c0.014,0.039,1.366,3.973,2.134,6.53
				c0.038,0.128-0.034,0.263-0.162,0.301C100.347,22.91,100.323,22.913,100.3,22.913z"/>
		</g>
		<g>
			<path class="st6" d="M109.533,16.473c-1.082-5.157,2.144-9.93,7.654-8.773C119.393,15.888,111.452,16.739,109.533,16.473z"/>
			<path class="st3" d="M109.291,15.869c-0.011-0.021-0.02-0.043-0.025-0.068c-0.298-1.421-0.282-2.862,0.046-4.168
				c0.326-1.298,0.954-2.439,1.816-3.3c1.529-1.529,3.688-2.094,6.079-1.592c0.089,0.019,0.16,0.086,0.184,0.174
				c0.758,2.814,0.42,5.059-1.005,6.674c-1.978,2.241-5.578,2.588-6.917,2.402C109.393,15.981,109.327,15.934,109.291,15.869z
				 M116.961,7.186c-2.167-0.415-4.113,0.111-5.491,1.49c-1.624,1.624-2.278,4.176-1.765,6.855c1.37,0.125,4.547-0.254,6.318-2.262
				C117.31,11.811,117.625,9.765,116.961,7.186z"/>
			<path class="st3" d="M111.291,13.669c-0.05-0.091-0.038-0.208,0.039-0.286c1.86-1.903,4.64-4.983,4.668-5.014
				c0.089-0.099,0.243-0.107,0.342-0.018c0.099,0.09,0.107,0.243,0.018,0.342c-0.028,0.031-2.815,3.119-4.681,5.028
				c-0.093,0.096-0.247,0.097-0.342,0.004C111.317,13.708,111.302,13.689,111.291,13.669z"/>
		</g>
		<g>
			<path class="st6" d="M25.911,40.328c-1.412-5.077,1.5-10.048,7.074-9.248C35.713,39.11,27.843,40.471,25.911,40.328z"/>
			<path class="st3" d="M25.631,39.741c-0.013-0.02-0.023-0.042-0.029-0.066c-0.389-1.399-0.466-2.838-0.222-4.162
				c0.242-1.316,0.795-2.495,1.599-3.41c1.427-1.624,3.545-2.327,5.964-1.98c0.09,0.013,0.165,0.076,0.195,0.162
				c0.938,2.759,0.745,5.022-0.573,6.725c-1.829,2.364-5.4,2.941-6.748,2.842C25.74,39.846,25.671,39.804,25.631,39.741z
				 M32.727,30.583c-2.189-0.275-4.097,0.376-5.384,1.84c-1.516,1.725-2.005,4.314-1.32,6.955c1.375,0.037,4.521-0.546,6.159-2.664
				C33.372,35.176,33.555,33.114,32.727,30.583z"/>
			<path class="st3" d="M27.486,37.418c-0.056-0.088-0.051-0.205,0.02-0.288c1.733-2.018,4.31-5.272,4.336-5.304
				c0.083-0.105,0.235-0.123,0.34-0.04c0.104,0.083,0.123,0.235,0.04,0.34c-0.026,0.033-2.608,3.293-4.348,5.319
				c-0.087,0.101-0.24,0.113-0.341,0.026C27.514,37.455,27.498,37.437,27.486,37.418z"/>
		</g>
		<g>
			<path class="st4" d="M97.543,31.039c-4.996,1.274-5.811,5.618-8.136,8.039c-2.325,2.421-3.293,7.942,1.162,10.363
				c4.455,2.421,3.807,2.92,7.652,4.843c3.487,1.743,8.62,0.581,10.557-3.681c0.976-2.147,5.462-6.632,4.165-10.848
				c-1.162-3.777-3.39-4.746-5.424-5.908C105.485,32.685,102.483,29.78,97.543,31.039z"/>
			<path class="st1" d="M98.226,41.619c0,0,0.566,2.182,1.05,2.505c0.485,0.323,2.101,0.485,3.313-0.404
				c0,0,0.889-2.667,0.404-2.667S98.226,41.619,98.226,41.619z"/>
			<path class="st2" d="M99.681,39.275c-1.602,0.458-3.065,1.937-1.131,2.828c1.934,0.891,3.879-0.162,4.444-1.05
				C103.559,40.164,101.943,38.629,99.681,39.275z"/>
			<path class="st3" d="M100.996,54.98c-1.241,0-2.463-0.27-3.528-0.802c-1.959-0.979-2.784-1.609-3.658-2.275
				c-0.848-0.647-1.809-1.38-4.002-2.571c-2.242-1.219-2.962-3.075-3.17-4.418c-0.343-2.212,0.44-4.754,1.949-6.326
				c0.697-0.726,1.257-1.632,1.85-2.592c0.547-0.885,1.112-1.801,1.829-2.643c0.087-0.102,0.239-0.114,0.341-0.028
				c0.102,0.087,0.114,0.239,0.028,0.341c-0.693,0.814-1.248,1.714-1.786,2.584c-0.607,0.982-1.18,1.91-1.912,2.673
				c-1.41,1.469-2.141,3.846-1.82,5.917c0.192,1.235,0.854,2.943,2.923,4.067c2.225,1.209,3.202,1.955,4.064,2.612
				c0.892,0.68,1.662,1.268,3.58,2.227c1.771,0.885,4.008,0.996,5.986,0.295c1.912-0.677,3.419-2.048,4.243-3.86
				c0.257-0.566,0.739-1.273,1.297-2.091c1.599-2.345,3.789-5.556,2.857-8.586c-1.039-3.377-2.956-4.449-4.81-5.486
				c-0.168-0.094-0.336-0.188-0.502-0.283c-0.349-0.2-0.727-0.45-1.127-0.715c-1.969-1.304-4.665-3.091-8.67-2.07
				c-0.713,0.182-1.378,0.44-1.976,0.767c-0.117,0.064-0.264,0.021-0.329-0.096s-0.021-0.264,0.096-0.329
				c0.634-0.347,1.337-0.619,2.089-0.811c1.866-0.476,3.621-0.42,5.365,0.17c1.484,0.502,2.708,1.313,3.691,1.965
				c0.393,0.26,0.764,0.506,1.1,0.698c0.165,0.094,0.332,0.188,0.499,0.281c1.937,1.084,3.941,2.204,5.037,5.766
				c1.001,3.252-1.265,6.575-2.92,9.001c-0.545,0.8-1.016,1.49-1.256,2.018c-0.879,1.933-2.484,3.394-4.522,4.116
				C102.918,54.82,101.952,54.98,100.996,54.98z"/>
			<path class="st3" d="M99.677,42.498c-0.258,0-0.522-0.031-0.788-0.093c-0.935-0.218-1.517-0.795-1.557-1.544
				c-0.04-0.736,0.458-1.433,1.209-1.697c0.126-0.044,0.264,0.022,0.309,0.149c0.044,0.126-0.022,0.264-0.149,0.309
				c-0.541,0.189-0.913,0.7-0.886,1.214c0.028,0.529,0.46,0.93,1.183,1.098c0.719,0.168,1.415,0.07,1.96-0.276
				c0.408-0.259,0.701-0.642,0.782-1.024c0.076-0.352,0-0.691-0.212-0.953c-0.259-0.321-0.696-0.497-1.23-0.497
				c-0.134,0-0.242-0.108-0.242-0.242c0-0.134,0.108-0.242,0.242-0.242c0.683,0,1.254,0.24,1.607,0.677
				c0.306,0.378,0.415,0.861,0.309,1.359c-0.11,0.514-0.473,1-0.997,1.331C100.769,42.351,100.239,42.497,99.677,42.498z"/>
			<path class="st3" d="M99.914,44.323c-0.19,0-0.344-0.013-0.44-0.025c-0.224-0.026-0.973-0.142-1.191-0.524
				c-0.261-0.456-0.639-1.275-0.655-1.31c-0.056-0.121-0.003-0.265,0.118-0.321s0.265-0.003,0.321,0.118
				c0.004,0.008,0.386,0.835,0.636,1.273c0.04,0.07,0.323,0.224,0.828,0.284c0.665,0.078,1.561-0.035,2.078-0.587
				c0.091-0.097,0.245-0.103,0.342-0.011c0.098,0.091,0.103,0.245,0.011,0.342C101.358,44.205,100.478,44.323,99.914,44.323z"/>
			<path class="st3" d="M102.108,42.928c-0.134,0-0.242-0.108-0.242-0.242v-0.904c0-0.134,0.108-0.242,0.242-0.242
				c0.134,0,0.242,0.108,0.242,0.242v0.904C102.35,42.819,102.242,42.928,102.108,42.928z"/>
		</g>
		<g>
			<path class="st4" d="M17.087,39.187c-5.133,0.489-6.607,4.655-9.277,6.69c-2.67,2.034-4.477,7.34-0.448,10.419
				c4.029,3.079,3.311,3.472,6.814,5.964c3.177,2.26,8.428,1.902,10.998-2.01c1.295-1.971,6.418-5.711,5.786-10.077
				c-0.567-3.911-2.619-5.211-4.449-6.673C24.681,42.038,22.162,38.704,17.087,39.187z"/>
			<path class="st1" d="M16.132,49.746c0,0,0.223,2.243,0.652,2.637c0.429,0.394,2.001,0.803,3.336,0.111
				c0,0,1.289-2.498,0.81-2.572C20.451,49.847,16.132,49.746,16.132,49.746z"/>
			<path class="st2" d="M17.93,47.655c-1.653,0.205-3.327,1.442-1.554,2.62c1.774,1.178,3.857,0.438,4.553-0.353
				C21.625,49.131,20.265,47.365,17.93,47.655z"/>
			<path class="st3" d="M16.81,63.375c-1.226-0.191-2.392-0.646-3.363-1.336c-1.785-1.27-2.503-2.019-3.264-2.811
				c-0.738-0.77-1.575-1.642-3.558-3.157c-2.028-1.55-2.453-3.495-2.452-4.854c0.002-2.238,1.167-4.63,2.9-5.95
				c0.8-0.61,1.493-1.419,2.227-2.276c0.677-0.791,1.376-1.608,2.214-2.33c0.101-0.087,0.254-0.076,0.341,0.025
				c0.087,0.101,0.076,0.254-0.025,0.341c-0.81,0.698-1.498,1.501-2.163,2.278c-0.751,0.877-1.46,1.706-2.301,2.347
				c-1.619,1.234-2.708,3.47-2.709,5.566c-0.001,1.249,0.391,3.039,2.261,4.468c2.013,1.538,2.863,2.424,3.613,3.207
				c0.777,0.81,1.447,1.509,3.195,2.752c1.613,1.147,3.807,1.601,5.869,1.214c1.994-0.374,3.694-1.497,4.786-3.16
				c0.342-0.52,0.927-1.144,1.604-1.866c1.941-2.07,4.6-4.906,4.145-8.043c-0.507-3.496-2.236-4.851-3.908-6.162
				c-0.152-0.119-0.303-0.237-0.453-0.357c-0.314-0.251-0.649-0.556-1.003-0.88c-1.744-1.592-4.133-3.772-8.247-3.381
				c-0.732,0.07-1.429,0.222-2.071,0.453c-0.126,0.045-0.265-0.02-0.31-0.146c-0.045-0.126,0.02-0.264,0.146-0.31
				c0.68-0.245,1.416-0.406,2.189-0.48c1.917-0.182,3.642,0.143,5.275,0.995c1.389,0.725,2.473,1.715,3.345,2.51
				c0.348,0.318,0.677,0.618,0.979,0.859c0.149,0.119,0.299,0.236,0.449,0.354c1.747,1.369,3.554,2.785,4.088,6.473
				c0.488,3.368-2.263,6.302-4.271,8.444c-0.662,0.706-1.233,1.316-1.552,1.801c-1.166,1.774-2.978,2.971-5.102,3.37
				C18.734,63.513,17.754,63.522,16.81,63.375z"/>
			<path class="st3" d="M17.43,50.838c-0.254-0.04-0.51-0.111-0.764-0.213c-0.89-0.36-1.376-1.019-1.3-1.765
				c0.074-0.733,0.673-1.346,1.456-1.49c0.132-0.024,0.258,0.063,0.282,0.194s-0.063,0.258-0.194,0.282
				c-0.563,0.104-1.01,0.551-1.062,1.063c-0.053,0.527,0.311,0.989,1,1.268c0.684,0.276,1.387,0.287,1.979,0.029
				c0.443-0.193,0.791-0.526,0.931-0.891c0.129-0.336,0.107-0.682-0.062-0.974c-0.207-0.357-0.611-0.599-1.139-0.681
				c-0.132-0.021-0.222-0.144-0.202-0.277c0.021-0.132,0.144-0.222,0.277-0.202c0.675,0.105,1.202,0.431,1.483,0.917
				c0.244,0.421,0.278,0.915,0.096,1.39c-0.188,0.491-0.622,0.915-1.19,1.162C18.532,50.862,17.985,50.924,17.43,50.838z"/>
			<path class="st3" d="M17.383,52.678c-0.188-0.029-0.338-0.066-0.431-0.092c-0.218-0.061-0.94-0.29-1.097-0.702
				c-0.187-0.49-0.435-1.358-0.446-1.395c-0.037-0.129,0.038-0.263,0.167-0.299c0.129-0.037,0.263,0.038,0.299,0.166
				c0.002,0.009,0.253,0.885,0.432,1.355c0.029,0.075,0.285,0.271,0.774,0.408c0.645,0.18,1.547,0.206,2.144-0.26
				c0.105-0.082,0.257-0.063,0.34,0.042c0.082,0.105,0.064,0.257-0.042,0.34C18.828,52.784,17.94,52.765,17.383,52.678z"/>
			<path class="st3" d="M19.766,51.637c-0.132-0.021-0.223-0.144-0.202-0.277l0.139-0.893c0.021-0.132,0.144-0.222,0.277-0.202
				c0.132,0.021,0.222,0.144,0.202,0.277l-0.139,0.893C20.022,51.568,19.898,51.658,19.766,51.637z"/>
		</g>
	</g>
	<g>
		<g>
			<path class="st5" d="M38.841,0.002c-0.654,0.718-1.418,1.346-2.223,1.849c-3.394,2.123-6.319,7.056-11.976,5.181
				c-1.5-0.498-2.61-1.049-3.489-1.664c-2.037-1.422-2.848-3.177-4.441-5.366H38.841z"/>
			<path class="st3" d="M38.19,0.002c-0.554,0.547-1.187,1.048-1.883,1.483c-0.864,0.54-1.694,1.263-2.572,2.029
				c-2.478,2.16-5.288,4.608-9.607,3.176c-0.765-0.254-1.431-0.523-2.018-0.806c-0.345-0.166-0.661-0.339-0.955-0.516
				c-1.943-1.171-2.884-2.572-3.989-4.22C16.92,0.782,16.662,0.4,16.382,0.002h0.59c0.21,0.302,0.405,0.594,0.594,0.876
				c1.566,2.334,2.698,4.02,6.713,5.352c4.058,1.346,6.64-0.905,9.137-3.081c0.893-0.778,1.737-1.514,2.634-2.075
				c0.517-0.323,0.996-0.684,1.432-1.072H38.19z"/>
		</g>
	</g>
	<g>
		<g>
			<path class="st0" d="M10.666,88.407c-2.586,2.56-4.194,7.518-9.583,6.984C0.699,95.353,0.339,95.306,0,95.25V71.369
				c1.31-0.183,2.416-0.083,3.378,0.219c0.293,0.09,0.572,0.2,0.84,0.326c1.116,0.524,2.035,1.326,2.882,2.237
				c1.401,1.504,2.607,3.304,4.183,4.636c0.469,0.396,0.843,0.818,1.135,1.258C14.252,82.797,12.848,86.247,10.666,88.407z"/>
			<path class="st1" d="M1.925,85.122C1.266,85.404,0.567,85.406,0,85.288v-2.776c0.554,0.058,1.175,0.124,1.695,0.182
				c0.254,0.029,0.486,0.057,0.673,0.081c0.011,0.001,0.022,0.002,0.031,0.004c0.154,0.021,0.278,0.039,0.36,0.052
				c0.03,0.006,0.055,0.011,0.073,0.014C3.263,82.945,1.925,85.122,1.925,85.122z"/>
			<path class="st2" d="M2.834,82.845c-0.019,0.019-0.041,0.039-0.063,0.058c-0.153,0.134-0.357,0.26-0.595,0.365
				C1.595,83.525,0.804,83.659,0,83.478v-2.866c0.089-0.012,0.18-0.019,0.269-0.024c0.904-0.045,1.624,0.232,2.102,0.617
				c0.318,0.257,0.53,0.56,0.618,0.849v0.001C3.081,82.359,3.036,82.647,2.834,82.845z"/>
			<path class="st3" d="M0,71.115v-0.443c1.583-0.134,2.979,0.146,4.242,0.848c0.106,0.059,0.145,0.193,0.086,0.299
				c-0.025,0.046-0.065,0.078-0.11,0.096c-0.059,0.025-0.129,0.023-0.189-0.011c-0.212-0.118-0.429-0.223-0.651-0.316
				C2.358,71.162,1.241,71.004,0,71.115z"/>
			<path class="st3" d="M10.317,88.145c-0.659,0.652-1.251,1.458-1.876,2.312c-1.766,2.411-3.769,5.142-7.884,4.735
				C0.365,95.172,0.18,95.152,0,95.127v-0.443c0.193,0.025,0.393,0.048,0.6,0.069c3.866,0.383,5.706-2.128,7.485-4.557
				c0.636-0.869,1.237-1.688,1.922-2.365c1.657-1.641,2.602-3.734,2.529-5.596c-0.057-1.436-0.696-2.679-1.9-3.698
				c-1.013-0.857-1.881-1.91-2.719-2.928c-0.301-0.365-0.613-0.743-0.924-1.104c-0.08-0.091-0.07-0.231,0.023-0.31
				c0.025-0.022,0.054-0.037,0.084-0.045c0.079-0.023,0.167,0,0.225,0.066c0.314,0.364,0.628,0.744,0.93,1.112
				c0.826,1.002,1.682,2.041,2.665,2.871c0.654,0.553,1.155,1.17,1.498,1.844c0.341,0.669,0.528,1.394,0.558,2.172
				C13.054,84.202,12.06,86.418,10.317,88.145z"/>
			<path class="st3" d="M2.989,82.054v0.001c-0.043,0.116-0.112,0.238-0.216,0.363c-0.08,0.095-0.165,0.183-0.255,0.263
				c-0.039,0.035-0.077,0.067-0.118,0.098c-0.018,0.016-0.036,0.03-0.055,0.042v0.001C1.732,83.269,0.911,83.421,0,83.263v-0.442
				c0.639,0.126,1.218,0.083,1.695-0.127c0.287-0.127,0.536-0.312,0.74-0.557c0.171-0.206,0.214-0.412,0.131-0.629
				c-0.04-0.102-0.106-0.205-0.195-0.304c-0.304-0.339-0.86-0.631-1.411-0.712c-0.119-0.018-0.202-0.13-0.186-0.249
				c0.018-0.12,0.13-0.204,0.251-0.186c0.748,0.108,1.687,0.6,1.952,1.294C3.046,81.532,3.089,81.779,2.989,82.054z"/>
			<path class="st3" d="M2.029,84.358C2.02,84.356,2.01,84.353,2.001,84.35c-0.114-0.043-0.171-0.17-0.128-0.284l0.471-1.246
				c0.043-0.114,0.17-0.17,0.284-0.128c0.114,0.043,0.171,0.17,0.128,0.284l-0.471,1.246C2.245,84.326,2.135,84.383,2.029,84.358z"
				/>
			<path class="st3" d="M0.259,84.925C0.177,84.936,0.09,84.94,0,84.935v-0.437c0.07,0.002,0.137,0,0.201-0.009
				c0.122-0.016,0.231,0.069,0.247,0.189C0.464,84.799,0.379,84.91,0.259,84.925z"/>
		</g>
	</g>
</g>
</svg>
