<?xml version="1.0" encoding="utf-8"?>
<!-- Generator: Adobe Illustrator 22.1.0, SVG Export Plug-In . SVG Version: 6.00 Build 0)  -->
<svg version="1.1" id="_x31_0" xmlns="http://www.w3.org/2000/svg" xmlns:xlink="http://www.w3.org/1999/xlink" x="0px" y="0px"
	 viewBox="0 0 128 128" style="enable-background:new 0 0 128 128;" xml:space="preserve">
<style type="text/css">
	.st0{fill:#FFFFFF;}
	.st1{fill:#FEB89F;}
	.st2{fill:#231815;}
</style>
<g>
	<rect class="st0" width="128" height="128"/>
	<g>
		<path class="st1" d="M78.325,9.887c-0.441-3.67-2.618-5.978-5.973-6.331c-1.081-0.115-2.094,0.052-3.014,0.491
			c-0.85,0.405-1.583,1.044-2.123,1.841c-1.194,1.77-1.314,4.137-0.308,6.03c0.552,1.038,1.42,1.894,2.507,2.473
			c1.228,0.654,2.742,0.932,4.205,0.784c-0.938,3.322-2.942,7.181-5.705,10.821c-5.245,6.905-12.58,12.295-20.653,15.178
			l-0.396,0.142l1.411,3.952l0.396-0.142c4.68-1.671,9.093-4.072,13.114-7.133c3.593-2.736,6.78-5.919,9.467-9.458
			C76.211,22.01,78.92,14.865,78.325,9.887z M48.217,42.611l-0.281-0.789c8.069-2.969,15.388-8.397,20.644-15.318
			c4.384-5.768,6.9-12.136,6.41-16.218c-0.251-2.096-1.228-3.206-2.991-3.391C71.136,6.803,70.444,7.104,70,7.766
			c-0.502,0.742-0.554,1.777-0.129,2.577c0.611,1.148,2.066,2.075,4.339,1.305c-0.011,0.341-0.041,0.697-0.086,1.063
			c-2.385,0.224-4.147-0.375-4.967-1.693c-0.651-1.047-0.62-2.442,0.075-3.554c0.638-1.017,1.678-1.53,2.854-1.406
			c2.715,0.287,3.531,2.403,3.737,4.128c0.513,4.287-2.067,10.891-6.575,16.824C63.894,34.059,56.439,39.586,48.217,42.611z
			 M74.21,11.108l-0.115-0.31c-2.351,0.87-3.26-0.43-3.482-0.85c-0.283-0.533-0.251-1.221,0.082-1.712
			c0.271-0.405,0.66-0.565,1.218-0.507c0.907,0.097,1.985,0.484,2.245,2.657C74.185,10.618,74.202,10.859,74.21,11.108z
			 M70.586,28.028c-2.643,3.479-5.775,6.607-9.31,9.297c-3.839,2.924-8.04,5.234-12.494,6.869l-0.283-0.793
			c18.526-6.812,29.213-24.495,28.158-33.315c-0.343-2.867-1.935-4.594-4.481-4.861c-1.486-0.156-2.853,0.515-3.654,1.793
			c-0.866,1.381-0.896,3.125-0.077,4.443c0.567,0.913,2.037,2.376,5.55,2.103c-0.045,0.242-0.095,0.488-0.152,0.737
			c-0.353,0.054-0.69,0.075-1.009,0.075c-1.474,0-2.57-0.484-3.025-0.726c-0.94-0.5-1.685-1.235-2.161-2.127
			c-0.863-1.623-0.758-3.651,0.264-5.168c0.455-0.674,1.074-1.21,1.789-1.553c0.778-0.371,1.641-0.511,2.564-0.414
			c2.932,0.308,4.838,2.349,5.227,5.598C78.061,14.755,75.415,21.669,70.586,28.028z"/>
		<path class="st1" d="M77.111,73.387l-0.394,0.142C72.035,75.2,67.622,77.6,63.6,80.663c-3.593,2.736-6.78,5.917-9.467,9.457
			c-4.956,6.527-7.665,13.672-7.07,18.648c0.439,3.671,2.616,5.978,5.973,6.331c0.221,0.023,0.438,0.036,0.653,0.036
			c0.836,0,1.628-0.176,2.36-0.527c0.85-0.405,1.585-1.042,2.123-1.84c1.194-1.771,1.316-4.138,0.308-6.032
			c-0.552-1.038-1.418-1.894-2.507-2.473c-1.226-0.653-2.742-0.932-4.203-0.784c0.938-3.321,2.941-7.181,5.706-10.821
			c5.245-6.905,12.578-12.295,20.653-15.178l0.395-0.142L77.111,73.387z M52.551,104.278c1.476,0,2.573,0.484,3.027,0.726
			c0.94,0.502,1.687,1.235,2.161,2.127c0.862,1.623,0.758,3.651-0.264,5.168c-0.455,0.674-1.074,1.21-1.788,1.553
			c-0.778,0.373-1.643,0.511-2.564,0.414c-2.934-0.308-4.84-2.349-5.227-5.596c-0.57-4.77,2.075-11.682,6.905-18.04
			c2.643-3.48,5.774-6.609,9.308-9.299c3.839-2.923,8.042-5.232,12.494-6.869l0.283,0.793
			c-18.526,6.812-29.213,24.497-28.158,33.315c0.344,2.867,1.935,4.594,4.483,4.861c0.142,0.016,0.283,0.023,0.423,0.023
			c1.318,0,2.505-0.66,3.231-1.816c0.864-1.381,0.895-3.125,0.077-4.443c-0.568-0.913-2.039-2.374-5.551-2.103
			c0.045-0.242,0.095-0.488,0.152-0.737C51.895,104.301,52.232,104.278,52.551,104.278z M56.806,92.151
			c-4.382,5.77-6.898,12.135-6.41,16.218c0.251,2.096,1.228,3.206,2.991,3.391c0.862,0.093,1.555-0.21,2.001-0.87
			c0.5-0.744,0.552-1.779,0.127-2.578c-0.61-1.148-2.066-2.075-4.337-1.305c0.009-0.341,0.041-0.698,0.084-1.061
			c2.387-0.224,4.149,0.373,4.967,1.691c0.651,1.049,0.622,2.444-0.075,3.554c-0.638,1.017-1.678,1.528-2.854,1.406
			c-2.715-0.285-3.531-2.403-3.737-4.128c-0.513-4.287,2.067-10.891,6.575-16.824c5.354-7.049,12.812-12.575,21.031-15.6
			l0.282,0.789C69.381,79.804,62.063,85.23,56.806,92.151z M51.178,107.547l0.115,0.31c2.349-0.87,3.258,0.43,3.482,0.85
			c0.283,0.533,0.249,1.221-0.083,1.714c-0.273,0.403-0.66,0.563-1.217,0.506c-0.909-0.095-1.985-0.484-2.245-2.657
			C51.201,108.036,51.183,107.796,51.178,107.547z"/>
		<path class="st2" d="M48.492,73.351c-1.671-4.682-4.072-9.094-7.133-13.116c-2.738-3.593-5.919-6.78-9.458-9.467
			c-6.525-4.956-13.67-7.665-18.648-7.07c-3.67,0.439-5.978,2.616-6.331,5.973c-0.115,1.079,0.052,2.092,0.491,3.012
			c0.407,0.85,1.044,1.585,1.841,2.123c1.77,1.194,4.137,1.316,6.03,0.308c1.038-0.552,1.894-1.418,2.473-2.507
			c0.654-1.226,0.934-2.742,0.784-4.203c3.323,0.938,7.181,2.941,10.821,5.706c6.905,5.245,12.295,12.578,15.178,20.653l0.142,0.394
			l3.952-1.411L48.492,73.351z M45.187,74.084c-2.969-8.069-8.397-15.386-15.318-20.644c-5.293-4.02-11.088-6.471-15.16-6.471
			c-0.368,0-0.719,0.02-1.056,0.061c-2.098,0.251-3.208,1.228-3.392,2.991c-0.091,0.863,0.21,1.555,0.871,2.001
			c0.742,0.5,1.777,0.552,2.577,0.127c1.148-0.61,2.075-2.066,1.305-4.337c0.342,0.009,0.697,0.041,1.063,0.084
			c0.224,2.387-0.375,4.147-1.693,4.967c-1.047,0.651-2.442,0.62-3.554-0.075c-1.017-0.638-1.529-1.678-1.406-2.854
			c0.287-2.715,2.403-3.531,4.128-3.737c4.287-0.513,10.891,2.067,16.824,6.575c7.049,5.354,12.575,12.81,15.6,21.031L45.187,74.084
			z M13.314,51.409c-0.533,0.283-1.221,0.249-1.712-0.083c-0.405-0.273-0.565-0.66-0.507-1.217c0.097-0.909,0.484-1.985,2.657-2.245
			c0.233-0.029,0.473-0.047,0.723-0.052l-0.31,0.113C15.033,50.276,13.733,51.185,13.314,51.409z M46.767,73.521
			C39.955,54.995,22.27,44.303,13.452,45.363c-2.867,0.344-4.594,1.935-4.861,4.483c-0.156,1.485,0.515,2.851,1.793,3.654
			c1.381,0.864,3.125,0.895,4.443,0.077c0.913-0.568,2.374-2.037,2.103-5.551c0.242,0.045,0.488,0.095,0.737,0.152
			c0.054,0.353,0.075,0.69,0.075,1.01c0,1.476-0.484,2.571-0.726,3.025c-0.5,0.94-1.235,1.687-2.127,2.161
			c-1.623,0.862-3.651,0.758-5.168-0.264c-0.674-0.455-1.21-1.074-1.553-1.79c-0.371-0.776-0.511-1.639-0.414-2.562
			c0.31-2.933,2.349-4.839,5.598-5.227c4.77-0.572,11.682,2.075,18.04,6.905c3.479,2.641,6.608,5.774,9.297,9.308
			c2.924,3.839,5.234,8.042,6.869,12.494L46.767,73.521z"/>
		<path class="st2" d="M117.973,65.972c-0.405-0.85-1.042-1.583-1.84-2.123c-1.77-1.194-4.138-1.314-6.032-0.308
			c-1.038,0.552-1.894,1.418-2.473,2.507c-0.653,1.228-0.933,2.742-0.784,4.205c-3.321-0.938-7.181-2.941-10.821-5.706
			c-6.905-5.245-12.295-12.58-15.178-20.654l-0.142-0.394l-3.952,1.411l0.142,0.396c1.671,4.68,4.072,9.093,7.135,13.115
			c2.736,3.593,5.919,6.78,9.457,9.467c5.93,4.504,12.37,7.153,17.231,7.153c0.488,0,0.963-0.027,1.416-0.083
			c3.67-0.439,5.98-2.616,6.333-5.971C118.579,67.905,118.414,66.892,117.973,65.972z M80.199,44.57
			c2.971,8.069,8.397,15.388,15.318,20.644c5.77,4.384,12.137,6.9,16.218,6.41c2.096-0.251,3.206-1.228,3.392-2.991
			c0.09-0.863-0.212-1.555-0.873-2.001c-0.742-0.5-1.777-0.552-2.577-0.127c-1.147,0.612-2.075,2.066-1.305,4.339
			c-0.341-0.011-0.698-0.041-1.062-0.086c-0.226-2.385,0.373-4.147,1.691-4.967c1.049-0.651,2.444-0.62,3.554,0.075
			c1.017,0.638,1.529,1.678,1.406,2.854c-0.285,2.715-2.403,3.531-4.128,3.737c-4.284,0.513-10.891-2.067-16.824-6.575
			c-7.049-5.354-12.575-12.81-15.6-21.031L80.199,44.57z M112.072,67.245c0.242-0.127,0.515-0.19,0.787-0.19
			c0.33,0,0.658,0.091,0.927,0.273c0.403,0.273,0.565,0.66,0.506,1.217c-0.095,0.909-0.484,1.987-2.657,2.247
			c-0.233,0.027-0.473,0.045-0.723,0.052l0.31-0.115C110.353,68.379,111.653,67.47,112.072,67.245z M117.631,68.897
			c-0.308,2.933-2.349,4.839-5.596,5.229c-4.771,0.57-11.682-2.076-18.04-6.905c-3.48-2.643-6.607-5.775-9.299-9.31
			c-2.923-3.839-5.234-8.04-6.869-12.494l0.792-0.283c6.504,17.689,22.917,28.23,32.065,28.23c0.432,0,0.85-0.023,1.25-0.072
			c2.867-0.342,4.594-1.935,4.861-4.483c0.158-1.485-0.513-2.851-1.793-3.652c-1.381-0.866-3.125-0.896-4.443-0.077
			c-0.913,0.567-2.374,2.035-2.103,5.549c-0.242-0.045-0.486-0.095-0.737-0.152c-0.296-1.98,0.357-3.48,0.653-4.034
			c0.5-0.94,1.235-1.687,2.125-2.161c1.623-0.863,3.651-0.759,5.168,0.264c0.674,0.455,1.212,1.074,1.553,1.79
			C117.589,67.111,117.727,67.975,117.631,68.897z"/>
		<path class="st2" d="M77.353,112.3c4.77-0.572,11.68,2.075,18.04,6.905c3.31,2.514,6.303,5.471,8.901,8.795h1.06
			c-2.736-3.593-5.915-6.776-9.453-9.464c-6.527-4.956-13.669-7.665-18.648-7.07c-3.671,0.439-5.978,2.616-6.331,5.973
			c-0.115,1.079,0.052,2.094,0.491,3.014c0.405,0.85,1.042,1.583,1.841,2.121c1.77,1.194,4.137,1.316,6.03,0.31
			c1.038-0.552,1.893-1.42,2.473-2.507c0.653-1.228,0.932-2.742,0.784-4.205c3.323,0.938,7.181,2.941,10.821,5.706
			c2.383,1.809,4.585,3.868,6.566,6.122h1.11c-2.139-2.512-4.547-4.798-7.169-6.79c-5.293-4.02-11.088-6.469-15.16-6.469
			c-0.368,0-0.721,0.02-1.058,0.059c-2.096,0.251-3.206,1.23-3.391,2.991c-0.091,0.864,0.21,1.556,0.871,2.001
			c0.742,0.5,1.777,0.552,2.577,0.127c1.148-0.61,2.075-2.064,1.305-4.337c0.341,0.011,0.698,0.041,1.063,0.086
			c0.224,2.385-0.375,4.147-1.693,4.965c-1.047,0.651-2.442,0.622-3.554-0.075c-1.017-0.636-1.53-1.678-1.406-2.854
			c0.285-2.713,2.403-3.529,4.128-3.735c4.287-0.515,10.891,2.067,16.824,6.575c2.856,2.17,5.463,4.683,7.755,7.457h1.067
			c-8.201-10.176-19.322-15.632-25.747-14.866c-2.867,0.342-4.594,1.935-4.861,4.481c-0.158,1.486,0.513,2.853,1.793,3.654
			c1.381,0.866,3.125,0.896,4.443,0.077c0.913-0.567,2.374-2.037,2.103-5.551c0.242,0.045,0.488,0.095,0.737,0.154
			c0.054,0.353,0.075,0.69,0.075,1.009c0,1.476-0.484,2.57-0.726,3.025c-0.5,0.939-1.235,1.686-2.127,2.159
			c-1.623,0.864-3.651,0.76-5.168-0.264c-0.674-0.455-1.21-1.072-1.553-1.788c-0.371-0.778-0.511-1.641-0.414-2.564
			C72.063,114.593,74.104,112.689,77.353,112.3z M77.313,119.178c-0.533,0.283-1.221,0.249-1.714-0.083
			c-0.403-0.273-0.563-0.66-0.506-1.217c0.097-0.909,0.484-1.985,2.657-2.245c0.233-0.027,0.473-0.045,0.723-0.052l-0.31,0.115
			C79.033,118.045,77.733,118.956,77.313,119.178z"/>
		<path class="st1" d="M110.864,109.085l1.411,3.952l0.395-0.14c4.682-1.671,9.094-4.072,13.116-7.135
			c0.757-0.576,1.495-1.173,2.215-1.788v-1.11c-0.879,0.773-1.788,1.517-2.724,2.231c-3.839,2.923-8.042,5.232-12.494,6.868
			l-0.283-0.793c6.048-2.223,11.261-5.605,15.501-9.46v-1.119c-4.567,4.28-9.986,7.656-15.783,9.79l-0.282-0.789
			c5.935-2.186,11.463-5.698,16.064-10.161v-1.176c-4.727,4.75-10.515,8.467-16.742,10.69L110.864,109.085z"/>
		<path class="st2" d="M112.492,13.12c-1.671-4.68-4.072-9.093-7.135-13.115c-0.002-0.002-0.003-0.004-0.003-0.005h-1.06
			c0.133,0.17,0.265,0.341,0.396,0.513c2.924,3.841,5.234,8.042,6.869,12.496l-0.793,0.283c-1.852-5.037-4.508-9.494-7.57-13.292
			h-1.065c3.362,4.065,6.046,8.684,7.845,13.573l-0.789,0.281c-1.845-5.013-4.639-9.736-8.149-13.855h-1.11
			c3.76,4.275,6.724,9.245,8.612,14.531l0.142,0.396l3.952-1.411L112.492,13.12z"/>
		<path class="st1" d="M128,21.185v-1.054c-0.135,0.1-0.267,0.201-0.4,0.301c-3.593,2.736-6.78,5.919-9.467,9.458
			c-4.956,6.525-7.665,13.67-7.07,18.648c0.439,3.67,2.616,5.978,5.973,6.331c0.22,0.023,0.438,0.036,0.651,0.036
			c0.837,0,1.63-0.177,2.361-0.527c0.85-0.407,1.585-1.044,2.123-1.841c1.194-1.77,1.316-4.137,0.308-6.03
			c-0.552-1.038-1.418-1.894-2.507-2.473c-1.228-0.653-2.742-0.934-4.203-0.785c0.938-3.321,2.941-7.179,5.704-10.819
			c1.919-2.525,4.117-4.847,6.527-6.918v-1.099c-2.672,2.223-5.098,4.748-7.194,7.509c-4.382,5.768-6.9,12.135-6.41,16.216
			c0.251,2.098,1.228,3.208,2.991,3.392c0.863,0.091,1.555-0.21,2.001-0.871c0.5-0.742,0.552-1.777,0.127-2.577
			c-0.61-1.148-2.066-2.075-4.337-1.305c0.009-0.341,0.041-0.697,0.084-1.063c2.387-0.222,4.147,0.375,4.967,1.693
			c0.651,1.047,0.62,2.442-0.075,3.554c-0.638,1.017-1.678,1.528-2.855,1.406c-2.715-0.287-3.531-2.403-3.737-4.128
			c-0.513-4.287,2.067-10.891,6.575-16.824c2.275-2.996,4.931-5.716,7.863-8.085v-1.06c-10.437,8.232-16.05,19.562-15.272,26.069
			c0.344,2.867,1.935,4.594,4.483,4.861c0.142,0.014,0.283,0.023,0.423,0.023c1.318,0,2.505-0.66,3.231-1.816
			c0.864-1.381,0.895-3.125,0.075-4.443c-0.567-0.913-2.035-2.376-5.549-2.103c0.045-0.242,0.095-0.488,0.152-0.737
			c0.351-0.052,0.688-0.075,1.008-0.075c1.476,0,2.571,0.484,3.027,0.726c0.939,0.5,1.687,1.235,2.161,2.127
			c0.863,1.623,0.758,3.651-0.264,5.168c-0.455,0.674-1.074,1.21-1.79,1.553c-0.778,0.371-1.641,0.511-2.562,0.414
			c-2.933-0.31-4.839-2.349-5.227-5.598c-0.572-4.768,2.075-11.682,6.905-18.04C121.416,26.955,124.511,23.855,128,21.185z
			 M115.291,47.627c2.351-0.871,3.26,0.43,3.484,0.85c0.283,0.532,0.249,1.221-0.082,1.712c-0.273,0.405-0.66,0.565-1.218,0.507
			c-0.909-0.097-1.985-0.484-2.245-2.657c-0.029-0.233-0.047-0.473-0.054-0.723L115.291,47.627z"/>
		<path class="st2" d="M25.969,128h1.166c-4.56-4.651-8.128-10.287-10.289-16.337l-0.142-0.396l-3.952,1.413l0.142,0.395
			c1.671,4.68,4.072,9.093,7.135,13.115c0.468,0.617,0.95,1.219,1.447,1.811h1.101c-0.649-0.751-1.277-1.526-1.881-2.318
			c-2.923-3.841-5.232-8.042-6.868-12.494l0.792-0.283c2.153,5.856,5.394,10.931,9.096,15.096h1.106
			c-4.101-4.483-7.343-9.753-9.414-15.379l0.789-0.281C18.32,118.102,21.694,123.481,25.969,128z"/>
		<path class="st1" d="M14.325,77.656c-0.439-3.67-2.616-5.978-5.973-6.331c-1.079-0.113-2.094,0.052-3.014,0.491
			c-0.85,0.407-1.583,1.044-2.121,1.841c-1.194,1.77-1.316,4.137-0.31,6.03c0.552,1.04,1.42,1.894,2.507,2.473
			c1.228,0.654,2.742,0.934,4.205,0.785c-0.938,3.321-2.941,7.181-5.706,10.821c-1.2,1.58-2.509,3.079-3.912,4.488v1.178
			c1.655-1.601,3.19-3.328,4.581-5.159c4.382-5.77,6.898-12.135,6.41-16.218c-0.251-2.098-1.23-3.208-2.991-3.393
			C7.136,74.572,6.444,74.875,6,75.535c-0.502,0.742-0.552,1.779-0.129,2.577c0.611,1.147,2.067,2.074,4.339,1.305
			c-0.011,0.342-0.041,0.699-0.086,1.063c-2.385,0.224-4.147-0.373-4.965-1.691c-0.651-1.049-0.622-2.444,0.074-3.556
			c0.638-1.017,1.678-1.528,2.856-1.404c2.713,0.285,3.529,2.401,3.735,4.126c0.513,4.287-2.067,10.893-6.575,16.826
			C3.67,96.86,1.91,98.805,0,100.591v1.121c8.75-7.952,13.367-17.914,12.657-23.855c-0.342-2.867-1.935-4.594-4.481-4.863
			c-1.486-0.156-2.853,0.515-3.654,1.795c-0.866,1.381-0.897,3.123-0.077,4.443c0.567,0.913,2.035,2.374,5.55,2.102
			c-0.043,0.242-0.093,0.486-0.152,0.737c-1.978,0.298-3.48-0.355-4.034-0.651c-0.94-0.5-1.686-1.235-2.159-2.125
			c-0.864-1.623-0.76-3.652,0.264-5.168c0.454-0.674,1.072-1.212,1.788-1.553c0.778-0.373,1.641-0.511,2.564-0.414
			c2.932,0.308,4.838,2.347,5.227,5.596c0.57,4.77-2.076,11.682-6.905,18.04C4.644,98.353,2.437,100.72,0,102.865v1.11
			c2.699-2.304,5.13-4.875,7.253-7.671C12.211,89.779,14.92,82.633,14.325,77.656z M10.095,78.569c-2.351,0.87-3.26-0.43-3.482-0.85
			c-0.283-0.532-0.251-1.221,0.082-1.714c0.273-0.403,0.66-0.565,1.217-0.506c0.907,0.095,1.985,0.484,2.245,2.656
			c0.027,0.233,0.045,0.475,0.052,0.723L10.095,78.569z"/>
		<path class="st2" d="M53.975,5.743c-0.407-0.85-1.044-1.585-1.841-2.123c-1.77-1.194-4.137-1.316-6.03-0.308
			c-1.04,0.552-1.895,1.418-2.473,2.507c-0.654,1.226-0.934,2.742-0.785,4.203c-3.321-0.938-7.181-2.941-10.821-5.705
			c-1.73-1.314-3.366-2.761-4.89-4.316h-1.166c1.712,1.809,3.57,3.482,5.548,4.985c5.293,4.02,11.088,6.471,15.162,6.471
			c0.366,0,0.719-0.02,1.056-0.061c2.098-0.251,3.206-1.228,3.393-2.991c0.09-0.862-0.212-1.555-0.872-2.001
			c-0.742-0.5-1.779-0.552-2.578-0.127c-1.148,0.61-2.075,2.066-1.305,4.337c-0.341-0.009-0.697-0.041-1.062-0.084
			c-0.226-2.387,0.373-4.149,1.691-4.967c1.049-0.651,2.444-0.622,3.554,0.075c1.019,0.637,1.53,1.678,1.406,2.855
			c-0.285,2.715-2.401,3.531-4.126,3.737c-4.287,0.513-10.893-2.069-16.826-6.575C28.786,3.964,26.713,2.066,24.823,0h-1.106
			c7.479,8.417,16.849,13.134,22.967,13.132c0.434,0,0.852-0.023,1.25-0.07c2.867-0.344,4.594-1.935,4.863-4.483
			c0.156-1.485-0.515-2.851-1.795-3.654c-1.381-0.864-3.123-0.895-4.443-0.077c-0.913,0.568-2.374,2.037-2.102,5.551
			c-0.242-0.045-0.488-0.095-0.739-0.152c-0.052-0.351-0.075-0.689-0.075-1.008c0-1.476,0.484-2.573,0.728-3.027
			c0.5-0.94,1.235-1.687,2.125-2.161c1.623-0.862,3.651-0.758,5.168,0.264c0.674,0.455,1.212,1.074,1.553,1.788
			c0.373,0.778,0.511,1.641,0.414,2.564c-0.308,2.933-2.349,4.839-5.596,5.227c-4.77,0.572-11.682-2.075-18.04-6.905
			C27.296,4.94,24.809,2.596,22.576,0h-1.103c2.392,2.862,5.08,5.431,8.013,7.658c5.928,4.504,12.369,7.153,17.23,7.151
			c0.49,0,0.963-0.027,1.417-0.081c3.672-0.439,5.98-2.616,6.333-5.973C54.579,7.676,54.414,6.663,53.975,5.743z M48.072,7.016
			c0.242-0.127,0.514-0.192,0.787-0.192c0.33,0,0.658,0.093,0.927,0.274c0.403,0.273,0.565,0.66,0.506,1.217
			c-0.095,0.909-0.484,1.985-2.657,2.245c-0.233,0.029-0.473,0.047-0.721,0.052l0.308-0.115C46.353,8.149,47.653,7.239,48.072,7.016
			z"/>
		<path class="st1" d="M13.111,13.158l-0.394,0.14C8.189,14.915,3.914,17.213,0,20.131v1.054c0.036-0.029,0.073-0.056,0.109-0.084
			c3.841-2.924,8.042-5.234,12.494-6.869l0.283,0.793C8.029,16.81,3.71,19.344,0,22.27v1.06c3.968-3.21,8.442-5.775,13.168-7.515
			l0.283,0.789C8.601,18.388,4.022,21.061,0,24.413v1.099c4.181-3.593,9.007-6.432,14.128-8.261l0.394-0.142L13.111,13.158z"/>
	</g>
</g>
</svg>
